<!-- Generator: Adobe Illustrator 25.0.0, SVG Export Plug-In  -->
<svg version="1.1" xmlns="http://www.w3.org/2000/svg" xmlns:xlink="http://www.w3.org/1999/xlink" x="0px" y="0px"
	 width="135.79px" height="135.79px" viewBox="0 0 135.79 135.79"
	 style="overflow:visible;enable-background:new 0 0 135.79 135.79;" xml:space="preserve">
<style type="text/css">
	.st0{fill:#FFFFFF;}
</style>
<defs>
</defs>
<g>
	<path class="st0" d="M84.32,31.9H51.47c-1.42,0-2.58,1.15-2.58,2.58v58.84c0,1.42,1.15,2.58,2.58,2.58h32.84
		c1.42,0,2.58-1.15,2.58-2.58V34.47C86.9,33.05,85.74,31.9,84.32,31.9z"/>
	<circle class="st0" cx="67.9" cy="103.9" r="4.8"/>
	<path class="st0" d="M67.9,0C30.4,0,0,30.4,0,67.9s30.4,67.9,67.9,67.9c37.5,0,67.9-30.4,67.9-67.9S105.4,0,67.9,0z M91.9,102.9
		c0,4.99-4.01,9-9,9h-30c-4.99,0-9-4.01-9-9v-70c0-4.99,4.01-9,9-9h30c4.99,0,9,4.01,9,9V102.9z"/>
</g>
</svg>
