<svg version="1.1" xmlns="http://www.w3.org/2000/svg" xmlns:xlink="http://www.w3.org/1999/xlink" x="0px" y="0px"
	 width="103.56px" fill='white' height="81.09px" viewBox="0 0 103.56 81.09" style="overflow:visible;enable-background:new 0 0 103.56 81.09;"
	 xml:space="preserve">
<defs>
</defs>
<g>
	<path d="M28.27,60.38v-1.71c0-0.17,0.09-0.27,0.25-0.28c0.18,0.01,0.28,0.11,0.29,0.28v1.71h2.44c0.29-0.37,0.58-0.75,0.84-1.14
		c0.09-0.05,0.16-0.08,0.22-0.1c0.18,0.04,0.27,0.13,0.29,0.29c-0.01,0.07-0.02,0.13-0.04,0.18c-0.68,0.99-1.43,1.91-2.26,2.78
		c-0.12,0.13-0.24,0.27-0.36,0.39h3.42c0.15,0.01,0.24,0.11,0.26,0.28c-0.02,0.18-0.11,0.28-0.26,0.29h-4
		c-0.45,0.44-0.94,0.86-1.46,1.28c-0.19,0.16-0.37,0.3-0.56,0.45c0.01,0.05,0.02,0.08,0.02,0.11v1.32c0.87-0.24,1.55-0.47,2.03-0.69
		c0.47-0.17,0.91-0.36,1.3-0.58c0.63-0.32,1.18-0.64,1.66-0.99c0.09-0.05,0.15-0.08,0.21-0.1c0.18,0.04,0.27,0.13,0.3,0.29
		c0,0.07-0.01,0.13-0.03,0.18c-0.44,0.33-0.92,0.63-1.44,0.92c-0.43,0.26-0.94,0.5-1.53,0.74c-0.65,0.29-1.43,0.57-2.32,0.82
		c-0.09,0.02-0.13,0.02-0.13,0.02c-0.02,0-0.03,0-0.03-0.01v0.87c0,0.5,0.22,0.75,0.68,0.75h3.71c0.35,0,0.63-0.11,0.83-0.31
		c0.15-0.12,0.25-0.68,0.27-1.67c0-0.17,0.1-0.27,0.31-0.28c0.15,0.01,0.23,0.13,0.25,0.37c0,0.36-0.03,0.75-0.08,1.17
		c-0.04,0.44-0.2,0.76-0.46,0.96c-0.28,0.22-0.67,0.33-1.12,0.33h-3.75c-0.8,0-1.19-0.45-1.19-1.32V65.5
		c-0.79,0.57-1.64,1.11-2.57,1.62c-0.13,0.05-0.2,0.06-0.2,0.06c-0.19-0.02-0.28-0.13-0.31-0.33c0-0.12,0.06-0.22,0.22-0.29
		c1.44-0.8,2.56-1.54,3.37-2.23c0.41-0.31,0.81-0.64,1.18-0.98h-4.42c-0.18-0.01-0.26-0.11-0.26-0.29c0-0.17,0.09-0.27,0.26-0.28
		h4.18v-1.84h-2.73c-0.18-0.01-0.26-0.11-0.26-0.29c0-0.17,0.09-0.27,0.26-0.28H28.27z M29.42,62.44c0.48-0.48,0.94-0.99,1.36-1.5
		h-1.97v1.84h0.28C29.22,62.66,29.33,62.55,29.42,62.44z"/>
	<path d="M42.13,58.72c0,0.17-0.08,0.28-0.21,0.33c-0.34,0.24-0.64,0.44-0.93,0.58c0.5,0.53,1.06,0.98,1.68,1.33
		c0.14,0.1,0.28,0.18,0.44,0.25c0.28-0.16,0.57-0.34,0.83-0.56c0.44-0.36,0.84-0.79,1.19-1.27c-0.37-0.12-0.74-0.23-1.12-0.34
		c-0.16-0.02-0.25-0.11-0.25-0.28c0.01-0.17,0.1-0.27,0.25-0.29c0.04,0,0.11,0.02,0.22,0.05c1.19,0.3,2.26,0.71,3.19,1.23
		c0.07,0.05,0.11,0.13,0.12,0.23c-0.01,0.22-0.1,0.32-0.25,0.34c-0.07,0-0.13-0.03-0.18-0.05c-0.47-0.27-0.96-0.5-1.48-0.7
		c-0.41,0.58-0.9,1.09-1.44,1.54c-0.18,0.14-0.34,0.28-0.5,0.38c0.34,0.16,0.7,0.29,1.07,0.41c0.61,0.22,1.59,0.42,2.96,0.64
		c0.15,0.02,0.24,0.12,0.25,0.29c-0.02,0.17-0.12,0.27-0.29,0.28c-0.97-0.1-1.92-0.32-2.86-0.65c-0.59-0.19-1.15-0.41-1.65-0.65
		c-0.41,0.22-0.84,0.4-1.3,0.53c-0.96,0.29-2.25,0.47-3.87,0.54c-0.15-0.03-0.24-0.12-0.25-0.29c0.01-0.17,0.1-0.27,0.25-0.28
		c2-0.12,3.36-0.34,4.08-0.63c0.16-0.05,0.33-0.12,0.5-0.19c-0.1-0.05-0.18-0.1-0.27-0.16c-0.72-0.44-1.31-0.91-1.79-1.43
		c-0.02-0.01-0.02-0.02-0.02-0.02c-0.09,0.04-0.15,0.06-0.22,0.09c-0.41,0.16-0.96,0.27-1.64,0.31c-0.17-0.01-0.26-0.12-0.26-0.33
		c0.01-0.14,0.1-0.22,0.26-0.24c0.65-0.05,1.21-0.17,1.67-0.36c0.44-0.15,0.94-0.44,1.52-0.85c0.01-0.01,0.03-0.02,0.05-0.02
		C42.03,58.49,42.11,58.57,42.13,58.72z M43.37,63.53c-0.01,0.18-0.1,0.28-0.25,0.29h-0.47v5.48c-0.01,0.17-0.1,0.27-0.25,0.28
		c-0.18-0.01-0.26-0.11-0.26-0.28v-1.15c-0.02,0.01-0.03,0.01-0.04,0.01l-3.87,0.47c-0.2-0.01-0.31-0.11-0.31-0.28
		c0-0.15,0.08-0.24,0.22-0.29l0.85-0.1v-4.15H38.3c-0.17-0.01-0.26-0.11-0.26-0.29c0-0.17,0.09-0.27,0.26-0.28h4.81
		C43.27,63.27,43.35,63.37,43.37,63.53z M42.13,64.82v-0.99h-2.64v0.99H42.13z M42.13,66.33v-0.99h-2.64v0.99H42.13z M42.09,67.6
		c0.02,0,0.03,0.01,0.03,0.01l0.01-0.76h-2.64v1.06L42.09,67.6z M46.78,63.26c0.5,0,0.76,0.29,0.76,0.85c0,0-0.02,0.03-0.02,0.05
		c-0.32,0.48-0.57,0.88-0.76,1.2c-0.02,0.05-0.02,0.09-0.02,0.09c0,0.05,0.01,0.08,0.05,0.11c0.64,0.58,0.97,1.18,0.97,1.78
		c0,0.41-0.13,0.75-0.39,1.02c-0.26,0.27-0.6,0.4-1.02,0.4c-0.25,0-0.63-0.1-1.16-0.28c-0.15-0.05-0.23-0.13-0.25-0.29
		c0-0.21,0.1-0.32,0.29-0.33c0.02,0,0.07,0.01,0.13,0.04c0.49,0.17,0.83,0.24,1.03,0.24c0.22,0,0.4-0.07,0.58-0.23
		c0.15-0.14,0.23-0.33,0.23-0.57c0-0.52-0.29-1.05-0.88-1.59c-0.1-0.1-0.14-0.19-0.14-0.3c0-0.02,0.01-0.07,0.04-0.13
		c0.21-0.34,0.44-0.71,0.7-1.14c0.02-0.03,0.03-0.04,0.03-0.06c0-0.18-0.09-0.28-0.26-0.28h-1.83c-0.28,0-0.43,0.16-0.43,0.47v5.01
		c0,0.18-0.09,0.28-0.25,0.28c-0.17,0-0.26-0.1-0.26-0.28V64.1c0-0.56,0.25-0.85,0.77-0.85h0.68H46.78z"/>
	<path d="M52.59,61.37c0.35,0.32,0.64,0.58,0.87,0.81c0.24,0.27,0.49,0.58,0.75,0.93c0.02,0.08,0.04,0.17,0.04,0.24
		c-0.02,0.17-0.11,0.27-0.26,0.28c-0.11,0-0.2-0.03-0.25-0.13c-0.24-0.33-0.48-0.62-0.7-0.86c-0.22-0.23-0.5-0.5-0.84-0.8
		c-0.09-0.12-0.13-0.24-0.13-0.34c0.03-0.12,0.12-0.21,0.26-0.23C52.43,61.27,52.51,61.31,52.59,61.37z M54.31,64.91
		c-0.02,0.07-0.03,0.15-0.04,0.24c-0.26,1.05-0.52,1.92-0.8,2.63c-0.26,0.65-0.52,1.2-0.78,1.62c-0.08,0.05-0.17,0.08-0.25,0.1
		c-0.15-0.04-0.24-0.13-0.26-0.29c0-0.1,0.02-0.19,0.09-0.28c0.33-0.56,0.61-1.17,0.85-1.83c0.2-0.47,0.43-1.23,0.69-2.29
		c0.03-0.13,0.12-0.22,0.25-0.24C54.2,64.59,54.28,64.7,54.31,64.91z M52.9,58.77c0.35,0.29,0.63,0.53,0.86,0.75
		c0.24,0.24,0.49,0.53,0.75,0.86c0.02,0.07,0.04,0.16,0.04,0.23c-0.02,0.17-0.1,0.27-0.25,0.29c-0.12,0-0.21-0.05-0.26-0.15
		c-0.24-0.29-0.48-0.56-0.7-0.77c-0.22-0.22-0.5-0.46-0.83-0.74c-0.09-0.12-0.13-0.23-0.13-0.33c0.02-0.12,0.11-0.21,0.25-0.24
		C52.73,58.67,52.81,58.7,52.9,58.77z M61.93,59.14c-0.02,0.18-0.11,0.28-0.26,0.29h-2.21v1.51h1.41c0.57,0,0.85,0.31,0.85,0.94
		v6.33c0,0.63-0.28,0.94-0.85,0.94h-5.12c-0.57,0-0.85-0.31-0.85-0.94v-6.33c0-0.63,0.28-0.94,0.85-0.94h1.33v-1.51h-2.09
		c-0.16-0.01-0.25-0.11-0.25-0.29c0-0.17,0.09-0.27,0.25-0.28h6.69C61.82,58.87,61.91,58.97,61.93,59.14z M61.17,66.43V65.1h-1.41
		c-0.55,0-0.82-0.29-0.82-0.9v-2.7h-1.36v0.43c0,0.84-0.09,1.49-0.26,1.96c-0.14,0.42-0.34,0.75-0.6,0.98
		c-0.24,0.24-0.65,0.44-1.22,0.56c-0.02,0-0.04,0-0.04-0.01v1H61.17z M56.37,64.41c0.22-0.17,0.39-0.47,0.51-0.92
		c0.13-0.37,0.2-0.9,0.2-1.55V61.5h-1.2c-0.28,0-0.43,0.17-0.43,0.48v2.87C55.89,64.72,56.19,64.58,56.37,64.41z M61.17,68.12V67
		h-5.72v1.13c0,0.31,0.14,0.47,0.43,0.47h4.85C61.01,68.59,61.17,68.44,61.17,68.12z M58.94,59.43h-1.36v1.51h1.36V59.43z
		 M59.46,64.15c0,0.26,0.11,0.37,0.35,0.37h1.36v-2.54c0-0.31-0.15-0.48-0.44-0.48h-1.28V64.15z"/>
	<path d="M71.83,58.77v0.8h4c0.15,0.03,0.24,0.12,0.26,0.29c-0.02,0.17-0.11,0.27-0.26,0.28h-7.83c-0.32,0-0.47,0.18-0.47,0.52v3.45
		c0,0.85-0.08,1.83-0.22,2.93c-0.14,0.8-0.32,1.5-0.51,2.13c-0.04,0.12-0.14,0.18-0.29,0.19c-0.18-0.02-0.26-0.13-0.26-0.33
		c0.28-1.02,0.48-1.84,0.57-2.47c0.11-0.97,0.16-1.78,0.16-2.46v-3.45c0-0.73,0.33-1.09,0.98-1.09h3.28v-0.8
		c0-0.21,0.1-0.31,0.3-0.33C71.72,58.45,71.82,58.56,71.83,58.77z M71.92,64.87h2.6c0.57,0,0.85,0.31,0.85,0.94v2.51
		c0,0.63-0.28,0.94-0.85,0.94h-5.19c-0.57,0-0.85-0.32-0.85-0.94v-2.51c0-0.63,0.28-0.94,0.85-0.94h2.04v-3.87
		c0-0.18,0.09-0.28,0.26-0.29c0.19,0.01,0.28,0.11,0.29,0.29v1.46h3.67c0.15,0.01,0.24,0.11,0.25,0.28
		c-0.01,0.18-0.1,0.28-0.25,0.28h-3.67V64.87z M74.82,68.17v-2.22c0-0.34-0.16-0.52-0.47-0.52h-4.86c-0.32,0-0.47,0.18-0.47,0.52
		v2.22c0,0.34,0.15,0.52,0.47,0.52h4.86C74.66,68.69,74.82,68.51,74.82,68.17z"/>
	<path d="M28.51,75.76c-0.01,0.1-0.05,0.15-0.13,0.15h-0.59c-0.01,0.03-0.01,0.07-0.01,0.1c-0.08,0.53-0.17,0.96-0.27,1.3
		c-0.01,0.03-0.02,0.05-0.02,0.07c0.02,0,0.04-0.01,0.06-0.01h0.48c0.24,0,0.37,0.13,0.37,0.41v2.78c0,0.26-0.12,0.4-0.37,0.4h-0.48
		c-0.25,0-0.36-0.14-0.36-0.4v-2.38c-0.06,0.13-0.12,0.26-0.18,0.39c-0.05,0.05-0.09,0.08-0.14,0.08c-0.08-0.01-0.13-0.07-0.13-0.16
		c0-0.03,0.01-0.06,0.02-0.1c0.21-0.41,0.37-0.81,0.5-1.2c0.12-0.34,0.2-0.77,0.26-1.28h-0.58c-0.09-0.01-0.14-0.06-0.14-0.15
		c0-0.09,0.05-0.14,0.14-0.15h1.45C28.46,75.62,28.5,75.67,28.51,75.76z M28.1,80.45v-2.57c0-0.14-0.06-0.21-0.18-0.21h-0.3
		c-0.12,0-0.18,0.07-0.18,0.21v2.57c0,0.13,0.06,0.2,0.18,0.2h0.3C28.04,80.65,28.1,80.58,28.1,80.45z M29.4,75.36l-0.01,0.03
		c-0.03,0.16-0.07,0.3-0.1,0.42h1.06c0.06-0.08,0.1-0.14,0.13-0.21c0.05-0.1,0.1-0.21,0.15-0.32c0.02-0.05,0.06-0.07,0.11-0.08
		c0.09,0.01,0.15,0.06,0.16,0.15c0,0.03-0.02,0.07-0.04,0.12c-0.03,0.07-0.06,0.14-0.1,0.21c-0.02,0.04-0.05,0.08-0.07,0.12h1.16
		c0.08,0.01,0.13,0.06,0.14,0.16c-0.01,0.1-0.06,0.15-0.14,0.15h-1.18v0.81h1.07c0.08,0.01,0.13,0.06,0.13,0.16
		c-0.01,0.1-0.05,0.15-0.13,0.15h-1.07v0.78h1.12c0.08,0.01,0.13,0.06,0.13,0.15c-0.01,0.09-0.05,0.14-0.13,0.15h-1.12v0.86h1.3
		c0.12,0,0.18,0.05,0.18,0.15c0,0.1-0.06,0.15-0.18,0.15h-2.54c-0.28,0-0.41-0.15-0.41-0.46v-2.53c-0.02,0.04-0.04,0.08-0.06,0.1
		c-0.11,0.18-0.23,0.34-0.37,0.48c-0.05,0.01-0.09,0.02-0.13,0.02c-0.08-0.01-0.13-0.06-0.14-0.15c0-0.06,0.02-0.11,0.07-0.15
		c0.15-0.16,0.27-0.31,0.35-0.44c0.09-0.16,0.18-0.35,0.26-0.57c0.05-0.14,0.1-0.3,0.13-0.46c0.02-0.08,0.06-0.12,0.13-0.13
		C29.34,75.21,29.39,75.26,29.4,75.36z M29.28,79.87c0,0.01-0.01,0.03-0.01,0.05c-0.05,0.23-0.09,0.41-0.14,0.55
		c-0.05,0.14-0.14,0.32-0.26,0.54c-0.05,0.04-0.1,0.07-0.16,0.08c-0.08-0.01-0.13-0.07-0.13-0.16c0-0.04,0.01-0.08,0.05-0.12
		c0.1-0.16,0.17-0.31,0.23-0.45c0.05-0.13,0.09-0.29,0.13-0.48c0.01-0.09,0.06-0.14,0.14-0.15C29.22,79.73,29.27,79.78,29.28,79.87z
		 M30.38,76.11h-1.07v0.81h1.07V76.11z M30.38,77.22h-1.07v0.78h1.07V77.22z M30.38,78.31h-1.07v0.61c0,0.17,0.07,0.25,0.23,0.25
		h0.84V78.31z M30.06,79.92c0.06,0.31,0.1,0.61,0.11,0.93c-0.01,0.12-0.06,0.18-0.16,0.18c-0.08-0.01-0.13-0.07-0.13-0.18
		c-0.03-0.36-0.06-0.67-0.12-0.91v-0.02c0.01-0.1,0.05-0.15,0.14-0.15C29.99,79.77,30.05,79.83,30.06,79.92z M30.9,79.87
		c0.09,0.23,0.16,0.47,0.2,0.71c0.02,0.14,0.03,0.23,0.03,0.27c-0.01,0.11-0.06,0.17-0.16,0.18c-0.09-0.01-0.13-0.08-0.13-0.18
		c-0.02-0.19-0.05-0.34-0.08-0.46c-0.02-0.11-0.06-0.23-0.11-0.37c-0.01-0.05-0.02-0.08-0.02-0.1c0-0.09,0.05-0.14,0.13-0.15
		C30.82,79.77,30.87,79.81,30.9,79.87z M31.76,79.82c0.14,0.26,0.23,0.52,0.29,0.78c0.03,0.15,0.05,0.25,0.05,0.3
		c-0.01,0.11-0.06,0.17-0.16,0.18c-0.09-0.01-0.13-0.08-0.13-0.18c-0.03-0.22-0.07-0.39-0.12-0.52c-0.04-0.12-0.1-0.26-0.18-0.41
		c-0.02-0.04-0.02-0.08-0.02-0.1c0.01-0.09,0.05-0.14,0.13-0.15C31.69,79.72,31.73,79.76,31.76,79.82z"/>
	<path d="M34.71,76.88c0.18,0.16,0.4,0.41,0.66,0.75c0.06,0.09,0.09,0.16,0.09,0.2c0,0.12-0.06,0.17-0.16,0.17
		c-0.03,0-0.06-0.03-0.1-0.09c-0.26-0.35-0.51-0.63-0.74-0.83c-0.06-0.05-0.09-0.1-0.09-0.15c0-0.12,0.05-0.17,0.16-0.17
		C34.55,76.77,34.61,76.81,34.71,76.88z M35.5,78.74c-0.01,0.04-0.02,0.08-0.03,0.12c-0.14,0.54-0.28,0.98-0.44,1.33
		c-0.14,0.33-0.29,0.6-0.43,0.82c-0.03,0.01-0.07,0.02-0.11,0.02c-0.08-0.02-0.13-0.07-0.14-0.15c0-0.04,0.01-0.08,0.05-0.12
		c0.18-0.28,0.33-0.59,0.47-0.92c0.11-0.24,0.23-0.62,0.38-1.15c0.01-0.06,0.05-0.09,0.11-0.1C35.44,78.59,35.49,78.65,35.5,78.74z
		 M34.9,75.36c0.17,0.16,0.39,0.39,0.65,0.71c0.06,0.09,0.09,0.16,0.09,0.19c0,0.12-0.05,0.18-0.16,0.18c-0.03,0-0.07-0.03-0.1-0.08
		c-0.26-0.34-0.49-0.61-0.72-0.79c-0.06-0.05-0.09-0.11-0.09-0.14c0-0.12,0.05-0.18,0.16-0.18C34.76,75.26,34.82,75.29,34.9,75.36z
		 M39.57,79.42c-0.01,0.1-0.06,0.15-0.14,0.15h-1.64c0.01,0.03,0.02,0.06,0.03,0.08c0.16,0.26,0.38,0.49,0.66,0.68
		c0.26,0.18,0.6,0.33,1.02,0.45c0.06,0.02,0.09,0.08,0.09,0.17c-0.01,0.08-0.06,0.12-0.16,0.13c-0.47-0.14-0.85-0.32-1.13-0.52
		c-0.29-0.19-0.52-0.45-0.71-0.77c-0.21,0.36-0.44,0.63-0.7,0.82c-0.3,0.21-0.72,0.37-1.25,0.48c-0.08-0.01-0.12-0.05-0.13-0.13
		c0-0.1,0.05-0.16,0.13-0.17c0.43-0.07,0.79-0.2,1.08-0.39c0.26-0.18,0.47-0.43,0.63-0.74c0.02-0.03,0.03-0.05,0.05-0.08h-1.54
		c-0.09,0-0.13-0.05-0.13-0.15c0-0.1,0.05-0.15,0.13-0.16h1.59v-0.35c0-0.1,0.05-0.15,0.13-0.15c0.09,0.01,0.15,0.06,0.16,0.15v0.35
		h1.68C39.51,79.27,39.56,79.32,39.57,79.42z M39.34,75.38c-0.01,0.08-0.06,0.11-0.14,0.12c-0.94,0.18-1.99,0.3-3.16,0.35
		c-0.09-0.01-0.15-0.06-0.16-0.15c0.01-0.09,0.05-0.14,0.13-0.16c1.08-0.04,2.14-0.16,3.16-0.35
		C39.27,75.21,39.33,75.27,39.34,75.38z M37.54,76.72c0,0.05-0.02,0.09-0.05,0.12c-0.15,0.23-0.31,0.45-0.49,0.63
		c0.02,0.02,0.05,0.03,0.06,0.04c0.16,0.12,0.33,0.25,0.5,0.39c0,0.01,0.01,0.01,0.01,0.01c0.05-0.06,0.09-0.11,0.13-0.16
		c0.2-0.25,0.38-0.5,0.52-0.76c0.03-0.04,0.07-0.07,0.12-0.08c0.09,0.01,0.15,0.06,0.16,0.16c0,0.03-0.02,0.07-0.05,0.12
		c-0.12,0.2-0.26,0.4-0.44,0.59c-0.17,0.21-0.39,0.43-0.67,0.66c0.62-0.02,1.11-0.09,1.45-0.19c-0.06-0.08-0.12-0.17-0.19-0.26
		c-0.05-0.06-0.07-0.11-0.07-0.15c0.01-0.06,0.06-0.11,0.13-0.13c0.04,0,0.08,0.02,0.12,0.05c0.12,0.16,0.22,0.3,0.3,0.43
		c0.08,0.14,0.17,0.3,0.27,0.48c0.01,0.04,0.02,0.08,0.02,0.12c-0.01,0.08-0.06,0.12-0.14,0.13c-0.05,0-0.09-0.03-0.11-0.08
		c-0.07-0.14-0.13-0.26-0.19-0.36c-0.54,0.19-1.46,0.28-2.76,0.28c-0.14,0-0.2-0.04-0.2-0.15c0-0.1,0.06-0.15,0.18-0.16
		c0.3,0,0.57,0,0.83-0.01c0.15-0.13,0.28-0.25,0.38-0.35c-0.01-0.01-0.02-0.03-0.03-0.04c-0.16-0.14-0.33-0.25-0.48-0.36
		c-0.15-0.09-0.34-0.2-0.57-0.33c-0.05-0.05-0.06-0.1-0.06-0.15c0.01-0.07,0.06-0.11,0.13-0.13c0.04,0,0.08,0.02,0.12,0.05
		c0.1,0.07,0.2,0.12,0.28,0.16l0.01-0.01c0.19-0.19,0.37-0.42,0.52-0.68c0.04-0.03,0.08-0.05,0.14-0.05
		C37.49,76.6,37.53,76.65,37.54,76.72z M36.3,76.09c0.08,0.1,0.15,0.19,0.21,0.27c0.06,0.09,0.12,0.19,0.18,0.31
		c0.01,0.05,0.02,0.09,0.02,0.13c-0.01,0.08-0.06,0.12-0.14,0.12c-0.05,0-0.09-0.02-0.11-0.08c-0.06-0.1-0.11-0.19-0.16-0.27
		c-0.05-0.08-0.11-0.16-0.19-0.26c-0.05-0.05-0.07-0.1-0.07-0.15c0.02-0.06,0.06-0.11,0.14-0.13C36.22,76.04,36.26,76.06,36.3,76.09
		z M37.68,76.01c0.09,0.14,0.2,0.36,0.34,0.69c0.01,0.05,0.02,0.1,0.02,0.12c-0.01,0.08-0.06,0.12-0.16,0.13
		c-0.05,0-0.09-0.03-0.12-0.08c-0.11-0.28-0.22-0.5-0.31-0.65c-0.04-0.05-0.05-0.1-0.05-0.13c0.01-0.09,0.05-0.14,0.13-0.15
		C37.59,75.94,37.64,75.97,37.68,76.01z M39.5,75.79c0,0.01-0.01,0.04-0.01,0.08c-0.16,0.42-0.34,0.76-0.54,1.03
		c-0.04,0.04-0.08,0.05-0.11,0.05c-0.09-0.01-0.13-0.06-0.14-0.15c0-0.02,0.02-0.05,0.05-0.1c0.18-0.27,0.34-0.58,0.48-0.94
		c0.02-0.08,0.08-0.12,0.16-0.12C39.46,75.64,39.49,75.69,39.5,75.79z"/>
	<path d="M44.34,75.59c0.44,0,0.85,0.11,1.22,0.32c0.38,0.21,0.67,0.5,0.9,0.86l-0.12,0.19c-0.2-0.36-0.48-0.64-0.83-0.86
		c-0.36-0.21-0.75-0.32-1.17-0.32c-0.41,0-0.79,0.1-1.15,0.31c-0.35,0.21-0.63,0.48-0.84,0.84c-0.21,0.35-0.31,0.74-0.31,1.15
		c0,0.42,0.1,0.8,0.31,1.15c0.2,0.35,0.48,0.63,0.84,0.83c0.35,0.21,0.74,0.31,1.15,0.31c0.43,0,0.82-0.11,1.18-0.32
		c0.36-0.21,0.64-0.5,0.83-0.86l0.11,0.19c-0.22,0.36-0.52,0.65-0.9,0.86c-0.38,0.21-0.78,0.32-1.22,0.32
		c-0.45,0-0.86-0.11-1.25-0.33c-0.38-0.22-0.69-0.52-0.91-0.9c-0.22-0.38-0.33-0.8-0.33-1.25c0-0.45,0.11-0.87,0.33-1.25
		c0.22-0.38,0.52-0.68,0.91-0.91C43.48,75.7,43.89,75.59,44.34,75.59z"/>
	<path d="M47.31,74.01h0.19v2.59c0.12-0.19,0.26-0.36,0.42-0.5c0.3-0.26,0.64-0.42,1.03-0.49c0.11-0.02,0.22-0.03,0.34-0.03
		c0.19,0,0.38,0.03,0.56,0.09c0.3,0.1,0.55,0.27,0.75,0.51c0.19,0.23,0.32,0.5,0.39,0.81c0.04,0.21,0.06,0.5,0.06,0.88v2.6h-0.19
		v-2.6c0-0.37-0.02-0.65-0.06-0.84c-0.07-0.29-0.18-0.53-0.36-0.73c-0.18-0.21-0.4-0.37-0.66-0.45c-0.26-0.09-0.53-0.11-0.81-0.07
		c-0.35,0.06-0.66,0.21-0.93,0.44c-0.26,0.23-0.44,0.51-0.55,0.83v3.42h-0.19v-3.44c0,0,0-0.01,0-0.01V74.01z"/>
	<path d="M51.86,74.11c0.06-0.06,0.14-0.1,0.23-0.1c0.09,0,0.17,0.03,0.23,0.1c0.06,0.07,0.1,0.14,0.1,0.23
		c0,0.09-0.03,0.17-0.1,0.23c-0.06,0.06-0.14,0.1-0.23,0.1c-0.09,0-0.17-0.03-0.23-0.1c-0.06-0.06-0.1-0.14-0.1-0.23
		C51.77,74.25,51.8,74.17,51.86,74.11z M52,75.71h0.19v4.78H52V75.71z"/>
	<path d="M55.49,75.59c0.37,0,0.71,0.08,1.04,0.24c0.4,0.19,0.73,0.48,0.97,0.87c0.07,0.11,0.14,0.23,0.19,0.36v-1.35h0.19v4.78
		H57.7v-1.56c-0.22,0.55-0.58,1-1.08,1.34h-0.01c-0.44,0.25-0.9,0.36-1.41,0.31c-0.34-0.03-0.67-0.14-0.98-0.32
		c-0.31-0.18-0.56-0.42-0.76-0.7c-0.2-0.28-0.33-0.6-0.4-0.95C53,78.25,53,77.91,53.08,77.57c0.11-0.53,0.36-0.97,0.76-1.34
		c0.4-0.37,0.87-0.58,1.41-0.63C55.32,75.6,55.41,75.59,55.49,75.59z M55.49,75.79c-0.08,0-0.15,0-0.23,0.01
		c-0.5,0.05-0.93,0.25-1.3,0.58c-0.36,0.34-0.6,0.75-0.71,1.24c-0.07,0.31-0.07,0.63-0.01,0.95c0.06,0.32,0.19,0.62,0.37,0.88
		c0.18,0.26,0.41,0.47,0.7,0.64c0.28,0.17,0.58,0.27,0.9,0.3c0.46,0.05,0.89-0.04,1.29-0.28c0.37-0.25,0.66-0.57,0.87-0.96
		c0.21-0.39,0.32-0.79,0.32-1.19c-0.01-0.42-0.12-0.8-0.35-1.15c-0.22-0.35-0.52-0.61-0.9-0.79C56.15,75.86,55.83,75.79,55.49,75.79
		z"/>
	<path d="M60.03,75.93c0.38-0.22,0.8-0.34,1.25-0.34c0.45,0,0.87,0.11,1.25,0.33c0.38,0.22,0.68,0.52,0.91,0.91
		c0.22,0.38,0.33,0.8,0.33,1.25c0,0.45-0.11,0.87-0.33,1.25c-0.22,0.38-0.52,0.68-0.91,0.9c-0.38,0.22-0.8,0.33-1.25,0.33
		c-0.45,0-0.87-0.11-1.25-0.33c-0.38-0.22-0.69-0.52-0.91-0.9c-0.22-0.38-0.33-0.8-0.33-1.25c0-0.45,0.11-0.87,0.33-1.25
		C59.35,76.45,59.65,76.15,60.03,75.93z M62.43,76.1c-0.35-0.21-0.73-0.31-1.15-0.31c-0.42,0-0.8,0.1-1.15,0.31
		c-0.35,0.21-0.63,0.48-0.84,0.84c-0.21,0.35-0.31,0.74-0.31,1.15c0,0.42,0.1,0.8,0.31,1.15c0.2,0.35,0.48,0.63,0.84,0.83
		c0.35,0.21,0.74,0.31,1.15,0.31c0.41,0,0.8-0.1,1.15-0.31c0.35-0.2,0.63-0.48,0.83-0.83c0.21-0.35,0.31-0.73,0.31-1.15
		c0-0.42-0.1-0.8-0.31-1.15C63.06,76.57,62.78,76.3,62.43,76.1z"/>
	<path d="M64.66,74.01h0.19v2.59c0.12-0.19,0.26-0.36,0.42-0.5c0.3-0.26,0.64-0.42,1.03-0.49c0.11-0.02,0.22-0.03,0.34-0.03
		c0.19,0,0.38,0.03,0.56,0.09c0.3,0.1,0.55,0.27,0.75,0.51c0.19,0.23,0.32,0.5,0.39,0.81c0.04,0.21,0.06,0.5,0.06,0.88v2.6h-0.19
		v-2.6c0-0.37-0.02-0.65-0.06-0.84c-0.06-0.29-0.18-0.53-0.36-0.73c-0.18-0.21-0.4-0.37-0.66-0.45c-0.26-0.09-0.53-0.11-0.81-0.07
		c-0.35,0.06-0.66,0.21-0.93,0.44c-0.26,0.23-0.44,0.51-0.55,0.83v3.42h-0.19v-3.44c0,0,0-0.01,0-0.01V74.01z"/>
	<path d="M70.5,75.59c0.07,0,0.14,0.01,0.21,0.01c0.28,0.04,0.52,0.17,0.71,0.39c0.19,0.21,0.29,0.46,0.3,0.74l-0.19,0.01
		c-0.01-0.24-0.09-0.44-0.25-0.62c-0.16-0.18-0.36-0.28-0.59-0.32c-0.17-0.02-0.32-0.01-0.48,0.05c-0.16,0.05-0.29,0.14-0.4,0.26
		c-0.11,0.12-0.18,0.27-0.21,0.42c-0.03,0.16-0.02,0.32,0.04,0.47c0.07,0.18,0.19,0.34,0.37,0.49c0.12,0.1,0.31,0.21,0.55,0.33h0.01
		c0.31,0.15,0.51,0.26,0.6,0.32c0.23,0.14,0.4,0.3,0.52,0.48c0.13,0.19,0.2,0.4,0.21,0.63c0.01,0.23-0.04,0.44-0.14,0.65
		c-0.11,0.2-0.26,0.36-0.45,0.49c-0.19,0.12-0.4,0.19-0.63,0.2c-0.36,0.01-0.67-0.1-0.94-0.34c-0.26-0.24-0.41-0.53-0.46-0.89
		c-0.01-0.09-0.02-0.17-0.01-0.26l0.19,0.01c-0.01,0.08,0,0.15,0.01,0.23c0.04,0.31,0.17,0.57,0.39,0.77
		c0.23,0.21,0.5,0.31,0.81,0.3c0.19,0,0.37-0.06,0.54-0.17c0.17-0.1,0.29-0.24,0.38-0.41c0.09-0.17,0.13-0.36,0.12-0.55
		c-0.01-0.19-0.07-0.37-0.18-0.53c-0.1-0.16-0.26-0.3-0.46-0.42c-0.09-0.06-0.29-0.16-0.59-0.31c-0.26-0.12-0.45-0.24-0.59-0.35
		c-0.21-0.17-0.35-0.36-0.43-0.57c-0.07-0.19-0.09-0.38-0.05-0.58c0.04-0.2,0.12-0.37,0.26-0.52c0.13-0.15,0.29-0.25,0.48-0.32
		C70.25,75.62,70.37,75.6,70.5,75.59z"/>
	<path d="M72.56,74.11c0.06-0.06,0.14-0.1,0.23-0.1c0.09,0,0.17,0.03,0.23,0.1c0.06,0.07,0.1,0.14,0.1,0.23
		c0,0.09-0.03,0.17-0.1,0.23c-0.06,0.06-0.14,0.1-0.23,0.1c-0.09,0-0.17-0.03-0.23-0.1c-0.07-0.06-0.1-0.14-0.1-0.23
		C72.46,74.25,72.49,74.17,72.56,74.11z M72.69,75.71h0.19v4.78h-0.19V75.71z"/>
	<g>
		<path d="M49.88,1.43c0,0,0.01,0,0.02,0l0.02,0H49.88z"/>
		<path d="M50.95,13.39c0.13-0.23,0.26-0.45,0.38-0.67c1.1-2,2.51-3.95,4.14-4.89c1.04-0.6,2.3-0.93,2.82-1.55
			c0.29-0.46,0.37-1.14,0.11-1.56c-0.13-0.17-0.41-0.35-0.59-0.46c-0.38-0.25-1.28-0.05-1.78,0.26c-1.93,1.28-3.79,4.4-4.71,7.38
			C51.18,12.42,51.06,12.91,50.95,13.39z"/>
		<path d="M49.92,14.15"/>
		<path d="M53.35,27.39h0.22c-0.04-2.04,0.77-3.06,2.32-4.06c1.56-1,4.23-0.6,6.1,1.02c0.32,0.2,0.94,0.31,1.28,0.17
			c0.31-0.15,0.61-0.33,0.71-0.76c0.05-0.13,0.06-0.26,0.06-0.39v-0.06c0-0.31-0.12-0.56-0.36-0.83c-1.44-1.46-3.46-2-5.52-1.63
			c-2.07,0.4-5.03,2.48-4.83,6.5 M46.25,27.39h0.22c0.33-8.58,6.32-14.4,13.13-14.95c1.1-0.09,2.38,0.19,3.01-0.71
			c0.34-0.44,0.36-1,0.05-1.46c-0.38-0.55-1.1-0.84-1.84-0.74c-8.78,1.74-14.72,9.67-14.58,17.78L46.25,27.39z M49.79,27.39h0.11
			h0.04h0.16c-0.26-5.78,4.98-9.77,9.36-9.53c1.71,0.1,2.79,0.88,3.74,0.26c0.6-0.34,0.79-0.94,0.6-1.5
			c-0.17-0.5-0.81-0.98-1.48-1.05c-8.36-0.82-12.82,6.84-12.49,11.79"/>
		<path d="M49.92,12.71c0.06-0.43,1.21-9.65,1.27-10.21c0.02-0.54,0.12-0.96-0.05-1.53c-0.04-0.12-0.11-0.25-0.18-0.38
			c-0.08-0.13-0.17-0.26-0.28-0.34C50.45,0.09,50.18-0.01,49.9,0c-0.26-0.01-0.54,0.08-0.75,0.26c-0.11,0.08-0.2,0.21-0.29,0.36
			c-0.07,0.13-0.13,0.24-0.17,0.36c-0.2,0.72-0.07,0.99-0.05,1.53C48.69,3.04,49.86,12.28,49.92,12.71z"/>
	</g>
	<g>
		<polygon points="49.96,1.43 49.94,1.43 49.92,1.43 		"/>
		<path d="M48.89,13.39c-0.13-0.23-0.26-0.45-0.38-0.67c-1.1-2-2.51-3.95-4.14-4.89c-1.04-0.6-2.3-0.93-2.83-1.55
			c-0.29-0.46-0.37-1.14-0.11-1.56c0.13-0.17,0.41-0.35,0.59-0.46c0.38-0.25,1.28-0.05,1.79,0.26c1.93,1.28,3.79,4.4,4.71,7.38
			C48.66,12.42,48.79,12.91,48.89,13.39z"/>
		<path d="M46.5,27.36c0.2-4.02-2.75-6.1-4.83-6.5c-2.05-0.38-4.08,0.16-5.52,1.63c-0.23,0.27-0.36,0.52-0.36,0.83v0.06
			c0,0.13,0.02,0.26,0.06,0.39c0.1,0.43,0.4,0.61,0.71,0.76c0.35,0.14,0.96,0.03,1.28-0.17c1.87-1.63,4.54-2.02,6.11-1.02
			c1.55,1,2.36,2.02,2.32,4.06h0.22 M53.58,27.32c0.14-8.11-5.8-16.05-14.58-17.78c-0.74-0.09-1.46,0.2-1.84,0.74
			c-0.3,0.45-0.29,1.01,0.06,1.46c0.63,0.9,1.91,0.61,3.01,0.71c6.82,0.55,12.81,6.37,13.14,14.95h0.22L53.58,27.32z M50.02,27.36
			c0.33-4.94-4.12-12.61-12.49-11.79c-0.67,0.06-1.32,0.55-1.48,1.05c-0.2,0.56,0,1.16,0.6,1.5c0.95,0.62,2.02-0.16,3.73-0.26
			c4.38-0.25,9.62,3.75,9.36,9.53h0.16h0.03h0.1"/>
	</g>
	<path d="M46.65,42.11c-0.53-1.27-1.38-2.31-2.54-3.11c-1.16-0.8-2.47-1.2-3.9-1.2c-1.24,0-2.42,0.31-3.48,0.93
		c-1.07,0.62-1.92,1.47-2.53,2.53c-0.62,1.07-0.93,2.24-0.93,3.48c0,0.57,0.07,1.12,0.22,1.71c0.38,1.51,1.21,2.77,2.45,3.75
		c1.24,0.98,2.68,1.48,4.28,1.48c1.21,0,2.34-0.29,3.38-0.87c1.03-0.58,1.87-1.37,2.49-2.36c0.03-0.04,0.03-0.1,0-0.14l-0.3-0.51
		c-0.03-0.04-0.07-0.07-0.12-0.07h0c-0.05,0-0.09,0.03-0.12,0.07c-0.53,0.93-1.27,1.68-2.21,2.24c-0.94,0.56-1.99,0.84-3.11,0.84
		c-1.4,0-2.67-0.43-3.76-1.29c-1.1-0.85-1.83-1.96-2.19-3.35c-0.13-0.49-0.19-1-0.19-1.5c0-0.08,0-0.17,0.01-0.25h12.53
		c0.27,0,0.37-0.03,0.42-0.07c0.12-0.08,0.11-0.25,0.09-0.4C47.06,43.37,46.9,42.72,46.65,42.11z M34.16,43.69
		c0.24-1.41,0.92-2.61,2.02-3.57c1.14-1,2.49-1.5,4.02-1.5c1.23,0,2.36,0.33,3.36,0.99c1,0.66,1.76,1.54,2.24,2.62
		c0.21,0.47,0.36,0.96,0.46,1.47H34.16z M9.25,39.48c-0.56-0.67-1.27-1.15-2.11-1.44c-0.51-0.17-1.04-0.25-1.58-0.25
		c-0.31,0-0.63,0.02-0.94,0.07c-1.08,0.18-2.05,0.64-2.88,1.36c-0.34,0.31-0.65,0.65-0.92,1.02v-6.63c0-0.08-0.06-0.14-0.14-0.14
		H0.14C0.06,33.47,0,33.53,0,33.61v17.73c0,0.08,0.06,0.14,0.14,0.14h0.53c0.08,0,0.14-0.06,0.14-0.14L0.8,42.03
		c0.29-0.87,0.78-1.62,1.46-2.22c0.71-0.61,1.54-1.01,2.48-1.17c0.25-0.04,0.49-0.06,0.73-0.06c0.48,0,0.96,0.08,1.41,0.23
		c0.69,0.23,1.28,0.63,1.74,1.2c0.45,0.52,0.77,1.17,0.94,1.93c0.11,0.52,0.16,1.28,0.16,2.27v7.13c0,0.08,0.06,0.14,0.14,0.14h0.53
		c0.08,0,0.14-0.06,0.14-0.14v-7.13c0-1.05-0.06-1.88-0.18-2.45C10.16,40.88,9.79,40.12,9.25,39.48z M23.17,38.73
		c-1.06-0.62-2.23-0.93-3.48-0.93c-1.25,0-2.42,0.32-3.49,0.94c-1.06,0.61-1.92,1.46-2.53,2.53c-0.62,1.07-0.93,2.24-0.93,3.49
		c0,1.25,0.31,2.42,0.93,3.48c0.62,1.06,1.47,1.91,2.53,2.53c1.07,0.62,2.24,0.93,3.49,0.93c1.25,0,2.42-0.31,3.48-0.93
		c1.06-0.62,1.91-1.47,2.53-2.53c0.62-1.06,0.93-2.23,0.93-3.48c0-1.25-0.31-2.43-0.93-3.49C25.08,40.2,24.23,39.35,23.17,38.73z
		 M24.99,47.83c-0.55,0.94-1.3,1.68-2.23,2.23c-0.93,0.54-1.97,0.82-3.08,0.82c-1.11,0-2.15-0.28-3.09-0.82
		c-0.94-0.54-1.7-1.29-2.24-2.23c-0.54-0.93-0.82-1.97-0.82-3.08c0-1.11,0.27-2.15,0.82-3.09c0.55-0.94,1.3-1.69,2.24-2.24
		c0.94-0.54,1.98-0.82,3.09-0.82c1.11,0,2.14,0.28,3.07,0.83c0.94,0.54,1.69,1.29,2.24,2.23c0.54,0.94,0.82,1.98,0.82,3.09
		C25.81,45.86,25.54,46.9,24.99,47.83z M32.73,38.1h-2.55v-4.47c0-0.08-0.06-0.14-0.14-0.14h-0.53c-0.08,0-0.14,0.06-0.14,0.14v4.47
		h-2.55c-0.08,0-0.14,0.06-0.14,0.14v0.53c0,0.08,0.06,0.14,0.14,0.14h2.55v12.43c0,0.08,0.06,0.14,0.14,0.14h0.53
		c0.08,0,0.14-0.06,0.14-0.14V38.91h2.55c0.08,0,0.14-0.06,0.14-0.14v-0.53C32.87,38.16,32.8,38.1,32.73,38.1z M99.53,38.12H99
		c-0.08,0-0.14,0.06-0.14,0.14v3.08c-0.09-0.16-0.18-0.31-0.27-0.45c-0.68-1.07-1.6-1.88-2.73-2.42c-0.91-0.44-1.89-0.67-2.91-0.67
		c-0.24,0-0.47,0.01-0.69,0.04c-1.5,0.16-2.82,0.75-3.93,1.77c-1.1,1.01-1.82,2.26-2.13,3.73c-0.2,0.94-0.21,1.91-0.03,2.88
		c0.19,0.98,0.56,1.87,1.11,2.66c0.55,0.79,1.26,1.45,2.12,1.96c0.86,0.51,1.78,0.81,2.74,0.89c0.22,0.02,0.44,0.03,0.65,0.03
		c1.16,0,2.26-0.3,3.31-0.9c1.2-0.82,2.13-1.87,2.75-3.13v3.61c0,0.08,0.06,0.14,0.14,0.14h0.53c0.08,0,0.14-0.06,0.14-0.14V38.26
		C99.67,38.18,99.61,38.12,99.53,38.12z M97.99,47.6c-0.58,1.05-1.36,1.92-2.34,2.58c-0.88,0.51-1.83,0.77-2.82,0.77
		c-0.2,0-0.41-0.01-0.62-0.03c-0.84-0.08-1.64-0.35-2.4-0.8c-0.76-0.45-1.39-1.02-1.87-1.71c-0.48-0.7-0.81-1.5-0.99-2.35
		c-0.17-0.86-0.17-1.72,0.02-2.54c0.29-1.31,0.92-2.43,1.88-3.32c0.99-0.9,2.16-1.42,3.48-1.56c0.2-0.02,0.4-0.03,0.6-0.03
		c0.89,0,1.75,0.2,2.56,0.59c1,0.48,1.81,1.2,2.4,2.13c0.6,0.93,0.91,1.96,0.93,3.07C98.85,45.47,98.57,46.55,97.99,47.6z
		 M86.64,38.13l-0.48-0.23c-0.02-0.01-0.04-0.01-0.06-0.01c-0.02,0-0.03,0-0.05,0.01c-0.04,0.01-0.07,0.04-0.08,0.07l-5.47,12.24
		L75.4,37.94c-0.02-0.05-0.07-0.08-0.13-0.08c-0.02,0-0.03,0-0.05,0.01l-0.5,0.2c-0.04,0.01-0.06,0.04-0.08,0.07
		c-0.01,0.04-0.01,0.07,0,0.11l5.41,12.94l-2.02,4.58c-0.02,0.04-0.01,0.09,0.01,0.13c0.03,0.04,0.07,0.06,0.12,0.06h0.58
		c0.06,0,0.11-0.03,0.13-0.08l1.98-4.47l5.85-13.09C86.74,38.25,86.71,38.17,86.64,38.13z M50.18,33.52h-0.53
		c-0.08,0-0.14,0.06-0.14,0.14v17.68c0,0.08,0.06,0.14,0.14,0.14h0.53c0.08,0,0.14-0.06,0.14-0.14V33.66
		C50.32,33.58,50.26,33.52,50.18,33.52z M103.42,33.52h-0.53c-0.08,0-0.14,0.06-0.14,0.14v17.68c0,0.08,0.06,0.14,0.14,0.14h0.53
		c0.08,0,0.14-0.06,0.14-0.14V33.66C103.56,33.58,103.5,33.52,103.42,33.52z M71.72,38.73c-1.06-0.62-2.23-0.93-3.48-0.93
		c-1.25,0-2.42,0.32-3.49,0.94c-1.06,0.61-1.92,1.46-2.53,2.53c-0.62,1.07-0.93,2.24-0.93,3.49c0,1.25,0.31,2.42,0.93,3.48
		c0.62,1.06,1.47,1.91,2.53,2.53c1.07,0.62,2.24,0.93,3.49,0.93c1.25,0,2.42-0.31,3.48-0.93c1.06-0.62,1.91-1.47,2.53-2.53
		c0.62-1.06,0.93-2.23,0.93-3.48c0-1.25-0.31-2.43-0.93-3.49C73.63,40.2,72.78,39.35,71.72,38.73z M73.55,47.83
		c-0.55,0.94-1.3,1.68-2.23,2.23c-0.93,0.54-1.97,0.82-3.08,0.82c-1.11,0-2.15-0.28-3.09-0.82c-0.94-0.54-1.7-1.29-2.24-2.23
		c-0.54-0.93-0.82-1.97-0.82-3.08c0-1.11,0.27-2.15,0.82-3.09c0.55-0.94,1.3-1.69,2.24-2.24c0.94-0.54,1.98-0.82,3.09-0.82
		c1.11,0,2.14,0.28,3.07,0.83c0.94,0.54,1.69,1.29,2.24,2.23c0.54,0.94,0.82,1.98,0.82,3.09C74.37,45.86,74.09,46.9,73.55,47.83z
		 M61.17,37.91c-0.13-0.03-0.26-0.04-0.47-0.04c-0.89,0-1.69,0.27-2.4,0.79c-0.31,0.23-0.59,0.5-0.82,0.8v-1.17
		c0-0.08-0.06-0.14-0.14-0.14h-0.53c-0.08,0-0.14,0.06-0.14,0.14v13.05c0,0.08,0.06,0.14,0.14,0.14h0.53c0.08,0,0.14-0.06,0.14-0.14
		l0-9.62c0.01-0.14,0.03-0.28,0.05-0.41c0.16-0.83,0.58-1.51,1.25-2c0.57-0.42,1.21-0.63,1.89-0.63c0.13,0,0.25,0.01,0.38,0.02
		c0.01,0,0.01,0,0.01,0c0.07,0,0.13-0.05,0.14-0.12l0.07-0.51C61.29,37.99,61.24,37.92,61.17,37.91z"/>
</g>
</svg>
