<!-- Generator: Adobe Illustrator 25.0.0, SVG Export Plug-In  -->
<svg version="1.1" xmlns="http://www.w3.org/2000/svg" xmlns:xlink="http://www.w3.org/1999/xlink" x="0px" y="0px" width="54.91px"
	 height="52.32px" viewBox="0 0 54.91 52.32" style="overflow:visible;enable-background:new 0 0 54.91 52.32;"
	 xml:space="preserve">
<style type="text/css">
	.st0{fill:#FFFFFF;}
</style>
<defs>
</defs>
<path class="st0" d="M54.91,22.28C54.91,10,42.6,0,27.46,0C12.32,0,0,10,0,22.28C0,33.3,9.77,42.52,22.96,44.26
	c0.89,0.19,2.11,0.59,2.42,1.35c0.28,0.69,0.18,1.78,0.09,2.48c0,0-0.32,1.94-0.39,2.35c-0.12,0.69-0.55,2.71,2.38,1.48
	c2.93-1.23,15.81-9.31,21.57-15.94h0C53.01,31.63,54.91,27.2,54.91,22.28z M17.77,28.84c0,0.3-0.24,0.54-0.53,0.54H9.54h0
	c-0.14,0-0.27-0.06-0.37-0.15c0,0-0.01,0-0.01-0.01c0,0-0.01-0.01-0.01-0.01c-0.09-0.1-0.15-0.23-0.15-0.37v0V16.88
	c0-0.3,0.24-0.53,0.53-0.53h1.93c0.29,0,0.53,0.24,0.53,0.53v9.5h5.23c0.3,0,0.53,0.24,0.53,0.53V28.84z M22.41,28.84
	c0,0.29-0.24,0.53-0.53,0.53h-1.93c-0.3,0-0.54-0.24-0.54-0.53V16.88c0-0.29,0.24-0.53,0.54-0.53h1.93c0.3,0,0.53,0.24,0.53,0.53
	V28.84z M35.67,28.84c0,0.29-0.24,0.53-0.53,0.53h-1.93c-0.05,0-0.09-0.01-0.14-0.02c0,0-0.01,0-0.01,0c-0.01,0-0.02-0.01-0.04-0.01
	c-0.01,0-0.01,0-0.02-0.01c-0.01,0-0.02-0.01-0.03-0.01c-0.01,0-0.02-0.01-0.03-0.01c-0.01,0-0.01,0-0.02-0.01
	c-0.01-0.01-0.02-0.01-0.03-0.02c0,0,0,0-0.01,0c-0.05-0.03-0.1-0.08-0.14-0.13l-5.49-7.41v7.11c0,0.29-0.24,0.53-0.54,0.53h-1.93
	c-0.3,0-0.54-0.24-0.54-0.53V16.88c0-0.29,0.24-0.53,0.54-0.53h1.93c0.01,0,0.01,0,0.02,0c0.01,0,0.02,0,0.03,0
	c0.01,0,0.02,0,0.03,0c0.01,0,0.02,0,0.02,0c0.01,0,0.02,0,0.03,0.01c0.01,0,0.01,0,0.02,0.01c0.01,0,0.02,0.01,0.03,0.01
	c0.01,0,0.01,0,0.02,0.01c0.01,0,0.02,0.01,0.03,0.01c0.01,0,0.01,0.01,0.02,0.01c0.01,0,0.02,0.01,0.03,0.02
	c0.01,0,0.01,0.01,0.02,0.01c0.01,0.01,0.02,0.01,0.03,0.02c0,0,0.01,0.01,0.01,0.01c0.01,0.01,0.02,0.02,0.03,0.02
	c0,0,0.01,0.01,0.01,0.01c0.01,0.01,0.02,0.02,0.03,0.03l0,0c0.01,0.02,0.03,0.04,0.04,0.05l5.48,7.4v-7.11
	c0-0.29,0.24-0.53,0.53-0.53h1.93c0.3,0,0.53,0.24,0.53,0.53V28.84z M46.3,18.81c0,0.3-0.24,0.53-0.53,0.53h-5.23v2.02h5.23
	c0.3,0,0.53,0.24,0.53,0.54v1.93c0,0.3-0.24,0.53-0.53,0.53h-5.23v2.02h5.23c0.3,0,0.53,0.24,0.53,0.53v1.93
	c0,0.29-0.24,0.53-0.53,0.53h-7.69h0c-0.14,0-0.27-0.06-0.37-0.15c0,0-0.01,0-0.01-0.01c0,0-0.01-0.01-0.01-0.01
	c-0.09-0.1-0.15-0.23-0.15-0.37v0V16.88v0c0-0.14,0.06-0.27,0.15-0.37c0,0,0.01-0.01,0.01-0.01c0,0,0,0,0.01-0.01
	c0.1-0.09,0.23-0.15,0.37-0.15h0h7.69c0.3,0,0.53,0.24,0.53,0.54V18.81z"/>
</svg>
