<!-- Generator: Adobe Illustrator 25.0.0, SVG Export Plug-In  -->
<svg version="1.1" xmlns="http://www.w3.org/2000/svg" xmlns:xlink="http://www.w3.org/1999/xlink" x="0px" y="0px" width="53.81px"
	 height="43.79px" viewBox="0 0 53.81 43.79" style="overflow:visible;enable-background:new 0 0 53.81 43.79;"
	 xml:space="preserve">
<style type="text/css">
	.st0{fill:#FFFFFF;}
</style>
<defs>
</defs>
<g>
	<path class="st0" d="M10.54,39.76h28.02c6.2,0,11.22-5.02,11.22-11.22V8.39c2.23,0,4.03,1.81,4.03,4.03v16.11
		c0,8.42-6.83,15.25-15.25,15.25H14.57C12.35,43.79,10.54,41.98,10.54,39.76z"/>
	<path class="st0" d="M45.57,10.08C45.57,4.52,41.04,0,35.48,0l-25.4,0C4.52,0,0,4.52,0,10.08L0,25.8c0,5.56,4.52,10.08,10.08,10.08
		h25.4c5.56,0,10.08-4.52,10.08-10.08V10.08z"/>
</g>
</svg>
