<!-- Generator: Adobe Illustrator 25.0.0, SVG Export Plug-In  -->
<svg version="1.1" xmlns="http://www.w3.org/2000/svg" xmlns:xlink="http://www.w3.org/1999/xlink" x="0px" y="0px"
	 width="294.14px" height="52.73px" viewBox="0 0 294.14 52.73" style="overflow:visible;enable-background:new 0 0 294.14 52.73;"
	 xml:space="preserve">
<style type="text/css">
	.st0{fill:#FFFFFF;}
</style>
<defs>
</defs>
<g>
	<path class="st0" d="M19.48,5.57c0-2.77-1.88-4.42-6.21-4.42c-1.95,0-9.01,0.07-10.79,0.07v1.86c0.8,0,1.12-0.02,1.63-0.02V14.6
		c-0.41,0.02-0.82,0.02-1.63,0.02v1.83h5.57V14.6H5.99v-4.31l8.13-0.05C17.54,10.22,19.48,7.74,19.48,5.57z M13.27,8.57H5.99V3.03
		c1.44,0,5.75-0.05,7.38-0.05c2.7,0,3.94,0.99,3.94,2.68C17.31,7.24,15.84,8.57,13.27,8.57z"/>
	<path class="st0" d="M33.79,10.72c0-3.64-2.48-6.07-6.16-6.07c-3.64,0-6.05,2.41-6.05,6.19c0,3.67,2.45,6.07,6.12,6.07
		C31.36,16.91,33.79,14.53,33.79,10.72z M27.69,15.1c-2.54,0-4.22-1.74-4.22-4.38c0-2.61,1.65-4.24,4.15-4.24
		c2.57,0,4.24,1.74,4.24,4.35C31.86,13.47,30.19,15.1,27.69,15.1z"/>
	<path class="st0" d="M42.47,16.91c2.34,0,4.58-0.99,5.5-3.19l-1.44-0.69c-0.78,1.6-2.54,2.18-4.08,2.18
		c-2.34,0-3.99-1.54-4.24-3.83c1.81,0,8.64,0.05,10.01,0.05l0.23-1.26c-0.11-3.3-2.63-5.52-6.05-5.52c-3.67,0-6.07,2.41-6.07,6.19
		C36.32,14.51,38.78,16.91,42.47,16.91z M42.4,6.37c2.43,0,4.26,1.33,4.26,3.6h-8.41C38.52,7.77,40.13,6.37,42.4,6.37z"/>
	<path class="st0" d="M55.79,16.57c0.3,0,0.71-0.02,0.96-0.05v-1.83h-0.37c-2.04,0-2.66-0.8-2.66-3.07V6.85h2.34V5h-2.34V1.21h-1.88
		V5h-1.6v1.86h1.6v4.84C51.85,14.76,52.9,16.57,55.79,16.57z"/>
	<path class="st0" d="M64.13,14.62h-1.6v-4.03c0-2.77,3.8-3.94,5.68-3.94V4.72c-1.83,0-4.38,0.99-5.8,3.02
		C62.39,6.83,62.35,5.91,62.3,5h-3.25v1.86h1.6v7.77h-1.6v1.83h5.09V14.62z"/>
	<path class="st0" d="M73.1,19.43v1.86h5.45v-1.86h-1.9l6.51-12.58h1.79V5H78.9v1.74c0.78,0.02,1.56,0.07,2.34,0.11l-3.92,7.72
		h-0.02l-3.96-7.72c0.78-0.05,1.58-0.09,2.36-0.11V5h-6.05v1.86h1.74l4.95,9.44l-1.65,3.14H73.1z"/>
	<polygon class="st0" points="97.36,9.51 105.66,9.51 105.66,7.61 97.36,7.61 97.36,3.07 108.34,3.07 108.34,6.07 110.22,6.07 
		110.22,1.21 93.86,1.21 93.86,3.07 95.49,3.07 95.49,14.62 93.86,14.62 93.86,16.45 99.4,16.45 99.4,14.62 97.36,14.62 	"/>
	<path class="st0" d="M122.17,13.04c-0.78,1.6-2.54,2.18-4.08,2.18c-2.34,0-3.99-1.54-4.24-3.83c1.81,0,8.64,0.05,10.01,0.05
		l0.23-1.26c-0.11-3.3-2.63-5.52-6.05-5.52c-3.67,0-6.07,2.41-6.07,6.19c0,3.67,2.45,6.07,6.14,6.07c2.34,0,4.58-0.99,5.5-3.19
		L122.17,13.04z M118.04,6.37c2.43,0,4.26,1.33,4.26,3.6h-8.41C114.17,7.77,115.77,6.37,118.04,6.37z"/>
	<path class="st0" d="M128.33,15.38c1.12,0.99,2.82,1.51,4.47,1.51c2.89,0,5.52-1.35,5.52-3.87c0-4.9-9.56-2.11-9.56-4.97
		c0-1.12,1.76-1.81,3.16-1.81c2.11,0,3.71,0.85,4.17,1.47l0.07,1.01h1.44V4.84h-1.4l-0.09,1.05c-0.76-0.66-2.11-1.24-4.03-1.24
		c-2.31,0-5.18,0.87-5.18,3.48c0,4.74,9.53,1.83,9.53,4.97c0,1.42-1.54,2.18-3.64,2.18c-1.79,0-3.83-0.71-4.47-1.72l-0.14-1.22
		h-1.42v4.1h1.56V15.38z"/>
	<path class="st0" d="M141.97,11.69c0,3.07,1.05,4.88,3.94,4.88c0.3,0,0.71-0.02,0.96-0.05v-1.83h-0.37c-2.04,0-2.66-0.8-2.66-3.07
		V6.85h2.34V5h-2.34V1.21h-1.88V5h-1.6v1.86h1.6V11.69z"/>
	<path class="st0" d="M151.69,2.82c0.8,0,1.4-0.53,1.4-1.42c0-0.8-0.6-1.4-1.42-1.4c-0.82,0-1.4,0.55-1.4,1.44
		C150.27,2.25,150.84,2.82,151.69,2.82z"/>
	<polygon class="st0" points="154.25,14.62 152.65,14.62 152.65,5 149.17,5 149.17,6.85 150.77,6.85 150.77,14.62 149.17,14.62 
		149.17,16.45 154.25,16.45 	"/>
	<path class="st0" d="M170.64,5h-6.05v1.74c0.8,0.02,1.63,0.07,2.45,0.11l-3.99,7.77h-0.16l-3.99-7.77
		c0.82-0.05,1.65-0.09,2.47-0.11V5h-6.05v1.86h1.63l5.04,9.6h1.95l5.02-9.6h1.67V5z"/>
	<path class="st0" d="M185.78,14.62h-1.6V6.85h1.6V5h-3.39c-0.02,0.62-0.07,1.24-0.11,1.86c-0.96-1.38-2.57-2.15-4.49-2.15
		c-3.12,0-5.59,2.13-5.59,6.09c0,3.76,2.61,6.05,5.8,6.05c1.81,0,3.37-0.73,4.31-2.13l0.09,1.74h3.39V14.62z M182.25,12.21
		c-0.48,1.74-1.9,2.89-3.94,2.89c-2.52,0-4.19-1.65-4.19-4.19c0-2.7,1.65-4.42,4.19-4.42c2.04,0,3.48,1.12,3.94,2.8
		C182.35,10.31,182.35,11.27,182.25,12.21z"/>
	<polygon class="st0" points="193.37,14.62 191.77,14.62 191.77,1.21 188.28,1.21 188.28,3.07 189.89,3.07 189.89,14.62 
		188.28,14.62 188.28,16.45 193.37,16.45 	"/>
	<path class="st0" d="M10.08,38.29c-0.96-1.38-2.57-2.15-4.49-2.15C2.47,36.14,0,38.27,0,42.23c0,3.76,2.61,6.05,5.8,6.05
		c1.81,0,3.37-0.73,4.31-2.13l0.09,1.74h3.39v-1.83h-1.6v-7.77h1.6v-1.86H10.2C10.17,37.05,10.13,37.67,10.08,38.29z M10.06,43.65
		c-0.48,1.74-1.9,2.89-3.94,2.89c-2.52,0-4.19-1.65-4.19-4.19c0-2.7,1.65-4.42,4.19-4.42c2.04,0,3.48,1.12,3.94,2.8
		C10.15,41.75,10.15,42.71,10.06,43.65z"/>
	<path class="st0" d="M19.47,43.06v-4.77h2.34v-1.86h-2.34v-3.78h-1.88v3.78h-1.6v1.86h1.6v4.84c0,3.07,1.05,4.88,3.94,4.88
		c0.3,0,0.71-0.02,0.96-0.05v-1.83h-0.37C20.08,46.13,19.47,45.33,19.47,43.06z"/>
	<polygon class="st0" points="43.94,34.35 46.12,34.47 46.12,39.09 35.37,39.09 35.37,34.47 37.52,34.35 37.52,32.66 31.86,32.66 
		31.86,34.47 33.49,34.47 33.49,46.13 31.86,46.13 31.86,47.89 37.52,47.89 37.52,46.24 35.37,46.13 35.37,41 46.12,41 46.12,46.13 
		43.94,46.24 43.94,47.89 49.62,47.89 49.62,46.13 48,46.13 48,34.47 49.62,34.47 49.62,32.66 43.94,32.66 	"/>
	<path class="st0" d="M58.26,36.09c-3.64,0-6.05,2.41-6.05,6.19c0,3.67,2.45,6.07,6.12,6.07c3.67,0,6.1-2.38,6.1-6.19
		C64.42,38.52,61.94,36.09,58.26,36.09z M58.32,46.54c-2.54,0-4.22-1.74-4.22-4.38c0-2.61,1.65-4.24,4.15-4.24
		c2.57,0,4.24,1.74,4.24,4.35C62.5,44.91,60.82,46.54,58.32,46.54z"/>
	<path class="st0" d="M69.72,43.06v-4.77h2.34v-1.86h-2.34v-3.78h-1.88v3.78h-1.6v1.86h1.6v4.84c0,3.07,1.05,4.88,3.94,4.88
		c0.3,0,0.71-0.02,0.96-0.05v-1.83h-0.37C70.34,46.13,69.72,45.33,69.72,43.06z"/>
	<path class="st0" d="M80.5,36.09c-3.67,0-6.07,2.41-6.07,6.19c0,3.67,2.45,6.07,6.14,6.07c2.34,0,4.58-0.99,5.5-3.19l-1.44-0.69
		c-0.78,1.6-2.54,2.18-4.08,2.18c-2.34,0-3.99-1.54-4.24-3.83c1.81,0,8.64,0.05,10.01,0.05l0.23-1.26
		C86.43,38.32,83.91,36.09,80.5,36.09z M76.35,41.41c0.27-2.2,1.88-3.6,4.15-3.6c2.43,0,4.26,1.33,4.26,3.6H76.35z"/>
	<polygon class="st0" points="92.04,32.66 88.55,32.66 88.55,34.51 90.16,34.51 90.16,46.06 88.55,46.06 88.55,47.89 93.64,47.89 
		93.64,46.06 92.04,46.06 	"/>
	<path class="st0" d="M116.85,44.41L116,41.45c2.43-0.27,4.56-1.95,4.56-4.44c0-2.7-2.04-4.45-5.93-4.45
		c-1.9,0-3.78,0.02-11.18,0.02v1.92c0.6,0,1.1-0.02,1.63-0.02v11.55c-0.41,0.02-0.83,0.02-1.63,0.02v1.83h5.57v-1.83h-2.06v-4.38
		h7.08l0.94,3.6c0.48,1.83,1.44,3.05,3.41,3.05c0.62,0,1.35-0.14,2.2-0.41v-1.83c-0.53,0.21-1.08,0.37-1.56,0.37
		C117.91,46.45,117.22,45.69,116.85,44.41z M114.79,40.01h-7.84v-5.55c3.28-0.02,5.48-0.05,7.24-0.05c2.77,0,4.08,0.99,4.08,2.68
		C118.27,38.52,117.03,40.01,114.79,40.01z"/>
	<path class="st0" d="M129.06,36.09c-3.64,0-6.05,2.41-6.05,6.19c0,3.67,2.45,6.07,6.12,6.07c3.67,0,6.1-2.38,6.1-6.19
		C135.22,38.52,132.75,36.09,129.06,36.09z M129.12,46.54c-2.54,0-4.22-1.74-4.22-4.38c0-2.61,1.65-4.24,4.15-4.24
		c2.57,0,4.24,1.74,4.24,4.35C133.3,44.91,131.62,46.54,129.12,46.54z"/>
	<path class="st0" d="M145.96,38.18c0.78,0.02,1.56,0.07,2.34,0.11l-3.92,7.72h-0.02l-3.96-7.72c0.78-0.05,1.58-0.09,2.36-0.11
		v-1.74h-6.05v1.86h1.74l4.95,9.44l-1.65,3.14h-1.58v1.86h5.45v-1.86h-1.9l6.51-12.58h1.79v-1.86h-6.05V38.18z"/>
	<path class="st0" d="M163.63,38.29c-0.96-1.38-2.57-2.15-4.49-2.15c-3.12,0-5.59,2.13-5.59,6.09c0,3.76,2.61,6.05,5.8,6.05
		c1.81,0,3.37-0.73,4.31-2.13l0.09,1.74h3.39v-1.83h-1.6v-7.77h1.6v-1.86h-3.39C163.72,37.05,163.67,37.67,163.63,38.29z
		 M163.6,43.65c-0.48,1.74-1.9,2.89-3.94,2.89c-2.52,0-4.19-1.65-4.19-4.19c0-2.7,1.65-4.42,4.19-4.42c2.04,0,3.48,1.12,3.94,2.8
		C163.7,41.75,163.7,42.71,163.6,43.65z"/>
	<polygon class="st0" points="173.12,32.66 169.63,32.66 169.63,34.51 171.24,34.51 171.24,46.06 169.63,46.06 169.63,47.89 
		174.72,47.89 174.72,46.06 173.12,46.06 	"/>
	<path class="st0" d="M192.94,46.47c-3.8,0-6.58-2.52-6.58-6.35c0-3.9,2.7-6.07,6.44-6.07c2.96,0,4.81,1.08,5.43,1.81v2.15h1.83
		v-5.36h-1.67c-0.05,0.34-0.09,0.69-0.16,1.03c-1.01-0.71-2.77-1.49-5.39-1.49c-4.79,0-8.5,2.75-8.5,7.93
		c0,4.77,3.48,8.27,8.36,8.27c3.41,0,7.22-1.47,7.68-5.71c-0.55-0.21-1.05-0.41-1.6-0.64C198.35,45.08,195.66,46.47,192.94,46.47z"
		/>
	<path class="st0" d="M216.35,40.61c0-2.68-1.97-4.42-4.47-4.42c-1.9,0-3.9,0.64-5.34,2.7v-6.23h-3.48v1.86h1.6v11.55h-1.6v1.83
		h5.09v-1.72l-1.6-0.11v-4.79c1.05-2.36,2.96-3.28,4.77-3.28c1.63,0,3.14,1.1,3.14,2.91v5.16l-1.6,0.11v1.72h5.06v-1.83h-1.56V40.61
		z"/>
	<path class="st0" d="M222.85,34.26c0.8,0,1.4-0.53,1.4-1.42c0-0.8-0.6-1.4-1.42-1.4c-0.82,0-1.4,0.55-1.4,1.44
		C221.43,33.69,222,34.26,222.85,34.26z"/>
	<polygon class="st0" points="223.81,36.44 220.33,36.44 220.33,38.29 221.93,38.29 221.93,46.06 220.33,46.06 220.33,47.89 
		225.41,47.89 225.41,46.06 223.81,46.06 	"/>
	<path class="st0" d="M237.5,38.29c-0.96-1.38-2.57-2.15-4.49-2.15c-3.12,0-5.59,2.13-5.59,6.09c0,3.76,2.61,6.05,5.8,6.05
		c1.81,0,3.37-0.73,4.31-2.13l0.09,1.74h3.39v-1.83h-1.6v-7.77h1.6v-1.86h-3.39C237.59,37.05,237.55,37.67,237.5,38.29z
		 M237.48,43.65c-0.48,1.74-1.9,2.89-3.94,2.89c-2.52,0-4.19-1.65-4.19-4.19c0-2.7,1.65-4.42,4.19-4.42c2.04,0,3.48,1.12,3.94,2.8
		C237.57,41.75,237.57,42.71,237.48,43.65z"/>
	<path class="st0" d="M249.37,36.09c-3.64,0-6.05,2.41-6.05,6.19c0,3.67,2.45,6.07,6.12,6.07c3.67,0,6.1-2.38,6.1-6.19
		C255.53,38.52,253.06,36.09,249.37,36.09z M249.44,46.54c-2.54,0-4.22-1.74-4.22-4.38c0-2.61,1.65-4.24,4.15-4.24
		c2.57,0,4.24,1.74,4.24,4.35C253.61,44.91,251.94,46.54,249.44,46.54z"/>
	<path class="st0" d="M270.83,40.61c0-2.68-1.97-4.42-4.47-4.42c-1.9,0-3.9,0.64-5.34,2.7v-6.23h-3.48v1.86h1.6v11.55h-1.6v1.83
		h5.09v-1.72l-1.6-0.11v-4.79c1.05-2.36,2.96-3.28,4.77-3.28c1.63,0,3.14,1.1,3.14,2.91v5.16l-1.6,0.11v1.72h5.06v-1.83h-1.56V40.61
		z"/>
	<path class="st0" d="M276.92,39.48c0-1.12,1.76-1.81,3.16-1.81c2.11,0,3.71,0.85,4.17,1.47l0.07,1.01h1.44v-3.87h-1.4l-0.09,1.05
		c-0.76-0.66-2.11-1.24-4.03-1.24c-2.31,0-5.18,0.87-5.18,3.48c0,4.74,9.53,1.83,9.53,4.97c0,1.42-1.54,2.18-3.64,2.18
		c-1.79,0-3.83-0.71-4.47-1.72l-0.14-1.22h-1.42v4.1h1.56v-1.08c1.12,0.99,2.82,1.51,4.47,1.51c2.89,0,5.52-1.35,5.52-3.87
		C286.48,39.55,276.92,42.35,276.92,39.48z"/>
	<path class="st0" d="M291.57,34.26c0.8,0,1.4-0.53,1.4-1.42c0-0.8-0.6-1.4-1.42-1.4c-0.82,0-1.4,0.55-1.4,1.44
		C290.15,33.69,290.72,34.26,291.57,34.26z"/>
	<polygon class="st0" points="292.53,46.06 292.53,36.44 289.05,36.44 289.05,38.29 290.66,38.29 290.66,46.06 289.05,46.06 
		289.05,47.89 294.14,47.89 294.14,46.06 	"/>
</g>
</svg>
