<!-- Generator: Adobe Illustrator 25.0.0, SVG Export Plug-In  -->
<svg version="1.1" xmlns="http://www.w3.org/2000/svg" xmlns:xlink="http://www.w3.org/1999/xlink" x="0px" y="0px"
	 width="336.54px" height="313.69px" viewBox="0 0 336.54 313.69" fill='white'
	 style="overflow:visible;enable-background:new 0 0 336.54 313.69;" xml:space="preserve">
<defs>
</defs>
<g>
	<path d="M142.68,30.22c-0.42,4.32,1.99,8.4,4.69,11.79c2.7,3.4,5.24,3.49,6.78,7.55c0.18,0.49,0.36,1.01,0.78,1.32
		c0.91,0.67,2.86,1.23,3.54,0.32c0.67-0.91,1.22-0.3,2.32-0.54c0.72-0.16,1.46,0.13,2.14,0.41c1.29,0.53,2.58,1.07,3.87,1.6
		c1.08,0.45,2.26,0.9,3.39,0.59c0.48-0.13,0.92-0.4,1.34-0.68c1.89-1.25,4.42-2.25,5.86-4c1.44-1.75,1.78-4.25,2.64-6.35
		c0.5-1.23,0.9-2.55,0.71-3.86c-0.24-1.65-1.37-3.03-1.84-4.62c-0.52-1.76-0.24-3.79-1.25-5.33c-0.75-1.16-2.07-1.78-3.23-2.52
		c-1.86-1.18-3.46-2.77-4.64-4.62c-0.89-1.38-2.31-1.2-3.4-2.43c-1.09-1.22-3.19-1.65-4.77-1.19c-2.1,0.6-2.12,1.14-4.31,1.23
		c-2.88,0.11-4.46-3.04-7.88-2.36c-4.95,0.98-5.34,5.14-7.45,7.29c-0.42,0.42-0.86,0.9-0.9,1.49c-0.08,1.1,1.19,1.8,1.58,2.84
		C142.88,28.81,142.75,29.53,142.68,30.22z"/>
	<path d="M193.89,75.72c1.69,0.82,3.63,1.42,4.67,2.98c0.45,0.68,1.26,1.39,1.81,1.43c0.45,0.04,0.94-0.8,1.36-1.38
		c0.85-1.19,2.85-0.82,3.74-1.99c0.54-0.7,2.19-1.27,2.27-2.07c0.16-1.5,1.23-2.73,2.57-3.4c3.68-1.85,7.19-4.63,10.11-7.56
		c4.21-4.21,5.98-9.01,8.53-13.7c0.42-0.78,0.64-1.63,0.78-2.51c0.19-0.95,0.21-1.95,0.7-2.77c0.25-0.41,0.61-0.76,0.85-1.18
		c0.55-0.96,0.4-2.14,0.39-3.24c0-0.35,0.04-0.7,0.07-1.05c0-0.01,0-0.02,0.01-0.03c0.75-1.49,2.89-3.54,4.59-4.99
		c0.52-0.13,1.03-0.31,1.44-0.42c1-0.27,2.09-0.6,2.68-1.45c0.4-0.58,0.5-1.31,0.58-2.01c0.04-0.29,0.07-0.57,0.11-0.86
		c3.47-4.71,4.42-10.58,4.13-17c-0.07-1.65-0.65-4.87-1.56-6.25c-0.68-1.03-2.6-1.67-3.61-2.4c-3.51-2.57-7.14-4.05-11.48-3.86
		c-4.42,0.19-7.23,2.72-7.22,7.24c0,2.19,0.42,4.46-0.34,6.51c-0.69,1.84-2.25,3.27-2.84,5.14c-0.34,1.09-0.33,2.25-0.55,3.37
		c-0.06,0.32-0.63,1.31-0.81,1.47c-0.66,0.58-1.33,1.17-1.74,1.95c-0.33,0.62-0.46,1.31-0.53,2.02c-0.07,0.66-0.24,1.31-0.56,1.89
		c-0.24,0.44-0.46,0.89-0.65,1.35c-0.73,1.74-1.06,3.64-1.84,5.36c-0.79,1.73-1.88,3.32-3.13,4.76c-2.47,2.84-4.36,5.63-5.94,8.36
		c-0.13,0.03-0.26,0.09-0.38,0.15c-1.02,0.53-2,1.31-2.36,2.4c-0.3,0.92-0.05,1.85-0.17,2.78c-0.06,0.47-0.37,0.88-0.52,1.32
		c-2.16,4.56-4.04,8.91-7.02,12.96C190.2,71.54,192.21,74.9,193.89,75.72z"/>
	<path d="M122.27,116.8c4.81,2.16,7.86,1.4,13.12,1.21c0.99-0.04,3.26,0.4,4.63-0.09c2.24-0.35,4.03-1.93,5.67-1.44
		c6.75,1.99,10.51,0.69,15.33-0.11c1.53-0.25,4.59-0.5,5.66-0.8c1.54-0.44,2.85-1.26,4.08-1.54c8.07-1.78,16.21-3.55,24.42-4.28
		c1.52,0.34,3.38,2.5,0.46,6.95c-1.29,1.96-0.95,4.07-2.2,5.88c-3.04,4.4-2.52,7.74-2.89,9.76c-0.16,0.88-0.25,1.78-0.56,2.62
		c-0.73,1.97-2.71,3.75-2.08,5.76c0.35,1.13,1.45,1.85,2.04,2.88c0.45,0.79,0.57,1.7,0.6,2.63c-1.93,0.37-3.87,0.74-5.81,1.04
		c-0.36-0.63-0.81-1.2-1.38-1.67c-1.9-1.57-4.73-1.86-6.3-3.76c-0.63-0.76-0.99-1.72-1.6-2.49c-0.61-0.78-1.65-1.37-2.57-1.01
		c-0.86,0.34-1.22,1.32-1.74,2.08c-0.4,0.57-0.78,0.39-1.08,0.31c-0.04-0.09-0.09-0.18-0.17-0.24c-0.14-0.11-0.35-0.07-0.5,0.03
		c-0.29,0.2-0.39,0.53-0.71,0.7c-0.06,0.03-0.59,0.32-0.97,0.4c-3.53,0.75-5.6,4.3-7.12,7.58c-0.52,1.13-1.06,2.32-0.95,3.56
		c0.06,0.74,0.35,1.44,0.63,2.13c2.16,5.37,3.94,10.89,5.3,16.51c1.55,6.4,2.54,13.29,0.23,19.45c-0.47,1.24-1.07,2.55-0.77,3.85
		c0.08,0.33,0.07,0.69,0.05,1.04c-0.11,0.1-0.23,0.19-0.32,0.31c-0.14,0.19-0.1,0.44-0.03,0.66c0.05,0.16,0.11,0.32,0.13,0.49
		c-0.1,0.26-0.24,0.51-0.42,0.79c-0.89,1.86-1.11,3.05-0.59,4.55c0.22,0.65,0.52,0.6,0.54,1.98c-0.07,1.82-0.95,1.75-1.69,2.45
		c-1.28,1.23-2.23,2.76-2.86,4.42c-0.08,0.04-0.16,0.09-0.21,0.17c-0.06,0.1-0.03,0.22,0.04,0.29c0.04,0.34-0.05,0.72-0.3,1.03
		c-0.26,0.61-0.03,1.04-0.25,1.48c0,0.01-0.01,0.01-0.02,0.02c-0.15,1.23-0.12,2.47,0.13,3.69c0.4,1.94,1.27,3.86,1.96,5.76
		c-0.16,0.27-0.26,0.55-0.2,0.85c0.06,0.33,0.3,0.59,0.49,0.87c-0.05,0.23-0.07,0.46,0.02,0.68c0.1,0.22,0.29,0.36,0.5,0.48
		c0.21,1.25,0.2,2.48-0.23,3.72c-0.64,1.81-2.11,3.21-2.93,4.95c-0.89,1.9-0.94,4.07-0.97,6.17c-0.07,4.4-0.14,8.8-0.21,13.2
		c-0.01,0.87-0.02,1.77,0.27,2.59c0.29,0.8,0.84,1.47,1.39,2.12c2.23,2.57,4.68,4.95,7.32,7.1c1.34,1.09,2.87,2.17,4.59,2.14
		c0.72-0.01,1.38-0.22,2.01-0.54c0.75-0.25,1.5-0.7,2.22-1.02c2.18-0.97,4.8-0.73,6.88-1.9c0.49-0.28,2.08,0.3,2.6,0.1
		c0.69-0.26,0.37-0.64,1.01-0.21c0.33,0.22,0.73-0.02,1.07,0.19c0.35,0.22,5.63,1.36,7.27,1.56c1.08,0.13,2.25,0.25,3.21-0.26
		c0.41-0.22,0.76-0.54,1.18-0.76c1.21-0.62,2.71-0.2,3.88,0.49c1.17,0.69,4.08,3.04,5.34,3.54c0.43,0.17,0.83,0.25,1.2,0.26
		c0.52,0.12,1.05,0.18,1.58,0.2c1.96,0.05,3.88-0.47,5.8-0.83c1.33-0.24,3.17,0.44,3.94,1.62c0.2,0.25,0.54,0.23,0.86,0.48
		c0.31,0.08,0.56,0.08,0.94-0.37c0.95-1.12,1.68-0.84,2.81-1.85c1.48-1.33,1.91-2.64,3.59-3.98c1.29-0.84,3.71-2.29,4.53-2.52
		c0.8-0.23,1.35-0.67,1.64-1.46c0.45-1.21,0.1-1.25,0.29-2.33c0.1-0.57,0.45-1.9,0.78-2.38c1.19-1.73,0.68-4.25,0.38-6.33
		c-0.17-1.19-0.38-2.46-1.22-3.32c-0.64-0.66-0.51-1.97-1.63-2.81c-2.01-1.51-3.07-3.6-4.56-5.35c0.11-0.52,0.21-1.11,0.28-1.85
		c0.51-2.75,1.72-3.86,2.24-6.07c0.36-1.56,1.02-3.03,1.33-4.99c1-4.01,1.52-10.03,1.63-13.73c0.1-3.21,0.2-6.44,1.02-9.54
		c0.99-3.75,2.61-7.07,2.62-10.95c0.01-3.26-0.47-7.78-0.29-12.08c0.19-1.46,0.01-2.79,0-3.6s-0.24-2.42-0.18-3.12
		c-0.12-1.47,0.47-1.24,0.12-2.53c-0.13-0.47-0.29-0.77-0.64-1.4c-0.14-1.99,0.18-3,0.49-4.48c0.54-2.63,0.27-5.35,0-8.02
		c-0.03-0.3-0.05-0.62-0.07-0.96c1.26-1.12,2.18-2.55,2.39-4.24c0.37-3.07-0.01-8.71-2.9-9.8c-1.16-0.44-2.4-0.73-3.48-0.65
		c-2.98-1.67-6.08-1.69-9.16-0.64s-5.94,2.53-9.06,3.11c-4.18,0.78-8.39,0.85-12.63,1.09c-0.13,0.01-0.26,0.02-0.4,0.03
		c0.59-0.7,1.31-1.32,1.83-2.06c1.5-2.12,2.69-2.7,5-3.89s5.22-3.86,5.68-6.41c0.84-4.69,2.34-6.84,3.07-7.88
		c2.17-3.13,1.14-7.14,2.08-10.82c0.28-1.11,0.4-2.56,0.57-3.9c4.32-0.58,8.46-2.05,12.64-3.27c0,0,0.01,0,0.01,0
		c0.16,0.03,0.32,0.06,0.48,0.09c0.27,0.05,0.55,0.09,0.79-0.1c0.13-0.1,0.23-0.27,0.33-0.44c15.11-4.19,30.89-5.41,46.49-7.09
		c1.45-0.16,2.97-0.35,4.14-1.21c0.73-0.54,1.26-1.3,1.75-2.07c0.63-0.1,1.26-0.27,1.78-0.64c1.94-1.35,1.63-4.45,3.22-6.2
		c0.78-0.86,2.08-1.52,1.86-2.86c-0.07-0.4-0.25-0.83-0.5-1.23c0.57-1.39,0.96-2.83,0.96-4.34c0-2.34-1.53-3.92-3.58-4.54
		c-1.38-0.41-2.51-1.37-3.31-2.57c-0.04-0.84-0.09-1.71-0.49-2.46c-0.61-1.16-1.89-1.77-2.86-2.66c-0.97-0.9-1.62-2.09-2.42-3.14
		c-0.8-1.06-1.85-2.04-3.16-2.23c-0.83-0.12-2.06,0.31-2.57,1.11c-1.35-0.08-3.15,0.28-4.45,0.88c-1.06-0.1-2.13-0.01-3.12,0.39
		c-1.51,0.61-2.77,1.94-3.1,3.54c-0.15,0.75-0.11,1.52-0.15,2.28c-0.02,0.31-0.14,0.77-0.28,1.29c0,0,0,0,0,0
		c-5.07,2.63-7.31,4.78-12.13,7.46c-0.19-0.05-0.38-0.09-0.58-0.08c-0.34,0.01-0.7,0.16-0.97,0.45c-0.39-0.15-0.87-0.17-1.35-0.1
		c-1.64,0.25-2.83,1.31-3.76,2.4c-1.22,0.31-2.46,0.56-3.71,0.7l-2.8,0.31c-0.08-0.04-0.15-0.09-0.23-0.12
		c-0.88-0.38-1.9-0.19-2.68,0.44l-23.45,2.56c-0.25-0.22-0.49-0.47-0.76-0.67c-1.18-0.9-2.9-0.63-4.18,0.11
		c-0.63,0.36-1.19,0.82-1.74,1.29l-27.73,3.03c-4.17,0.46-8.43,0.93-12.26,2.64c-1.68,0.75-3.52,1.75-5.25,1.14
		c-0.63-0.22-1.17-0.65-1.79-0.9c-1.06-0.43-2.26-0.33-3.4-0.22c-3.5,0.34-7,0.68-10.5,1.01c-0.66-0.7-1.53-1.33-2.37-1.91
		c-0.76-0.52-1.54-1.06-2.36-1.32c-0.89-0.28-1.69-0.21-2.52-0.28c-0.16-0.01-0.32-0.04-0.47-0.07c-2.45-1.6-5.02-3.02-7.69-4.25
		c-0.06-0.05-0.13-0.1-0.19-0.16c-0.4-0.39-0.65-0.91-1.01-1.33c-0.89-1.02-2.42-1.34-3.72-0.96c-0.27,0.08-0.55,0.19-0.82,0.32
		c-3.78-0.68-5.36,1.5-9.68,2.54c-4.28,1.04-5.01,3.9-4.85,8.68C110.16,103.89,113.84,113.02,122.27,116.8z M212.78,206.82
		c-0.84,0.21-1.63,0.56-2.28,1.13c-0.31,0.27-0.58,0.58-0.93,0.8c-0.46,0.29-1,0.4-1.53,0.5c-1.64,0.31-3.28,0.62-4.92,0.93
		c-1.75,0.33-3.74-0.49-4.48-0.19c-0.45,0.25-1.7,0.3-2.58,0.26c-1.12-0.04-2.28,0.29-3.4,0.24c-0.66-0.02-0.95,0.51-2.1,0.45
		c-1.15-0.06-1.56-0.51-1.72-0.93c-0.85-2.28-2.22-5.5-4.13-7.79c-0.39-1.02-0.8-2.03-1.08-3.08c-0.2-0.75-0.32-1.5-0.41-2.26
		c3.1-0.75,6.36-0.83,9.48-0.19c0.33,0.07,0.66,0.14,0.99,0.08c0.27-0.05,0.52-0.2,0.77-0.32c2.01-0.99,4.46-0.62,6.51,0.27
		s3.87,2.27,5.83,3.35c2,1.09,4.17,1.85,6.41,2.29C213.08,203.83,212.94,205.32,212.78,206.82z M197.43,248.42
		c-0.53,0.1-1.31,0.83-1.78,1.08c-0.96,0.51-1.59,0.58-2.67,0.7c-1.06,0.12-2.75-1.59-3.82-1.59c-0.57,0-0.66,0.34-1.36-0.11
		c-0.42-0.27-0.72-0.7-0.95-1.15c-0.57-1.09-0.81-2.34-0.71-3.56c0-0.02,0.01-0.05,0.01-0.08c0.06-0.21,0.13-0.43,0.22-0.7
		c0.16-0.64,0.23-1.8,0.02-2.2c-0.52-1.04-0.73-4.4-0.86-5.33c-0.27-2.04-0.44-4.17-0.52-6.35c0.67-0.85,1.28-1.78,1.92-2.62
		c1.54-2,2.76-2.7,5.03-3.83c0.36-0.18,1.64-0.44,2.04-0.45c0.84-0.01,1.18,0.19,1.99,0.39c1.84,0.44,3.58,0.14,5.17-0.44
		c1.12-0.41,1.43-0.2,2.51-0.39c1.09,0.06,2.94-0.62,6.84-0.91c-0.05,0.17-0.09,0.34-0.14,0.51c-0.71,2.26-1.68,4.5-1.92,6.82
		c-0.38,0.08-0.71,0.31-0.99,0.81c-1.64,2.42-2.31,6.09-2.43,8.57c-0.12,2.57-0.85,5.06-1.5,7.53
		C202.08,247.19,199.79,247.99,197.43,248.42z M206.54,157.22c1.16,0.44,2.37,0.94,3.7,0.07c0.52-0.34,1.84-0.44,2.3-0.86
		c2.64-2.39,6.64-1.19,10.14-0.59c1.13,8.29-0.23,11.38-3.76,14.17c-1.3,1.03-1.79,1.92-2.52,3.4c-0.24,0.49-0.43,1-0.58,1.52
		c-0.97-0.23-1.98-0.38-2.97-0.51c-0.71-0.1-1.56-0.13-1.98,0.44c-0.17,0.24-0.23,0.55-0.37,0.81c-0.85,1.59-3.56,0.4-4.97,1.53
		c-0.47,0.38-0.81,1.02-1.41,1.07c-0.44,0.04-0.83-0.26-1.26-0.33c-0.68-0.11-1.3,0.36-1.85,0.76c-2.73,2.01-6.04,3.22-9.42,3.43
		c-2.82,0.18-5.88-0.44-7.81-2.5c-0.2-0.21-0.4-0.4-0.6-0.6c-0.29-5.83-0.64-11.66,0.52-17.32c2.04-1.22,4.44-1.75,6.78-2.24
		C195.74,158.35,200.81,157.73,206.54,157.22z"/>
	<path d="M1.31,106.47c0.58,0.14,0.95,0.63,1.21,1.06c0.37,0.61,0.75,0.83,1.12,1.44c0.31,0.51,0.62,1.45,0.6,2.05
		c-0.02,0.54-0.32,1.01-0.49,1.52c-0.18,0.51-0.05,0.92,0.36,1.26c0.28,0.23,0.71-0.13,1.05,0c1.69,0.64,2.97,0.64,5.36,2.73
		c1.67,2.61,4.26,4.61,7.2,5.56c0.23,0.08,0.48,0.15,0.67,0.3c0.16,0.12,0.27,0.28,0.39,0.44c1.23,1.7,2.8,3.55,4.9,3.57
		c0.82,0.01,1.62-0.28,2.37-0.64c1.01-0.49,1.96-1.11,2.82-1.84c0.76-0.65,1.47-1.41,2.38-1.83c0.43-0.2,0.88-0.31,1.31-0.5
		c0.66-0.28,1.24-0.72,1.76-1.19c2.81-2.55,4.23-6.56,3.65-10.32c-0.15-0.94-0.42-1.89-0.98-2.66c-1.31-1.78-3.22-2.2-4.62-3.91
		c-0.43-0.52-1.39-1.19-1.87-1.66c-1-0.97-1.97-1.21-2.78-2.35c-0.43-0.61-1.23-1.4-1.81-1.87c-0.59-0.47-2.12-0.34-2.84-0.11
		c-0.72,0.23-0.47-0.15-1.22-0.06c-0.25,0.03-0.44,0.57-0.64,0.41c-0.13-0.1-0.57-0.12-0.64-0.27c-0.49-1.04-0.94-2.16-1.8-2.92
		c-1.04-0.92-2.63-1.17-3.9-0.62c-1.09,0.48-1.89,1.46-2.99,1.91c-1.83,0.75-3.85-0.08-5.74,0.2c-0.74,0.11-1.32,0.4-2,0.68
		c-0.73,0.29-2.17,0.33-2.92,1.32c-0.68,0.89,0.74,1.54,0.17,2.5c-0.17,0.28-0.52,0.45-0.75,0.68c-0.85,0.86-0.66,2.26-0.41,3.45
		c0.09,0.44,0.63,0.52,0.98,0.81C1.42,105.78,0.61,106.3,1.31,106.47z"/>
	<path d="M336.23,279.03c-0.05-0.18-0.12-0.37-0.22-0.53c-0.71-2.63-2.52-4.96-5.12-5.59c-2.04-0.49-4.16,0.11-6.26,0.05
		c-2.91-0.09-5.67-1.44-8.57-1.56c-8.01-0.3-14.74,8.69-22.4,7.62c-1.36-0.46-2.96-0.17-4.36,0.28c-0.59,0.19-1.18,0.41-1.68,0.76
		c-0.54,0.38-0.97,0.9-1.52,1.28c-0.88,0.61-1.98,0.81-3.03,0.98c-0.4,0.07-0.82,0.13-1.22,0.06c-0.4-0.08-0.77-0.3-1.17-0.39
		c-1.71-0.39-3.41,1.66-5.03,0.97c-0.29-0.12-0.57-0.33-0.88-0.28c-0.23,0.04-0.43,0.22-0.66,0.25c-0.4,0.05-0.71-0.32-1.06-0.51
		c-0.53-0.29-1.2-0.15-1.72,0.16c-0.31,0.19-0.58,0.44-0.84,0.7c-20.6,2.4-41.09,5.82-61.35,10.26c-7.5,1.64-15.95-0.18-22.75,1.27
		c-2.91,0.32-4.1,2.06-6.35,2.53c-6.63,1.39-13.34,2.1-20.09,2.37c-6.39-0.35-12.75-1.03-19.06-2.07c-0.44-0.07-0.89-0.15-1.33-0.09
		c-0.81,0.11-1.54,0.64-2.35,0.57c-0.33-0.03-0.65-0.16-0.96-0.29c-0.56-0.23-1.11-0.46-1.67-0.69c-0.45-0.19-0.9-0.37-1.37-0.49
		c-0.88-0.21-1.79-0.15-2.69-0.1c-3.95,0.25-7.9,0.47-11.85,0.73c-2.03-0.24-4.06-0.48-6.08-0.72c-6.6-0.8-13.15-2.45-19.8-2.39
		c-8.26,0.07-10.38-4.34-13.9-3.56c-2.73,2.43-6.91,3.1-10.26,1.65c-1.45-0.63-2.7-1.65-3.67-2.89c0.39-1.54,0.66-3.11,1.09-4.64
		c2.01-7.11,6.95-9.15,8.42-16.39c0.51-2.48,1.01-8.86,1.03-11.39c0.02-3.56,0.04-7.17-0.96-10.59c-0.91-3.11-2.63-5.9-4.33-8.66
		c-0.59-0.96-1.18-1.91-1.77-2.87c-0.83-1.34-1.65-2.68-2.51-4.01c-1.86-2.86-4.31-6.12-8.59-7.1c-1.03-0.24-0.99-0.07-1.6-0.24
		c-1.65-1.54-5.64-3.19-7.69-3.47c-1.31-0.23-2.16-0.11-2.84,0.14c-0.44,0.17-0.91,0.3-1.38,0.27c-1.32-0.09-1.85-0.81-1.92-1.8
		c1.74-3.98,4.89-7.35,8.8-9.28c0.69-0.34,1.41-0.65,2-1.14c0.39-0.33,0.7-0.74,0.96-1.17c0.08-0.03,0.16-0.05,0.24-0.08
		c0.41-0.16,0.83-0.34,1.09-0.68c0.36-0.48,0.33-1.13,0.35-1.72c0.03-0.76,0.18-1.49,0.38-2.21c0.3-0.77,0.59-1.54,0.87-2.32
		c0.62-1.43,1.32-2.85,1.73-4.34c0.28-1.04,0.42-2.12,0.56-3.19c0.17-1.32,0.34-2.64,0.51-3.95c0.17-1.29,0.31-2.66-0.16-3.86
		c-0.11-1.53-0.36-3.05-0.78-4.56c-1.46-5.2-3.33-10.59-7.45-14.09c-4.12-3.5-9.35-6.38-14.22-8.73c-1.7-0.82-4.59-0.44-6.47-0.54
		c-2.15-0.12-4.23,0.69-6.22,1.49c-3.01,1.2-6.03,2.4-9.04,3.61c-2.75,1.1-5.66,2.32-7.33,4.75c-1.03,1.5-3.75,3.2-4.09,2.92
		c-0.34-0.28-0.92-0.32-1.18,0.03c-0.1,0.14-0.14,0.32-0.17,0.49c-0.4,2.07-0.56,3.25-1.05,4.71c-0.65,1.13-0.64,2.81-0.43,3.75
		c-0.36,0.06,1.35,2.7,2.17,4.41c0.57,1.19-0.37,2.21-0.6,3.35c-0.78,3.95,5.33,5.36,8.1,3.72c1.27-0.75,2.08-2.2,3.46-2.69
		c1.45-0.52,3.19,0.15,4.55-0.57c2.4-1.28,1.68-5.69,4.22-6.66c0.46-0.18,0.98-0.21,1.39-0.47c0.87-0.56,0.86-1.8,0.85-2.83
		c-0.01-1.03,0.31-2.33,1.33-2.51c0.36-0.07,0.73,0.04,1.1,0.1c2.38,0.36,4.62-1.41,7.02-1.36c0.37,0.01,0.76,0.07,1.05,0.29
		c0.36,0.28,0.51,0.75,0.63,1.19c0.95,3.45,1.65,7.08,0.96,10.59c-1.02,5.18-4.85,9.27-7.77,13.67c-1.73,2.6-3.17,5.38-4.3,8.29
		c-0.51,1.33-0.95,2.68-1.36,4.04c-0.92,0.85-1.65,1.9-2.08,3.08c-0.55,1.52-0.65,3.29-0.74,4.96c-0.47,0.63-0.89,1.28-1.24,1.99
		c-1.08,2.18-1.42,4.85-0.33,7.02c0.16,0.32,0.35,0.62,0.55,0.9c0.18,0.75,0.87,1.53,1.51,1.86c0.28,0.15,0.57,0.29,0.87,0.4
		c1.21,0.88,2.55,1.65,3.73,2.56c1.78,1.37,3.24,3.11,4.88,4.64c0.19,0.5,0.4,1,0.77,1.37c0.21,0.21,0.47,0.37,0.76,0.45
		c0.11,0.26,0.26,0.5,0.5,0.64c0.47,0.28,0.85,0.34,1.17,0.27c1.43,0.81,3.4,1.14,6.77-0.08c1.99,0,1.94-0.97,3.02-1.14
		c3.82-0.17,5.86,1.32,8.24,3.94c2.38,2.62,2.49,6.52,2.41,10.06c-0.07,3.06-1.13,6.13-2.75,8.73c-1.08,1.75-1.56,2.82-2.73,4.51
		c-6.96,10.03-10.36,9.87-15.86,16.11c-2.34,1.01-3.47,0.36-5.16,1.2c-1.62,0.81-1.18,2.72-2.07,3.04
		c-2.13,0.77-3.97,2.15-5.77,3.52c-0.37,0.28-0.77,0.6-0.88,1.05c-0.16,0.62,0.27,1.25,0.23,1.88c-0.05,0.79-0.77,1.34-1.29,1.93
		c-0.52,0.59,0.42,2.18,1.06,2.64c1.13,0.65,2.87,0.93,2.28,2.86c-0.39,1.28-1.68,2.19-1.85,3.52c-0.14,1.1,0.54,2.12,1.26,2.97
		c2.35,2.8,3.8,4.2,7.2,5.52c1.94,0.48,4.48-1.52,5.39-1.43c2.14,0.22,4.28,0.45,6.41,0.67c0.76,0.08,1.59,0.14,2.21-0.3
		c0.42-0.3,0.67-0.78,1.03-1.16c2.41,0.4,4.92,0.14,7.14-0.87c3.07-1.39,6.01-4.08,9.3-3.34c1.58,0.36,2.21,0.01,3.76,0.49
		c1.55,0.48,2.88,0.29,4.42,1.06c2.3,2.12,7.27,3.06,11.44,2.45c4.17-0.61,8.17-2.3,12.38-2.44c4.83-0.16,9.47,1.72,14.24,2.5
		c11.2,1.83,22.37-0.92,33.14,1.37c2.46,0.05,4.69,0.56,7.24,0.53c7.3,0.73,14.5-0.51,21.8,0.22c5.85,0.59,12.07,1.11,17.33-1.51
		c2.43-1.21,5.09-1.67,7.69-2.4c4.94-1.39,9.42,0.12,14.47,1c4.2,0.73,8.5,0.06,12.71-0.61c15.81-2.52,31.62-5.03,47.42-7.55
		c7.31-1.16,14.72-2.33,22.09-1.57c3.92,0.41,8.6-0.67,11.08-2.08c1.03-0.12,1.97-0.07,2.87,0.06c0.16,0.1,0.32,0.2,0.48,0.32
		c0.85,0.64,1.68,0.6,2.45,1.33c0.78,0.73,1.47,0.92,2.28,0.49c0.45-0.24,0.81-0.39,1.09-0.81c0.58-0.88,1.49-0.88,2.27-1.59
		c0.73-0.31,1.47-0.62,2.23-0.91c0.48,0.11,0.99,0.15,1.49,0.18c1.5,0.09,3,0.18,4.49,0.27c1.99,0.12,4.11,0.21,5.84-0.67
		c0.77-0.39,1.43-0.95,2.16-1.39c0.22-0.09,0.44-0.18,0.66-0.3c0.04-0.02,0.08-0.05,0.11-0.07c0.1-0.04,0.19-0.1,0.3-0.13
		c0.29-0.09,0.61-0.15,0.85-0.32c0.33-0.23,0.43-0.58,0.48-0.96c0.59-0.69,1.09-1.46,1.56-2.25c0.62-0.34,1.27-0.67,1.54-1.25
		c0.2-0.44,0.14-0.93,0.22-1.39c0.12-0.68,0.54-1.29,0.89-1.91C336.48,284.7,336.9,281.77,336.23,279.03z"/>
</g>
</svg>
