<!-- Generator: Adobe Illustrator 25.0.0, SVG Export Plug-In  -->
<svg version="1.1" xmlns="http://www.w3.org/2000/svg" xmlns:xlink="http://www.w3.org/1999/xlink" x="0px" y="0px"
	 width="301.06px" height="44.95px" viewBox="0 0 301.06 44.95" style="overflow:visible;enable-background:new 0 0 301.06 44.95;"
	 xml:space="preserve">
<style type="text/css">
	.st0{fill:#FFFFFF;}
</style>
<defs>
</defs>
<g>
	<path class="st0" d="M7.67,4.93c-0.46-0.04-1-0.07-1.62-0.08C5.43,4.83,4.69,4.82,3.83,4.82c-0.86,0-1.59,0.01-2.21,0.02
		C1,4.86,0.46,4.89,0,4.93V3.37c0.49,0.04,1.04,0.07,1.64,0.08c0.6,0.01,1.33,0.02,2.19,0.02c0.86,0,1.59-0.01,2.2-0.02
		c0.61-0.01,1.15-0.04,1.63-0.08V4.93z M7.16,10.17c-0.42-0.04-0.87-0.07-1.34-0.08c-0.47-0.01-1.07-0.02-1.8-0.02
		c-0.73,0-1.33,0.01-1.81,0.02c-0.48,0.01-0.92,0.04-1.33,0.08V8.74c0.41,0.04,0.85,0.07,1.33,0.08c0.48,0.01,1.08,0.02,1.81,0.02
		c0.73,0,1.33-0.01,1.79-0.02c0.46-0.01,0.91-0.04,1.35-0.08V10.17z M7.18,7.58c-0.2-0.01-0.4-0.03-0.6-0.04
		C6.38,7.53,6.16,7.51,5.92,7.5C5.68,7.49,5.41,7.48,5.1,7.48c-0.31,0-0.66,0-1.05,0c-0.72,0-1.32,0.01-1.8,0.02
		C1.76,7.51,1.31,7.54,0.91,7.58V6.15C1.3,6.19,1.74,6.22,2.23,6.24c0.49,0.01,1.1,0.02,1.81,0.02c0.39,0,0.74,0,1.05,0
		c0.31,0,0.58-0.01,0.82-0.02C6.16,6.22,6.38,6.21,6.58,6.2c0.2-0.01,0.4-0.02,0.6-0.05V7.58z M2.55,17.19v1.62H0.91
		c0.04-0.48,0.07-0.92,0.1-1.33c0.02-0.41,0.03-0.85,0.03-1.33v-2.82c0-0.36,0-0.67,0-0.91s-0.01-0.47-0.02-0.7
		c0.13,0.01,0.27,0.02,0.43,0.03c0.16,0.01,0.36,0.01,0.59,0.02c0.23,0.01,0.51,0.01,0.84,0.01c0.33,0,0.73,0,1.21,0
		c0.48,0,0.88,0,1.21,0c0.33,0,0.61,0,0.84-0.01c0.23-0.01,0.42-0.01,0.58-0.02c0.15-0.01,0.3-0.02,0.42-0.03
		c-0.03,0.18-0.04,0.39-0.04,0.63c0,0.24,0,0.56,0,0.97v2.63c0,0.48,0.01,0.93,0.03,1.35c0.02,0.42,0.07,0.86,0.14,1.31H5.58v-1.43
		H2.55z M3.37,3.31C3.3,2.97,3.16,2.6,2.95,2.19C2.74,1.78,2.44,1.36,2.04,0.91l1.75-0.76C3.89,0.29,4,0.46,4.13,0.66
		c0.13,0.2,0.26,0.42,0.39,0.64c0.13,0.22,0.26,0.45,0.39,0.68c0.13,0.23,0.24,0.45,0.34,0.64L3.37,3.31z M5.58,15.9v-2.84H2.55
		v2.84H5.58z M12.15,3.48c-0.87,0.01-1.65,0.03-2.34,0.05C9.13,3.55,8.54,3.58,8.05,3.62V2.09c0.51,0.04,1.08,0.07,1.73,0.09
		c0.65,0.02,1.44,0.04,2.38,0.05c0-0.52-0.01-0.96-0.02-1.31c-0.01-0.35-0.04-0.62-0.06-0.82c0.27,0.03,0.54,0.05,0.83,0.05
		c0.29,0.01,0.61,0,0.98-0.03c0.2-0.01,0.31,0.02,0.34,0.09c0.03,0.08-0.04,0.17-0.21,0.28c-0.21,0.16-0.32,0.33-0.32,0.53v1.2
		c1.05,0,1.97-0.01,2.74-0.03c0.77-0.02,1.44-0.06,2-0.12v1.54c-0.56-0.06-1.23-0.09-2-0.12c-0.77-0.02-1.69-0.03-2.74-0.03v1.24
		c0.49,0,0.93,0,1.32-0.01c0.39-0.01,0.74-0.01,1.06-0.02c0.32-0.01,0.62-0.02,0.91-0.04c0.28-0.02,0.56-0.05,0.84-0.07v1.48
		C17.54,6.02,17.26,6,16.98,5.98c-0.28-0.01-0.58-0.03-0.91-0.04c-0.32-0.01-0.68-0.02-1.06-0.02c-0.39,0-0.83,0-1.32,0v1.41
		c0.73,0,1.33,0,1.8-0.01c0.47-0.01,0.89-0.01,1.25-0.02c0.37-0.01,0.71-0.02,1.03-0.04c0.32-0.02,0.7-0.05,1.12-0.09v1.52
		c-0.45-0.03-0.85-0.05-1.19-0.07c-0.34-0.02-0.71-0.04-1.11-0.04c-0.39-0.01-0.86-0.01-1.4-0.02c-0.54-0.01-1.23-0.01-2.08-0.01
		c-0.84,0-1.53,0-2.05,0.01c-0.53,0.01-0.98,0.01-1.35,0.02C9.35,8.57,9.01,8.58,8.7,8.61C8.39,8.63,8.04,8.65,7.65,8.68V7.16
		C8,7.2,8.31,7.24,8.59,7.26c0.28,0.02,0.58,0.04,0.9,0.04c0.32,0.01,0.68,0.01,1.1,0.02c0.41,0.01,0.94,0.01,1.57,0.01V5.92
		c-0.42,0-0.81,0-1.16,0.01c-0.35,0.01-0.67,0.01-0.97,0.02C9.73,5.96,9.45,5.97,9.2,5.99C8.94,6.01,8.67,6.03,8.41,6.05V4.57
		c0.27,0.03,0.53,0.05,0.8,0.06c0.27,0.01,0.55,0.02,0.84,0.03c0.3,0.01,0.61,0.02,0.96,0.03c0.34,0.01,0.73,0.02,1.15,0.02V3.48z
		 M10.24,15.53v3.67H8.49c0.03-0.21,0.06-0.46,0.09-0.76c0.03-0.3,0.06-0.59,0.08-0.88c0.02-0.3,0.04-0.57,0.05-0.82
		c0.01-0.25,0.02-0.45,0.02-0.59v-4.8c0-0.37,0-0.7,0-1c0-0.3-0.01-0.54-0.04-0.71c0.1,0,0.3,0,0.6,0.01
		c0.3,0.01,0.66,0.01,1.06,0.02c0.41,0.01,0.85,0.01,1.34,0.01c0.48,0,0.95,0,1.4,0c1.12,0,2.03,0,2.73,0c0.7,0,1.18-0.01,1.46-0.04
		c-0.03,0.18-0.04,0.42-0.04,0.72c0,0.3,0,0.62,0,0.99v6.28c0,0.28-0.03,0.52-0.09,0.72c-0.06,0.2-0.19,0.36-0.39,0.5
		c-0.2,0.13-0.47,0.24-0.83,0.33c-0.36,0.08-0.83,0.15-1.4,0.19c-0.04-0.37-0.12-0.68-0.24-0.96c-0.12-0.27-0.31-0.59-0.58-0.94
		c0.41,0.06,0.74,0.09,0.99,0.09c0.25,0.01,0.45-0.01,0.58-0.06c0.13-0.05,0.22-0.13,0.27-0.24c0.05-0.11,0.07-0.27,0.07-0.46v-1.24
		H10.24z M15.63,12.07v-1.18h-5.39v1.18H15.63z M10.24,13.23v1.14h5.39v-1.14H10.24z"/>
	<path class="st0" d="M25.42,16.81c0,0.29-0.03,0.55-0.09,0.76c-0.06,0.21-0.19,0.39-0.39,0.55c-0.2,0.15-0.47,0.29-0.83,0.41
		c-0.36,0.12-0.83,0.25-1.42,0.39c-0.04-0.48-0.12-0.86-0.22-1.15c-0.11-0.29-0.3-0.61-0.58-0.96c0.46,0.03,0.82,0.04,1.08,0.04
		c0.26,0,0.46-0.02,0.6-0.06c0.14-0.04,0.23-0.11,0.26-0.21c0.03-0.1,0.05-0.23,0.05-0.4v-5.06c-0.45,0.27-0.87,0.52-1.26,0.77
		c-0.39,0.25-0.75,0.49-1.07,0.73c-0.06-0.32-0.13-0.67-0.22-1.04c-0.09-0.37-0.19-0.71-0.31-1.02c0.43-0.11,0.9-0.25,1.38-0.42
		c0.48-0.17,0.98-0.36,1.49-0.59V5.84c-0.59,0.01-1.1,0.04-1.52,0.06c-0.42,0.03-0.81,0.07-1.16,0.13V4.36
		c0.35,0.06,0.74,0.09,1.16,0.12s0.93,0.04,1.52,0.05c0-0.97-0.03-1.82-0.08-2.56c-0.06-0.74-0.13-1.28-0.23-1.63
		c0.39,0.03,0.73,0.05,1.01,0.05c0.28,0.01,0.56,0,0.84-0.03c0.58-0.04,0.68,0.08,0.32,0.36c-0.14,0.1-0.23,0.2-0.26,0.32
		c-0.04,0.11-0.05,0.26-0.05,0.44v3.05c0.49-0.01,0.93-0.03,1.31-0.05c0.38-0.02,0.73-0.06,1.05-0.12v1.66
		c-0.32-0.06-0.67-0.1-1.05-0.13c-0.38-0.03-0.81-0.04-1.31-0.04v2.93c0.32-0.17,0.64-0.34,0.95-0.52c0.31-0.18,0.6-0.36,0.89-0.56
		c-0.01,0.27-0.01,0.51,0,0.72c0.35,0.01,0.73,0.03,1.14,0.04c0.41,0.01,0.87,0.03,1.38,0.03c0.51,0.01,1.09,0.01,1.74,0.02
		c0.65,0.01,1.38,0.01,2.21,0.01c0.46,0,0.95,0,1.46-0.01c0.51-0.01,1.02-0.01,1.52-0.02c0.5-0.01,0.98-0.02,1.43-0.03
		c0.46-0.01,0.87-0.03,1.25-0.04v3.33h-1.14v3.98c0,0.28-0.03,0.51-0.09,0.7c-0.06,0.18-0.19,0.34-0.38,0.47s-0.47,0.25-0.84,0.35
		c-0.37,0.1-0.86,0.19-1.46,0.27c-0.03-0.37-0.08-0.67-0.16-0.93c-0.08-0.25-0.23-0.58-0.45-0.97c0.38,0.04,0.69,0.06,0.93,0.06
		c0.24,0,0.42-0.03,0.56-0.08c0.13-0.06,0.22-0.14,0.27-0.26c0.05-0.12,0.07-0.27,0.07-0.45v-1.94h-2.82v3.03
		c0,0.63,0.01,1.2,0.03,1.72c0.02,0.51,0.07,1.07,0.14,1.67H32.2c0.06-0.62,0.09-1.18,0.12-1.68s0.03-1.07,0.03-1.71v-3.03h-2.36
		v4.36h-1.62c0.04-0.45,0.07-0.87,0.08-1.25c0.01-0.39,0.02-0.85,0.02-1.38v-3.03h-1.26V9.48c-0.37,0.16-0.68,0.29-0.95,0.41
		c-0.27,0.12-0.55,0.26-0.84,0.41V16.81z M37.76,5.92c0,0.31,0,0.61,0,0.91c0,0.3,0.01,0.52,0.02,0.67
		c-0.44-0.07-1.02-0.12-1.76-0.16c-0.74-0.03-1.73-0.05-2.98-0.05c-0.62,0-1.16,0-1.61,0.01c-0.46,0.01-0.86,0.02-1.2,0.03
		c-0.34,0.01-0.65,0.04-0.92,0.06c-0.27,0.03-0.53,0.06-0.78,0.11V5.81c0.24,0.04,0.48,0.07,0.72,0.09
		c0.24,0.02,0.53,0.04,0.88,0.04c0.35,0.01,0.79,0.01,1.32,0.02c0.53,0.01,1.2,0.01,2.03,0.01h2.74V4.82h-5.29
		c-0.59,0-1.12,0.01-1.6,0.02c-0.48,0.01-0.93,0.04-1.37,0.08V3.39c0.46,0.04,0.92,0.07,1.38,0.09c0.46,0.02,0.99,0.03,1.59,0.03
		h5.29v-1.1h-2.78c-1.29,0-2.34,0.02-3.15,0.05s-1.37,0.08-1.7,0.14V0.88c0.24,0.04,0.49,0.08,0.75,0.11
		c0.26,0.03,0.56,0.05,0.91,0.07c0.34,0.02,0.74,0.04,1.19,0.04c0.45,0.01,0.99,0.01,1.62,0.01c1.25,0,2.24-0.02,2.97-0.06
		c0.73-0.04,1.31-0.1,1.75-0.17c-0.01,0.16-0.02,0.38-0.02,0.66s0,0.59,0,0.89v1.07c0.42-0.01,0.81-0.03,1.17-0.05
		c0.36-0.02,0.72-0.05,1.08-0.07v1.54c-0.34-0.03-0.69-0.05-1.06-0.06c-0.37-0.01-0.77-0.03-1.19-0.04V5.92z M28.66,9.84v1.73
		c0.53,0.03,1.12,0.05,1.75,0.05c0.63,0.01,1.28,0.02,1.94,0.03V9.84H28.66z M37.83,9.84h-3.96v1.81c0.72,0,1.41,0,2.07-0.01
		c0.67-0.01,1.3-0.02,1.89-0.05V9.84z"/>
	<path class="st0" d="M45.17,6.17c-0.58,0.01-1.1,0.04-1.56,0.07c-0.46,0.04-0.86,0.08-1.18,0.14V4.63c0.32,0.06,0.72,0.1,1.18,0.13
		c0.46,0.03,0.98,0.05,1.56,0.06c0-1.15-0.02-2.14-0.06-2.95c-0.04-0.81-0.1-1.38-0.17-1.69c0.38,0.07,0.71,0.12,0.98,0.14
		c0.27,0.02,0.56,0.02,0.85,0.01c0.67-0.03,0.78,0.15,0.32,0.53c-0.15,0.11-0.26,0.22-0.31,0.33c-0.05,0.1-0.07,0.25-0.07,0.43V4.8
		c0.41-0.01,0.77-0.04,1.1-0.06c0.32-0.03,0.61-0.06,0.86-0.1v1.75c-0.25-0.04-0.54-0.08-0.86-0.12c-0.32-0.03-0.69-0.06-1.1-0.07
		v3.46c0.34-0.11,0.67-0.23,1-0.36c0.33-0.13,0.66-0.26,0.98-0.4c-0.07,0.32-0.1,0.61-0.08,0.85c0.01,0.25,0.06,0.5,0.13,0.77
		c-0.3,0.07-0.61,0.16-0.96,0.26c-0.34,0.11-0.7,0.24-1.06,0.39V17c0,0.38-0.02,0.68-0.07,0.89c-0.05,0.22-0.18,0.4-0.38,0.54
		c-0.2,0.14-0.51,0.26-0.92,0.36c-0.41,0.1-0.98,0.22-1.71,0.36c-0.07-0.41-0.17-0.76-0.31-1.06c-0.13-0.3-0.33-0.67-0.58-1.11
		c0.55,0.06,0.98,0.09,1.3,0.09c0.32,0.01,0.56-0.01,0.73-0.05s0.28-0.12,0.33-0.22c0.05-0.1,0.07-0.26,0.07-0.45V11.8
		c-0.41,0.2-0.81,0.4-1.21,0.6c-0.4,0.2-0.78,0.41-1.15,0.62c-0.03-0.39-0.07-0.76-0.13-1.12c-0.06-0.35-0.15-0.7-0.29-1.05
		c0.42-0.1,0.87-0.2,1.34-0.32c0.47-0.11,0.95-0.25,1.44-0.4V6.17z M57.74,3.05c0.73,0,1.38-0.01,1.96-0.03
		c0.58-0.02,1.08-0.07,1.52-0.14v1.73c-0.87-0.13-2.03-0.19-3.48-0.19v2.36h-1.47V4.42h-3.01v2.36h-1.47V4.44
		c-0.56,0.01-1.07,0.03-1.53,0.05c-0.46,0.02-0.87,0.06-1.23,0.12V2.89c0.38,0.06,0.8,0.09,1.25,0.12c0.46,0.02,0.96,0.04,1.51,0.05
		c-0.01-0.76-0.04-1.37-0.06-1.83c-0.03-0.46-0.06-0.84-0.11-1.12c0.28,0.03,0.58,0.06,0.91,0.08c0.32,0.03,0.62,0.04,0.88,0.04
		c0.13,0,0.2,0.03,0.22,0.09c0.02,0.06-0.02,0.13-0.14,0.2c-0.1,0.06-0.16,0.11-0.19,0.17c-0.03,0.06-0.04,0.15-0.04,0.27v2.09h3.01
		c-0.01-0.84-0.03-1.49-0.05-1.95C56.19,0.65,56.16,0.28,56.1,0c0.28,0.03,0.58,0.06,0.91,0.08c0.32,0.03,0.62,0.04,0.88,0.04
		c0.15,0,0.23,0.04,0.24,0.11c0.01,0.07-0.05,0.14-0.16,0.21c-0.1,0.06-0.16,0.11-0.19,0.16c-0.03,0.05-0.04,0.14-0.04,0.26V3.05z
		 M51.19,19.28h-1.71c0.04-0.44,0.08-0.82,0.11-1.16c0.03-0.34,0.05-0.65,0.06-0.94c0.01-0.29,0.02-0.57,0.03-0.83
		c0.01-0.27,0.01-0.56,0.01-0.88v-5.14c0-0.55-0.01-1.05-0.04-1.51c-0.03-0.46-0.06-0.83-0.11-1.11c0.25,0.03,0.56,0.05,0.92,0.07
		c0.36,0.02,0.76,0.04,1.2,0.06c0.44,0.02,0.92,0.04,1.43,0.04c0.51,0.01,1.04,0.01,1.57,0.01c1.04,0,2.04-0.02,3.01-0.05
		c0.97-0.03,1.75-0.08,2.34-0.14c-0.03,0.24-0.05,0.58-0.07,1.01s-0.03,0.89-0.03,1.37v5.18c0,0.49,0.01,1.05,0.03,1.66
		c0.02,0.62,0.07,1.26,0.14,1.94h-1.66v-0.99h-7.23V19.28z M51.19,9.25v2.99h2.91V9.25H51.19z M51.19,16.54h2.91v-2.99h-2.91V16.54z
		 M58.42,9.25h-2.84v2.99h2.84V9.25z M58.42,13.55h-2.84v2.99h2.84V13.55z"/>
	<path class="st0" d="M75.68,16.45c-1.22,0.73-2.57,1.1-4.04,1.1c-2.33,0-4.29-0.78-5.87-2.33c-1.58-1.55-2.37-3.45-2.37-5.7
		c0-2.3,0.77-4.24,2.3-5.8c1.53-1.57,3.47-2.35,5.81-2.35c1.47,0,2.84,0.35,4.09,1.06s2.23,1.69,2.95,2.94
		c0.72,1.25,1.07,2.61,1.07,4.09c0,2.3-0.84,4.28-2.53,5.94l2.34,2.97h-2.25L75.68,16.45z M75.96,13.98
		c1.21-1.22,1.81-2.72,1.81-4.51c0-1.78-0.62-3.29-1.85-4.51c-1.24-1.22-2.71-1.83-4.42-1.83c-1.71,0-3.18,0.62-4.39,1.85
		c-1.22,1.24-1.82,2.75-1.82,4.54s0.61,3.28,1.84,4.46c1.23,1.18,2.69,1.77,4.39,1.77c1.1,0,2.11-0.25,3.05-0.76l-3.46-4.36h2.19
		L75.96,13.98z"/>
	<path class="st0" d="M93.17,17.16h-2.27l-5.43-7.04h-0.63v7.04h-1.81V1.74h3.16c1.69,0,2.84,0.07,3.48,0.22
		c0.63,0.15,1.18,0.4,1.64,0.75c0.46,0.35,0.83,0.8,1.1,1.36c0.27,0.56,0.4,1.17,0.4,1.84c0,1.28-0.44,2.3-1.31,3.07
		c-0.87,0.77-2.13,1.15-3.77,1.15L93.17,17.16z M84.82,8.36h2.46c1.24,0.01,2.15-0.17,2.74-0.56c0.59-0.39,0.88-1,0.88-1.85
		s-0.29-1.47-0.86-1.85c-0.58-0.39-1.47-0.58-2.7-0.58h-2.53V8.36z"/>
	<path class="st0" d="M112.82,14.83c-0.6,0.88-1.39,1.56-2.37,2.02c-0.98,0.46-2.03,0.7-3.17,0.7c-1.77,0-3.25-0.58-4.43-1.75
		c-1.19-1.17-1.78-2.59-1.78-4.28c0-1.69,0.6-3.13,1.79-4.33c1.19-1.2,2.74-1.8,4.63-1.8c1.12,0,2.16,0.25,3.11,0.74
		c0.95,0.49,1.69,1.18,2.22,2.06l-1.37,0.86c-1.03-1.33-2.37-2-4.02-2c-1.31,0-2.4,0.42-3.29,1.25c-0.88,0.84-1.33,1.87-1.33,3.11
		c0,1.24,0.44,2.3,1.31,3.18c0.87,0.88,1.97,1.33,3.31,1.33c1.6,0,2.95-0.67,4.04-2.02L112.82,14.83z"/>
	<path class="st0" d="M120.77,5.39c1.66,0,3.07,0.6,4.22,1.79c1.16,1.19,1.74,2.63,1.74,4.3s-0.57,3.1-1.72,4.29
		c-1.15,1.19-2.56,1.78-4.24,1.78c-1.69,0-3.1-0.59-4.26-1.78c-1.15-1.19-1.73-2.61-1.73-4.29s0.58-3.1,1.74-4.3
		C117.69,5.99,119.1,5.39,120.77,5.39z M120.77,15.88c1.17,0,2.16-0.43,2.98-1.27c0.82-0.85,1.23-1.88,1.23-3.08
		c0-1.2-0.42-2.24-1.25-3.12c-0.84-0.88-1.83-1.32-2.97-1.32c-1.14,0-2.13,0.44-2.96,1.32c-0.83,0.88-1.24,1.92-1.24,3.13
		s0.4,2.23,1.2,3.08C118.56,15.46,119.57,15.88,120.77,15.88z"/>
	<path class="st0" d="M140.96,17.16h-1.71v-1.69c-1.25,1.38-2.69,2.06-4.33,2.06c-1.64,0-3.03-0.6-4.18-1.79
		c-1.15-1.19-1.73-2.63-1.73-4.3c0-1.67,0.58-3.1,1.75-4.29c1.17-1.19,2.59-1.78,4.27-1.78s3.09,0.68,4.22,2.04V1.37h1.71V17.16z
		 M135.06,15.92c1.11,0,2.1-0.41,2.97-1.24c0.87-0.83,1.31-1.88,1.31-3.15c0-1.27-0.4-2.33-1.21-3.18
		c-0.81-0.85-1.83-1.27-3.05-1.27c-1.23,0-2.25,0.44-3.08,1.32c-0.82,0.88-1.23,1.91-1.23,3.1s0.42,2.22,1.26,3.11
		C132.87,15.48,133.89,15.92,135.06,15.92z"/>
	<path class="st0" d="M155.74,11.73h-10.07c0.07,1.26,0.49,2.28,1.27,3.04c0.78,0.77,1.71,1.15,2.79,1.15
		c1.84,0,3.24-0.91,4.21-2.72l1.47,0.76c-0.66,1.22-1.44,2.12-2.34,2.71c-0.9,0.58-1.97,0.87-3.22,0.87c-1.73,0-3.15-0.59-4.28-1.78
		c-1.12-1.19-1.69-2.61-1.69-4.29s0.56-3.1,1.7-4.3c1.13-1.19,2.53-1.79,4.2-1.79c1.67,0,3.07,0.57,4.19,1.7
		C155.12,8.22,155.7,9.76,155.74,11.73z M153.81,10.19c-0.21-0.98-0.69-1.75-1.43-2.3c-0.74-0.55-1.6-0.82-2.57-0.82
		c-1.97,0-3.27,1.04-3.92,3.12H153.81z"/>
	<path class="st0" d="M160.9,14.37c0.65-0.48,1.29-1,1.93-1.56s1.32-1.2,2.05-1.92c0.04,0.2,0.08,0.36,0.11,0.49
		c0.03,0.13,0.07,0.27,0.13,0.4c0.06,0.13,0.12,0.28,0.2,0.43c0.08,0.15,0.18,0.34,0.31,0.57l-4.38,3.54
		c-0.16,0.13-0.32,0.27-0.51,0.43c-0.18,0.16-0.36,0.32-0.53,0.48c-0.17,0.16-0.33,0.32-0.47,0.48c-0.15,0.16-0.27,0.31-0.37,0.43
		c-0.28-0.52-0.53-0.93-0.74-1.23s-0.43-0.57-0.65-0.81c0.2-0.08,0.39-0.18,0.58-0.27c0.19-0.1,0.38-0.2,0.58-0.32V4.3
		c0-0.62-0.01-1.13-0.02-1.54c-0.01-0.41-0.04-0.73-0.06-0.97c0.69,0.25,1.37,0.38,2.04,0.38c0.28,0,0.44,0.06,0.48,0.17
		c0.04,0.11-0.05,0.22-0.27,0.34c-0.15,0.07-0.26,0.16-0.32,0.27c-0.06,0.11-0.08,0.22-0.08,0.32V14.37z M170.89,14.43
		c-0.32,0.48-0.69,0.93-1.1,1.36c-0.41,0.43-0.89,0.85-1.46,1.26c-0.57,0.41-1.23,0.82-1.97,1.22c-0.74,0.4-1.61,0.8-2.59,1.21
		c-0.15-0.35-0.37-0.7-0.65-1.03c-0.28-0.34-0.6-0.62-0.97-0.84c0.98-0.13,1.93-0.38,2.84-0.75c0.91-0.37,1.75-0.84,2.5-1.4
		c0.75-0.56,1.39-1.21,1.92-1.94c0.53-0.73,0.91-1.53,1.15-2.4c0.22-0.79,0.41-1.52,0.55-2.19c0.14-0.67,0.25-1.38,0.33-2.12
		c0.08-0.74,0.13-1.56,0.16-2.46c0.03-0.91,0.04-1.99,0.04-3.25c0.36,0.11,0.79,0.22,1.26,0.33c0.48,0.1,0.88,0.18,1.22,0.22
		c0.17,0.03,0.26,0.07,0.28,0.14s-0.04,0.18-0.18,0.35c-0.07,0.07-0.13,0.15-0.19,0.24c-0.06,0.09-0.1,0.21-0.15,0.37
		c-0.04,0.15-0.08,0.35-0.13,0.59c-0.04,0.24-0.08,0.55-0.13,0.93c-0.14,1.18-0.28,2.21-0.42,3.09c-0.14,0.88-0.28,1.66-0.43,2.34
		s-0.31,1.28-0.47,1.79c-0.17,0.51-0.35,0.99-0.55,1.42c0.31,0.28,0.65,0.59,1.01,0.94c0.36,0.34,0.74,0.7,1.13,1.06
		c0.39,0.37,0.78,0.73,1.17,1.1c0.39,0.37,0.77,0.72,1.14,1.05l-1.92,1.58c-0.38-0.63-0.86-1.31-1.44-2.04
		C172.25,15.85,171.61,15.13,170.89,14.43z M167.14,8.36c-0.35-0.51-0.67-0.95-0.95-1.34c-0.28-0.39-0.56-0.74-0.82-1.07
		c-0.27-0.33-0.54-0.65-0.82-0.95c-0.28-0.3-0.59-0.61-0.93-0.94l1.52-1.2c0.56,0.59,1.13,1.21,1.71,1.85
		c0.58,0.65,1.25,1.42,2.02,2.32L167.14,8.36z"/>
	<path class="st0" d="M182.21,19.15h-1.94c0.07-0.59,0.12-1.15,0.15-1.67c0.03-0.53,0.04-1.1,0.04-1.72v-4.74
		c-0.31,0.35-0.62,0.7-0.94,1.03c-0.32,0.34-0.62,0.67-0.92,0.99c-0.24-0.55-0.65-1.07-1.22-1.58c0.58-0.44,1.16-0.96,1.76-1.57
		c0.6-0.61,1.12-1.25,1.57-1.91c0.39-0.58,0.73-1.09,1.01-1.55c0.28-0.46,0.53-0.91,0.74-1.36c0.13,0.1,0.27,0.2,0.42,0.32
		c0.15,0.11,0.31,0.22,0.47,0.33c0.16,0.11,0.32,0.2,0.47,0.3c0.15,0.09,0.29,0.17,0.4,0.22c0.18,0.1,0.27,0.19,0.26,0.26
		c-0.01,0.08-0.11,0.14-0.31,0.18c-0.08,0.03-0.31,0.21-0.66,0.56c-0.36,0.34-0.8,0.87-1.32,1.59V19.15z M183.83,1.41
		c0.2,0.08,0.29,0.17,0.27,0.25c-0.01,0.08-0.12,0.15-0.32,0.19c-0.07,0.01-0.16,0.05-0.25,0.1c-0.1,0.06-0.22,0.15-0.37,0.27
		s-0.32,0.3-0.53,0.53c-0.2,0.22-0.45,0.51-0.73,0.84c-0.13,0.15-0.3,0.35-0.53,0.59c-0.22,0.24-0.47,0.49-0.74,0.76
		c-0.27,0.27-0.54,0.53-0.82,0.79c-0.28,0.26-0.53,0.49-0.74,0.69c-0.15-0.24-0.35-0.46-0.58-0.66c-0.23-0.2-0.47-0.38-0.71-0.52
		c0.53-0.36,1.01-0.77,1.44-1.22c0.43-0.45,0.85-0.95,1.25-1.52c0.36-0.46,0.66-0.88,0.9-1.26c0.23-0.38,0.42-0.73,0.58-1.05
		c0.13,0.11,0.27,0.23,0.43,0.35c0.16,0.12,0.33,0.23,0.5,0.35c0.18,0.11,0.34,0.22,0.51,0.32C183.58,1.3,183.72,1.37,183.83,1.41z
		 M192.7,16.83c0,0.41-0.05,0.75-0.14,1.03c-0.09,0.28-0.28,0.51-0.58,0.7c-0.29,0.18-0.71,0.32-1.25,0.41
		c-0.54,0.09-1.26,0.16-2.16,0.2c-0.03-0.34-0.12-0.67-0.27-1.01s-0.39-0.74-0.72-1.2c0.67,0.08,1.23,0.12,1.65,0.12
		c0.43-0.01,0.76-0.05,1-0.13s0.4-0.18,0.5-0.32c0.09-0.13,0.14-0.28,0.14-0.45V8.78c-1.33,0-2.45,0.02-3.35,0.05
		c-0.9,0.04-1.7,0.08-2.4,0.14V7.04c0.35,0.03,0.73,0.05,1.13,0.07c0.4,0.02,0.83,0.04,1.3,0.05s0.97,0.02,1.53,0.03
		c0.56,0.01,1.16,0.01,1.82,0.01c0.66,0,1.25,0,1.78-0.01c0.53-0.01,1.01-0.02,1.44-0.03s0.84-0.03,1.21-0.05
		c0.37-0.02,0.74-0.05,1.11-0.07v1.94c-0.55-0.06-1.11-0.09-1.69-0.12c-0.58-0.02-1.26-0.04-2.04-0.05V16.83z M195.08,3.56
		c-0.53-0.07-1.15-0.12-1.85-0.15c-0.7-0.03-1.54-0.04-2.51-0.04c-0.97,0-1.81,0.01-2.52,0.04c-0.71,0.03-1.33,0.08-1.86,0.15V1.62
		c0.53,0.07,1.16,0.12,1.86,0.14c0.71,0.02,1.55,0.03,2.52,0.03c0.97,0,1.8-0.01,2.51-0.03c0.7-0.02,1.32-0.07,1.85-0.14V3.56z"/>
	<path class="st0" d="M204.72,16.07c0.8-0.06,1.53-0.12,2.19-0.19c0.66-0.07,1.19-0.15,1.6-0.23c-0.08,0.42-0.11,0.84-0.06,1.26
		c-0.98,0.1-1.96,0.19-2.92,0.27c-0.96,0.08-1.84,0.18-2.62,0.27c-0.79,0.1-1.42,0.18-1.91,0.24c-0.48,0.06-0.87,0.12-1.16,0.16
		c-0.29,0.04-0.51,0.08-0.65,0.13c-0.15,0.04-0.28,0.09-0.41,0.15c-0.07-0.6-0.25-1.22-0.53-1.85c0.59,0.03,1.33,0.03,2.22,0.01
		c0.89-0.02,1.82-0.07,2.79-0.14v-1.26c-0.51,0-0.96,0-1.35,0.01c-0.39,0.01-0.75,0.01-1.07,0.02c-0.32,0.01-0.63,0.02-0.92,0.04
		c-0.29,0.02-0.58,0.05-0.87,0.07v-1.52c0.31,0.03,0.61,0.05,0.9,0.07c0.29,0.02,0.6,0.04,0.93,0.04c0.33,0.01,0.69,0.01,1.07,0.02
		c0.39,0.01,0.83,0.01,1.32,0.01v-1.12c-0.59,0-1.08,0-1.47,0.01c-0.39,0.01-0.72,0.01-0.99,0.02c-0.27,0.01-0.49,0.02-0.66,0.03
		c-0.18,0.01-0.33,0.03-0.47,0.04c0.01-0.1,0.02-0.23,0.03-0.39c0.01-0.16,0.01-0.34,0.02-0.54c0.01-0.2,0.01-0.4,0.02-0.61
		c0.01-0.21,0.01-0.42,0.01-0.63V8.53c0-0.41-0.01-0.82-0.02-1.24c-0.01-0.42-0.04-0.73-0.06-0.93c0.31,0.03,0.77,0.05,1.38,0.07
		c0.61,0.02,1.35,0.04,2.22,0.05V5.5c-0.56,0-1.07,0-1.52,0.01c-0.45,0.01-0.86,0.01-1.24,0.02c-0.38,0.01-0.73,0.02-1.05,0.04
		c-0.32,0.02-0.64,0.05-0.95,0.07V4.13c0.31,0.03,0.63,0.05,0.96,0.07c0.33,0.02,0.68,0.04,1.06,0.04c0.38,0.01,0.79,0.01,1.23,0.02
		c0.44,0.01,0.94,0.01,1.51,0.01V3.05c-0.74,0.07-1.46,0.12-2.14,0.16c-0.68,0.04-1.22,0.06-1.61,0.07
		c-0.03-0.25-0.08-0.47-0.16-0.65c-0.08-0.18-0.23-0.44-0.45-0.78c0.63,0.07,1.34,0.1,2.12,0.08c0.78-0.01,1.65-0.07,2.62-0.17
		c0.51-0.06,0.95-0.11,1.34-0.16c0.39-0.05,0.73-0.1,1.04-0.16c0.31-0.06,0.59-0.12,0.85-0.19c0.26-0.07,0.52-0.15,0.79-0.25
		c0.17,0.28,0.32,0.51,0.45,0.7c0.13,0.18,0.32,0.41,0.56,0.7c0.11,0.15,0.15,0.26,0.1,0.32c-0.04,0.06-0.15,0.07-0.32,0.04
		c-0.14-0.03-0.36-0.04-0.65-0.04s-0.69,0.02-1.18,0.06c-0.32,0.03-0.64,0.06-0.94,0.08c-0.3,0.03-0.63,0.06-0.98,0.08v1.33
		c0.87-0.01,1.6-0.03,2.2-0.05c0.6-0.02,1.16-0.05,1.7-0.09v1.52c-0.53-0.04-1.1-0.07-1.7-0.09s-1.33-0.04-2.2-0.05v0.99
		c0.9,0,1.66-0.01,2.3-0.03c0.63-0.02,1.11-0.05,1.43-0.09c-0.01,0.1-0.02,0.23-0.03,0.39c-0.01,0.16-0.01,0.34-0.02,0.54
		c-0.01,0.2-0.01,0.4-0.02,0.61c-0.01,0.21-0.01,0.42-0.01,0.63v1.96c0,0.21,0,0.42,0.01,0.63c0.01,0.21,0.01,0.41,0.02,0.61
		c0.01,0.2,0.01,0.38,0.02,0.54c0.01,0.16,0.02,0.29,0.03,0.39c-0.32-0.03-0.8-0.05-1.43-0.07c-0.63-0.02-1.4-0.03-2.3-0.03v1.12
		c0.45,0,0.85-0.01,1.19-0.02c0.34-0.01,0.66-0.02,0.96-0.03c0.29-0.01,0.58-0.02,0.84-0.03c0.27-0.01,0.54-0.03,0.82-0.06v1.52
		c-0.28-0.01-0.56-0.03-0.82-0.05s-0.55-0.04-0.84-0.04c-0.3-0.01-0.61-0.02-0.96-0.03c-0.34-0.01-0.74-0.02-1.19-0.02V16.07z
		 M203.27,7.71h-2.09v1.31h2.09V7.71z M203.27,10.11h-2.09v1.28h2.09V10.11z M204.72,9.02h2.17V7.71h-2.17V9.02z M204.72,11.4h2.17
		v-1.28h-2.17V11.4z M212.68,5.08c0.62,0,1.12,0,1.51,0c0.39,0,0.71-0.01,0.97-0.02c0.26-0.01,0.48-0.03,0.65-0.04
		c0.18-0.01,0.35-0.04,0.54-0.06l-0.46,11.21c-0.01,0.46-0.06,0.85-0.13,1.15c-0.07,0.3-0.22,0.55-0.45,0.76s-0.56,0.37-0.99,0.5
		c-0.43,0.13-1.01,0.25-1.74,0.36c-0.03-0.37-0.11-0.7-0.23-1.01c-0.13-0.31-0.31-0.62-0.55-0.95c0.58,0.04,1.03,0.05,1.37,0.03
		c0.34-0.02,0.59-0.08,0.77-0.19c0.18-0.1,0.29-0.26,0.35-0.45c0.06-0.2,0.09-0.45,0.1-0.76l0.32-9.14h-2.09
		c-0.07,1.45-0.14,2.65-0.21,3.62c-0.07,0.97-0.14,1.62-0.21,1.94c-0.18,0.98-0.35,1.82-0.52,2.51c-0.16,0.69-0.38,1.31-0.64,1.87
		c-0.27,0.56-0.62,1.1-1.05,1.6c-0.44,0.51-1.01,1.06-1.73,1.66c-0.22-0.28-0.47-0.52-0.73-0.71c-0.26-0.19-0.59-0.37-0.98-0.54
		c0.7-0.32,1.28-0.68,1.75-1.07c0.46-0.39,0.85-0.84,1.15-1.33c0.3-0.49,0.54-1.04,0.73-1.65c0.18-0.61,0.34-1.3,0.48-2.05
		c0.06-0.3,0.11-0.61,0.16-0.95c0.05-0.34,0.09-0.73,0.13-1.19c0.04-0.46,0.07-0.99,0.09-1.59c0.03-0.6,0.06-1.31,0.08-2.13
		c-0.45,0.01-0.82,0.03-1.11,0.05c-0.29,0.02-0.59,0.05-0.9,0.09V4.95c0.28,0.04,0.57,0.07,0.85,0.08c0.29,0.01,0.68,0.03,1.17,0.04
		c0.01-0.88,0.02-1.61,0.01-2.18c-0.01-0.57-0.01-1.02-0.02-1.37c-0.01-0.34-0.02-0.6-0.04-0.78c-0.02-0.18-0.05-0.33-0.07-0.45
		c0.32,0.07,0.65,0.12,0.97,0.16c0.32,0.04,0.67,0.06,1.03,0.07c0.17,0,0.27,0.04,0.3,0.11c0.03,0.07-0.03,0.16-0.17,0.27
		c-0.11,0.1-0.2,0.32-0.27,0.67c-0.07,0.35-0.11,0.86-0.13,1.54C212.72,3.79,212.7,4.44,212.68,5.08z"/>
	<path class="st0" d="M225.64,16.96c0.9-0.31,1.69-0.61,2.38-0.9c0.69-0.29,1.21-0.54,1.56-0.77c-0.03,0.45-0.02,0.78,0.03,0.98
		c0.05,0.2,0.14,0.4,0.26,0.6l-3.6,1.47c-0.28,0.11-0.53,0.22-0.74,0.32c-0.21,0.1-0.4,0.19-0.56,0.27
		c-0.16,0.08-0.3,0.17-0.42,0.25c-0.12,0.08-0.24,0.17-0.35,0.25c-0.11-0.32-0.25-0.62-0.42-0.88c-0.17-0.27-0.39-0.55-0.67-0.84
		c0.13-0.03,0.27-0.07,0.44-0.12c0.17-0.05,0.34-0.1,0.53-0.16v-2c-0.53,0.28-1.11,0.58-1.74,0.88c-0.62,0.31-1.32,0.62-2.07,0.95
		c-0.13-0.32-0.27-0.6-0.42-0.82c-0.16-0.22-0.41-0.49-0.78-0.8c0.7-0.1,1.4-0.26,2.1-0.49c0.7-0.23,1.36-0.51,1.99-0.82
		c0.63-0.32,1.22-0.66,1.77-1.03c0.55-0.37,1.03-0.75,1.45-1.13c-0.58,0-1.18,0-1.82,0.01c-0.64,0.01-1.26,0.02-1.88,0.04
		c-0.61,0.02-1.18,0.04-1.72,0.06c-0.53,0.02-0.98,0.05-1.33,0.07v-1.73c0.72,0.07,1.82,0.13,3.32,0.18
		c1.5,0.05,3.27,0.07,5.32,0.07c-0.11-0.21-0.22-0.4-0.33-0.58c-0.11-0.18-0.24-0.37-0.39-0.58l1.79-0.63
		c0.13,0.3,0.26,0.59,0.41,0.87c0.15,0.29,0.31,0.59,0.47,0.92c0.56,0,1.21-0.01,1.94-0.03c0.73-0.02,1.44-0.04,2.13-0.06
		c0.69-0.02,1.31-0.05,1.87-0.07c0.56-0.03,0.97-0.06,1.22-0.08v1.73c-0.27-0.01-0.69-0.03-1.25-0.06
		c-0.57-0.03-1.22-0.05-1.96-0.06s-1.52-0.03-2.34-0.04c-0.82-0.01-1.61-0.02-2.37-0.02c0.32,0.41,0.7,0.82,1.13,1.24
		c0.43,0.42,0.86,0.79,1.3,1.1c0.32-0.32,0.66-0.67,1-1.05c0.34-0.38,0.63-0.75,0.87-1.12c0.28,0.2,0.55,0.36,0.81,0.5
		s0.53,0.26,0.81,0.37c0.22,0.08,0.33,0.18,0.33,0.3c-0.01,0.11-0.14,0.18-0.41,0.19c-0.09,0-0.18,0.02-0.27,0.05
		c-0.1,0.04-0.22,0.11-0.38,0.22c-0.15,0.11-0.34,0.28-0.57,0.49c-0.22,0.22-0.5,0.5-0.84,0.85c0.48,0.25,0.92,0.46,1.32,0.62
		c0.4,0.16,0.78,0.29,1.14,0.38c0.36,0.09,0.71,0.16,1.06,0.2c0.35,0.04,0.73,0.07,1.14,0.08c-0.15,0.21-0.28,0.39-0.37,0.54
		c-0.09,0.15-0.17,0.3-0.23,0.44c-0.06,0.15-0.12,0.3-0.16,0.45c-0.04,0.15-0.08,0.34-0.13,0.57c-1.33-0.41-2.51-0.85-3.52-1.33
		c-1.01-0.48-1.85-0.98-2.51-1.52c-0.21-0.17-0.44-0.38-0.7-0.62c-0.25-0.25-0.51-0.52-0.76-0.81c-0.25-0.3-0.5-0.6-0.75-0.92
		s-0.47-0.63-0.69-0.94c-0.34,0.35-0.71,0.69-1.11,1.02c-0.4,0.33-0.85,0.66-1.36,1V16.96z M223.03,6.91
		c-0.04,0.72-0.18,1.36-0.41,1.94c-0.23,0.58-0.6,1.11-1.11,1.6c-0.28-0.18-0.56-0.33-0.82-0.44c-0.27-0.11-0.62-0.24-1.07-0.38
		c0.72-0.34,1.21-0.7,1.5-1.1c0.28-0.39,0.41-0.93,0.4-1.62c-0.49,0-0.91,0.01-1.25,0.02s-0.62,0.04-0.83,0.06V5.48
		c0.56,0.11,1.43,0.17,2.59,0.17h3.52V4.32h-2.61c-0.48,0-0.9,0.01-1.26,0.02c-0.37,0.01-0.67,0.04-0.91,0.06
		c0.07-0.17,0.12-0.34,0.14-0.52c0.02-0.18,0.03-0.4,0.03-0.69V2.3c0-0.24-0.03-0.52-0.07-0.83c-0.05-0.32-0.11-0.56-0.18-0.73
		c0.45,0.07,0.8,0.11,1.06,0.12c0.26,0.01,0.51,0,0.75-0.03c0.21-0.03,0.34,0.01,0.38,0.11c0.04,0.1,0,0.19-0.13,0.27
		c-0.18,0.13-0.27,0.3-0.27,0.53v1.28h3.08c0-0.72-0.01-1.3-0.04-1.76c-0.03-0.46-0.07-0.82-0.13-1.09
		c0.28,0.06,0.55,0.08,0.82,0.08c0.27,0,0.6-0.02,1.01-0.06c0.13-0.01,0.2,0.03,0.23,0.13c0.03,0.1-0.04,0.19-0.19,0.27
		c-0.1,0.06-0.15,0.18-0.15,0.38v5.81c0,0.6,0.01,1.19,0.03,1.76c0.02,0.57,0.06,1.07,0.12,1.51h-1.92
		c0.07-0.42,0.12-0.91,0.16-1.45c0.04-0.55,0.05-1.11,0.05-1.69H223.03z M231.54,3.94c-0.62,0-1.26,0.02-1.92,0.06
		c-0.66,0.04-1.23,0.1-1.71,0.17V2.42c0.24,0.03,0.51,0.06,0.82,0.08c0.31,0.03,0.63,0.05,0.96,0.07c0.33,0.02,0.65,0.04,0.97,0.05
		c0.32,0.01,0.61,0.02,0.87,0.02c0-0.73-0.01-1.27-0.02-1.61c-0.01-0.34-0.04-0.62-0.08-0.83c0.31,0.04,0.61,0.06,0.91,0.06
		c0.29,0,0.62-0.01,0.99-0.04c0.15-0.01,0.24,0.01,0.26,0.08c0.02,0.07-0.04,0.16-0.18,0.27c-0.08,0.06-0.15,0.17-0.2,0.35
		c-0.05,0.18-0.07,0.38-0.07,0.62v1.1c0.74,0,1.47-0.02,2.17-0.06c0.7-0.04,1.31-0.1,1.81-0.17v1.75c-0.25-0.03-0.54-0.06-0.86-0.08
		c-0.32-0.03-0.66-0.05-1.02-0.07c-0.36-0.02-0.72-0.04-1.07-0.05c-0.36-0.01-0.7-0.02-1.02-0.02v3.08c0.59,0,1.22-0.02,1.9-0.06
		c0.67-0.04,1.24-0.1,1.71-0.17v1.77c-0.52-0.07-1.1-0.13-1.75-0.17s-1.45-0.06-2.42-0.06c-0.97,0-1.77,0.02-2.41,0.06
		c-0.64,0.04-1.21,0.1-1.72,0.17V6.78c0.21,0.03,0.45,0.06,0.72,0.08c0.27,0.03,0.54,0.05,0.82,0.07c0.28,0.02,0.55,0.04,0.82,0.05
		c0.27,0.01,0.51,0.02,0.74,0.02V3.94z"/>
	<path class="st0" d="M243.67,11c0-0.55-0.01-1.01-0.02-1.4c-0.01-0.39-0.04-0.72-0.06-1c0.15,0.01,0.4,0.03,0.75,0.04
		c0.34,0.01,0.75,0.03,1.22,0.03c0.47,0.01,0.98,0.01,1.54,0.01c0.56,0,1.13,0,1.72,0l0.13-1.1c-1.7,0-3.23,0.01-4.59,0.04
		c-1.36,0.03-2.52,0.08-3.48,0.15v-1.5c0.97,0.06,2.14,0.1,3.52,0.14c1.38,0.04,2.93,0.06,4.68,0.07l0.13-1.37
		c-1.31,0.01-2.54,0.03-3.71,0.05c-1.17,0.02-2.28,0.06-3.33,0.12c0.03-0.35,0.05-0.72,0.06-1.12c0.01-0.39,0.02-0.78,0.02-1.15
		s-0.01-0.73-0.02-1.07c-0.01-0.34-0.04-0.66-0.06-0.94c1.15,0.06,2.38,0.1,3.69,0.13c1.31,0.03,2.69,0.04,4.15,0.04
		c1.46,0,2.84-0.01,4.15-0.04c1.31-0.03,2.54-0.07,3.71-0.13c-0.04,0.27-0.07,0.59-0.09,0.97c-0.02,0.38-0.03,0.77-0.03,1.17
		c0,0.4,0.01,0.79,0.03,1.17c0.02,0.38,0.05,0.7,0.09,0.97c-1.07-0.06-2.19-0.1-3.38-0.13c-1.19-0.03-2.44-0.04-3.76-0.04
		l-0.13,1.37c1.73-0.01,3.28-0.04,4.66-0.07c1.38-0.03,2.54-0.08,3.5-0.14v1.5c-0.97-0.06-2.15-0.1-3.54-0.14
		c-1.39-0.03-2.96-0.05-4.72-0.05l-0.13,1.1c0.63,0,1.26,0,1.88,0s1.18,0,1.7-0.01c0.51-0.01,0.96-0.02,1.35-0.03
		c0.39-0.01,0.66-0.03,0.83-0.04c-0.04,0.24-0.07,0.56-0.08,0.97C256,9.97,256,10.45,256,11v6.17c0.53-0.01,1.05-0.04,1.54-0.06
		c0.49-0.03,1-0.06,1.54-0.1v1.64c-0.37-0.03-0.75-0.05-1.15-0.07c-0.4-0.02-0.93-0.04-1.6-0.05c-0.67-0.01-1.52-0.02-2.57-0.03
		c-1.05-0.01-2.39-0.01-4.03-0.01c-1.66,0-3.01,0-4.06,0.01c-1.05,0.01-1.9,0.02-2.57,0.03c-0.67,0.01-1.2,0.03-1.6,0.05
		c-0.4,0.02-0.78,0.05-1.15,0.07V17c0.59,0.06,1.14,0.09,1.66,0.12c0.52,0.02,1.07,0.04,1.66,0.05V11z M246.87,2.4h-2.99v1.56h2.99
		V2.4z M254.39,9.86h-9.12v1.03h9.12V9.86z M254.39,11.9h-9.12v1.03h9.12V11.9z M254.39,13.97h-9.12V15h9.12V13.97z M245.27,17.17
		h9.12v-1.14h-9.12V17.17z M251.51,2.4h-3.22v1.56h3.22V2.4z M256.04,2.4h-3.12v1.56h3.12V2.4z"/>
	<path class="st0" d="M265.48,12.22c-0.07,0.17-0.13,0.32-0.19,0.46c-0.06,0.14-0.12,0.31-0.19,0.5c-0.07,0.19-0.15,0.42-0.24,0.68
		c-0.09,0.27-0.21,0.6-0.35,1.01c-0.18,0.52-0.38,1.12-0.58,1.81c-0.2,0.69-0.38,1.33-0.52,1.92c-0.37-0.24-0.68-0.43-0.95-0.56
		c-0.27-0.13-0.57-0.26-0.91-0.37c0.17-0.3,0.32-0.57,0.46-0.83c0.14-0.26,0.27-0.53,0.4-0.8c0.13-0.27,0.25-0.57,0.38-0.87
		c0.13-0.31,0.26-0.67,0.4-1.07c0.15-0.42,0.3-0.89,0.43-1.41c0.13-0.52,0.24-1.05,0.33-1.58c0.24,0.37,0.47,0.62,0.69,0.77
		C264.87,12.02,265.14,12.13,265.48,12.22z M264.89,9.5c-0.48-0.41-0.95-0.77-1.42-1.08c-0.47-0.32-1.01-0.64-1.63-0.96l0.78-1.24
		c0.32,0.15,0.62,0.31,0.91,0.45c0.28,0.15,0.55,0.29,0.8,0.44c0.25,0.15,0.51,0.3,0.77,0.45c0.26,0.16,0.53,0.32,0.81,0.51
		L264.89,9.5z M269,4.68c-0.08-0.14-0.17-0.27-0.26-0.39c-0.09-0.12-0.18-0.23-0.26-0.35l1.05-0.67c0.32,0.38,0.61,0.74,0.85,1.08
		c0.25,0.34,0.47,0.7,0.69,1.06c0.14-0.31,0.25-0.65,0.33-1.03c0.08-0.38,0.14-0.91,0.2-1.58c-0.2,0-0.38,0.01-0.54,0.02
		c-0.16,0.01-0.29,0.03-0.39,0.04V1.52c0.2,0.03,0.45,0.05,0.76,0.06c0.31,0.01,0.77,0.02,1.39,0.02c0.36,0,0.67,0,0.93,0
		c0.25,0,0.47,0,0.64-0.01c0.18-0.01,0.33-0.02,0.45-0.03c0.13-0.01,0.25-0.03,0.38-0.04c-0.07,0.48-0.12,1.03-0.15,1.66
		c-0.03,0.63-0.06,1.48-0.08,2.55c0,0.32-0.03,0.59-0.08,0.81c-0.06,0.22-0.16,0.4-0.31,0.55c-0.15,0.15-0.36,0.27-0.63,0.36
		c-0.27,0.09-0.64,0.17-1.09,0.22c-0.01-0.35-0.07-0.66-0.18-0.92c-0.1-0.26-0.26-0.53-0.47-0.81c0.58,0.2,0.95,0.25,1.13,0.16
		c0.18-0.09,0.28-0.28,0.31-0.58c0.03-0.25,0.06-0.64,0.09-1.16c0.04-0.52,0.05-1.05,0.03-1.58h-0.93c-0.07,0.91-0.22,1.75-0.44,2.5
		s-0.52,1.39-0.88,1.93l-1.18-0.53c0.13-0.21,0.24-0.4,0.35-0.57c0.11-0.17,0.19-0.33,0.26-0.48l-1.07,0.51
		c-0.04-0.08-0.08-0.17-0.13-0.25c-0.04-0.08-0.09-0.18-0.15-0.27l-2.34,1.5c-0.22,0.15-0.4,0.29-0.52,0.4
		c-0.12,0.11-0.24,0.24-0.35,0.38c-0.17-0.28-0.33-0.5-0.47-0.66c-0.15-0.16-0.36-0.36-0.64-0.6c0.13-0.07,0.25-0.13,0.38-0.18
		c0.13-0.05,0.25-0.11,0.38-0.18V3.35l-0.99,1.35c-0.25-0.32-0.62-0.67-1.1-1.03c-0.48-0.36-0.98-0.69-1.5-0.97l0.95-1.39
		c0.46,0.29,0.92,0.59,1.36,0.87c0.44,0.29,0.87,0.57,1.27,0.85c0-0.52-0.02-0.94-0.06-1.26c0.58-0.06,1.11-0.15,1.61-0.29
		c0.5-0.14,1.06-0.35,1.7-0.63c0.07,0.22,0.15,0.41,0.24,0.55c0.09,0.14,0.25,0.31,0.47,0.51c0.15,0.14,0.22,0.26,0.2,0.35
		c-0.02,0.09-0.13,0.12-0.33,0.1c-0.13-0.01-0.28,0-0.46,0.03c-0.18,0.04-0.35,0.07-0.51,0.12c-0.35,0.11-0.65,0.19-0.88,0.22
		c-0.24,0.04-0.45,0.05-0.63,0.05v2.82c0.34-0.18,0.64-0.35,0.92-0.51C268.59,4.92,268.82,4.79,269,4.68z M271.21,7.37
		c0.84,0.27,1.6,0.52,2.26,0.76c0.67,0.24,1.33,0.49,1.99,0.76l-0.8,1.41c-0.28-0.21-0.58-0.4-0.88-0.58
		c-0.31-0.18-0.65-0.34-1.02-0.51c-0.37-0.16-0.78-0.32-1.21-0.47c-0.44-0.15-0.92-0.32-1.45-0.48c-0.22,0.22-0.47,0.46-0.75,0.7
		c-0.27,0.24-0.57,0.48-0.89,0.74h1.98c0.51,0,0.98-0.01,1.43-0.02c0.45-0.01,0.84-0.03,1.16-0.06v1.41
		c-0.25-0.03-0.53-0.05-0.83-0.07c-0.3-0.02-0.66-0.04-1.06-0.05v1.1c0.72,0,1.34-0.01,1.86-0.03s1.01-0.05,1.46-0.07v1.41
		c-0.45-0.03-0.94-0.05-1.46-0.07c-0.53-0.02-1.15-0.04-1.86-0.05v3.16l1.83-0.23l-1.07-0.38c0.1-0.17,0.18-0.33,0.25-0.47
		c0.07-0.15,0.14-0.31,0.2-0.47c0.06-0.17,0.13-0.35,0.19-0.55c0.06-0.2,0.13-0.42,0.2-0.67l1.71,0.53
		c-0.24,0.32-0.45,0.63-0.62,0.92c-0.18,0.29-0.37,0.65-0.58,1.08l1.56-0.19c-0.1,0.27-0.15,0.52-0.15,0.76
		c0,0.24,0.03,0.5,0.11,0.78c-1.87,0.11-3.53,0.25-4.99,0.4c-1.46,0.15-2.73,0.32-3.81,0.51c-0.03-0.31-0.07-0.6-0.13-0.86
		s-0.15-0.55-0.27-0.84c0.59,0.03,1.24,0.03,1.95,0.01c0.71-0.02,1.45-0.07,2.22-0.16v-3.31c-0.73,0.01-1.36,0.03-1.89,0.05
		c-0.53,0.02-1.01,0.05-1.46,0.07v-1.41c0.45,0.03,0.94,0.05,1.47,0.07c0.53,0.02,1.16,0.03,1.88,0.03v-1.1
		c-0.39,0.01-0.73,0.03-1.02,0.05c-0.29,0.02-0.56,0.05-0.81,0.07v-0.88c-0.37,0.28-0.73,0.54-1.11,0.79
		c-0.37,0.25-0.73,0.47-1.09,0.66c-0.11-0.25-0.25-0.46-0.41-0.62c-0.16-0.16-0.38-0.3-0.64-0.41c0.52-0.22,1-0.46,1.43-0.71
		c0.44-0.25,0.85-0.53,1.24-0.84c0.39-0.32,0.78-0.68,1.17-1.09c0.39-0.41,0.79-0.88,1.21-1.43c0.1,0.08,0.19,0.16,0.26,0.22
		c0.08,0.06,0.16,0.12,0.25,0.17c0.09,0.05,0.2,0.1,0.32,0.15c0.12,0.05,0.27,0.1,0.45,0.16C271.11,7.23,271.18,7.29,271.21,7.37z
		 M267.29,16.49c-0.04-0.49-0.11-0.93-0.21-1.33c-0.1-0.39-0.22-0.72-0.36-0.99l1.56-0.32c0.13,0.38,0.24,0.76,0.34,1.14
		c0.1,0.38,0.19,0.78,0.27,1.2L267.29,16.49z M277.4,3.96c-0.11,0.07-0.17,0.26-0.17,0.57v7.79c0,0.41,0.01,0.82,0.02,1.22
		c0.01,0.41,0.03,0.85,0.06,1.33h-1.56c0.03-0.49,0.05-0.94,0.06-1.34c0.01-0.4,0.02-0.8,0.02-1.21V5.67c0-0.49-0.01-0.92-0.02-1.28
		c-0.01-0.36-0.04-0.68-0.06-0.95c0.32,0.07,0.61,0.12,0.86,0.15c0.25,0.03,0.48,0.04,0.7,0.02c0.15-0.01,0.25,0.02,0.27,0.1
		C277.62,3.79,277.56,3.88,277.4,3.96z M280.06,1.31c-0.08,0.07-0.14,0.15-0.17,0.23c-0.03,0.08-0.04,0.21-0.04,0.38v15.04
		c0,0.36-0.02,0.67-0.07,0.91c-0.05,0.24-0.17,0.43-0.37,0.59c-0.2,0.15-0.49,0.29-0.88,0.41c-0.39,0.12-0.93,0.25-1.6,0.39
		c-0.03-0.18-0.06-0.35-0.08-0.5c-0.03-0.15-0.08-0.29-0.15-0.44c-0.07-0.15-0.17-0.3-0.28-0.46c-0.12-0.16-0.27-0.34-0.45-0.54
		c0.51,0.06,0.92,0.08,1.23,0.08s0.56-0.04,0.73-0.11c0.17-0.07,0.28-0.18,0.34-0.32c0.06-0.14,0.08-0.32,0.08-0.55V4.11
		c0-0.79-0.01-1.46-0.03-2.02c-0.02-0.56-0.05-0.99-0.07-1.28c0.28,0.07,0.54,0.11,0.79,0.13c0.25,0.01,0.54,0.01,0.9-0.02
		c0.18-0.01,0.28,0.02,0.31,0.11C280.24,1.1,280.18,1.19,280.06,1.31z"/>
	<path class="st0" d="M290.72,15.65c-0.17,0.52-0.43,0.98-0.79,1.38c-0.36,0.4-0.83,0.75-1.41,1.04c-0.58,0.3-1.28,0.54-2.1,0.75
		c-0.82,0.2-1.77,0.38-2.87,0.52c0.01-0.28-0.03-0.54-0.14-0.78c-0.11-0.24-0.32-0.51-0.64-0.82c1.66-0.03,3.04-0.21,4.14-0.56
		c1.1-0.34,1.88-0.85,2.33-1.53c-0.51,0-0.96,0-1.37,0.01c-0.41,0.01-0.77,0.01-1.1,0.02c-0.32,0.01-0.62,0.02-0.88,0.03
		c-0.27,0.01-0.53,0.03-0.78,0.04c0.06-0.13,0.1-0.33,0.14-0.62c0.04-0.29,0.05-0.57,0.05-0.85v-3.31c0-0.28-0.02-0.57-0.05-0.85
		c-0.04-0.29-0.08-0.49-0.14-0.62c0.34,0.03,0.69,0.05,1.05,0.05c0.36,0.01,0.8,0.02,1.31,0.03c0.5,0.01,1.1,0.02,1.78,0.02
		c0.68,0,1.51,0,2.48,0c0.97,0,1.78,0,2.44,0c0.66,0,1.23-0.01,1.72-0.02c0.48-0.01,0.9-0.02,1.24-0.03
		c0.34-0.01,0.68-0.02,1.02-0.05c-0.06,0.13-0.1,0.33-0.14,0.62c-0.04,0.29-0.05,0.57-0.05,0.85v3.31c0,0.28,0.02,0.57,0.05,0.85
		c0.03,0.29,0.08,0.49,0.14,0.62c-0.24-0.01-0.48-0.03-0.72-0.04c-0.24-0.01-0.51-0.02-0.8-0.03c-0.3-0.01-0.62-0.01-0.98-0.02
		c-0.36-0.01-0.77-0.01-1.23-0.01v1.12c0,0.25,0.04,0.41,0.11,0.48c0.07,0.07,0.25,0.12,0.55,0.15c0.32,0.03,0.74,0.04,1.26,0.03
		c0.52-0.01,1.05-0.03,1.58-0.05c0.22-0.01,0.41-0.04,0.57-0.08c0.15-0.04,0.28-0.13,0.39-0.25c0.1-0.13,0.2-0.3,0.28-0.52
		c0.08-0.22,0.16-0.5,0.23-0.85c0.22,0.35,0.46,0.59,0.7,0.72c0.24,0.13,0.56,0.19,0.97,0.19c-0.16,0.45-0.3,0.81-0.44,1.07
		s-0.29,0.47-0.45,0.62c-0.16,0.15-0.34,0.25-0.55,0.31c-0.2,0.06-0.45,0.09-0.75,0.1c-0.34,0.01-0.7,0.02-1.07,0.02
		c-0.38,0-0.76,0-1.14,0c-0.38,0-0.75,0-1.12-0.01c-0.36-0.01-0.7-0.02-1.01-0.03c-0.38-0.01-0.68-0.05-0.91-0.09
		c-0.22-0.05-0.4-0.12-0.53-0.22c-0.13-0.1-0.21-0.23-0.24-0.41c-0.04-0.18-0.05-0.4-0.05-0.69v-1.6H290.72z M288.42,7.73
		c0.76-0.01,1.39-0.02,1.9-0.03c0.51-0.01,0.92-0.02,1.24-0.05v1.28c-0.34-0.03-0.8-0.05-1.4-0.06c-0.6-0.01-1.37-0.02-2.33-0.02
		c-1.19,0-2.13,0.01-2.81,0.03c-0.68,0.02-1.24,0.05-1.67,0.07c0.03-0.22,0.05-0.49,0.07-0.8c0.02-0.31,0.03-0.64,0.03-0.99V3.03
		c0-0.31-0.01-0.61-0.03-0.92c-0.02-0.3-0.05-0.59-0.07-0.87c0.44,0.03,1,0.05,1.69,0.06c0.69,0.01,1.63,0.02,2.82,0.02
		c0.97,0,1.74,0,2.33-0.01c0.58-0.01,1.03-0.02,1.34-0.03v1.26c-0.28-0.03-0.67-0.05-1.16-0.05c-0.49-0.01-1.14-0.01-1.94-0.01v1.1
		c0.7,0,1.24,0,1.6,0c0.36,0,0.65-0.01,0.84-0.04c-0.03,0.2-0.05,0.44-0.06,0.72c-0.01,0.28-0.02,0.58-0.02,0.88
		c0,0.31,0.01,0.6,0.02,0.87c0.01,0.27,0.04,0.49,0.06,0.64c-0.14-0.01-0.28-0.02-0.42-0.03c-0.14-0.01-0.31-0.01-0.49-0.02
		c-0.19-0.01-0.41-0.01-0.65-0.01s-0.54,0-0.87,0V7.73z M284.88,2.49v1.1h2.23v-1.1H284.88z M284.88,5.58h4.44V4.59h-4.44V5.58z
		 M284.88,7.73h2.23V6.59h-2.23V7.73z M296.45,10.62h-9.65v0.8h9.65V10.62z M296.45,12.26h-9.65V13h9.65V12.26z M296.45,13.86h-9.65
		v0.82h9.65V13.86z M296.51,3.08c0.2,0.27,0.35,0.49,0.47,0.68s0.25,0.4,0.39,0.64l-1.24,0.36c0.51,0,0.93,0,1.28,0
		c0.35,0,0.67-0.01,0.95-0.02c0.28-0.01,0.54-0.02,0.77-0.03c0.23-0.01,0.47-0.02,0.73-0.05c-0.03,0.28-0.05,0.62-0.06,1.01
		c-0.01,0.39-0.02,0.79-0.02,1.2c0,0.39,0.01,0.77,0.02,1.13c0.01,0.36,0.03,0.67,0.06,0.94c-1.14-0.08-2.42-0.13-3.83-0.13
		c-0.73,0-1.4,0.01-2.02,0.03c-0.62,0.02-1.22,0.05-1.81,0.09c0.04-0.63,0.06-1.3,0.06-2V4.78c-0.2-0.13-0.39-0.23-0.58-0.32
		c-0.19-0.08-0.43-0.17-0.71-0.25c0.81-0.63,1.43-1.31,1.83-2.03c0.41-0.72,0.67-1.41,0.8-2.05c0.28,0.13,0.59,0.25,0.94,0.37
		s0.66,0.21,0.94,0.28c0.39,0.08,0.4,0.2,0.02,0.36c-0.1,0.04-0.24,0.14-0.41,0.29c-0.18,0.16-0.35,0.34-0.52,0.55h2.21
		c0.37,0,0.74,0,1.13-0.01c0.39-0.01,0.75-0.02,1.11-0.03c0.35-0.01,0.66-0.03,0.93-0.04c0.27-0.01,0.47-0.04,0.61-0.06V3.2
		c-0.28-0.04-0.74-0.07-1.38-0.09C298.54,3.09,297.65,3.08,296.51,3.08z M295.65,4.76c-0.08-0.25-0.19-0.49-0.32-0.71
		s-0.29-0.42-0.48-0.6l1.5-0.38h-2.51c-0.24,0.36-0.46,0.68-0.66,0.96c-0.2,0.27-0.4,0.52-0.6,0.73H295.65z M294.36,5.88h-0.91v1.85
		h0.91V5.88z M296.43,5.88h-1.05v1.85h1.05V5.88z M298.56,5.88h-1.12v1.85h1.12V5.88z"/>
	<path class="st0" d="M59.94,39.79c0.65-0.48,1.29-1,1.93-1.56c0.64-0.56,1.32-1.2,2.05-1.92c0.04,0.2,0.08,0.36,0.11,0.49
		c0.03,0.13,0.07,0.27,0.13,0.4c0.06,0.13,0.12,0.28,0.2,0.43c0.08,0.15,0.18,0.34,0.31,0.57l-4.38,3.54
		c-0.15,0.13-0.32,0.27-0.51,0.43c-0.18,0.16-0.36,0.32-0.53,0.48c-0.17,0.16-0.33,0.32-0.47,0.48c-0.15,0.16-0.27,0.31-0.37,0.43
		c-0.28-0.52-0.53-0.93-0.74-1.23c-0.21-0.3-0.43-0.57-0.65-0.81c0.2-0.08,0.39-0.18,0.58-0.27c0.19-0.1,0.38-0.2,0.58-0.32V29.72
		c0-0.62-0.01-1.13-0.02-1.54c-0.01-0.41-0.04-0.73-0.06-0.97c0.69,0.25,1.37,0.38,2.04,0.38c0.28,0,0.44,0.06,0.48,0.17
		c0.04,0.11-0.05,0.22-0.27,0.34c-0.15,0.07-0.26,0.16-0.32,0.27c-0.06,0.11-0.08,0.22-0.08,0.32V39.79z M69.93,39.85
		c-0.32,0.48-0.69,0.93-1.1,1.36c-0.41,0.43-0.9,0.85-1.46,1.26c-0.57,0.41-1.23,0.82-1.97,1.22c-0.74,0.4-1.61,0.8-2.59,1.21
		c-0.15-0.35-0.37-0.7-0.65-1.03c-0.28-0.34-0.6-0.62-0.97-0.84c0.98-0.13,1.93-0.38,2.84-0.75c0.91-0.37,1.74-0.84,2.5-1.4
		c0.75-0.56,1.39-1.21,1.92-1.94c0.53-0.73,0.91-1.53,1.15-2.4c0.22-0.79,0.41-1.52,0.55-2.19c0.14-0.67,0.25-1.38,0.33-2.12
		c0.08-0.74,0.13-1.56,0.16-2.46c0.03-0.91,0.04-1.99,0.04-3.25c0.36,0.11,0.79,0.22,1.26,0.33c0.48,0.1,0.88,0.18,1.22,0.22
		c0.17,0.03,0.26,0.07,0.28,0.14c0.02,0.06-0.04,0.18-0.18,0.35c-0.07,0.07-0.13,0.15-0.19,0.24c-0.06,0.09-0.11,0.21-0.15,0.37
		c-0.04,0.15-0.08,0.35-0.13,0.59c-0.04,0.24-0.08,0.55-0.13,0.93c-0.14,1.18-0.28,2.21-0.42,3.09c-0.14,0.88-0.28,1.66-0.43,2.34
		c-0.15,0.68-0.31,1.28-0.47,1.79c-0.17,0.51-0.35,0.99-0.55,1.42c0.31,0.28,0.65,0.59,1.01,0.94c0.36,0.34,0.74,0.7,1.13,1.06
		c0.39,0.37,0.78,0.73,1.17,1.1c0.39,0.37,0.77,0.72,1.14,1.05l-1.92,1.58c-0.38-0.63-0.86-1.31-1.44-2.04
		C71.29,41.27,70.64,40.56,69.93,39.85z M66.18,33.79c-0.35-0.51-0.67-0.95-0.95-1.34c-0.28-0.39-0.55-0.74-0.82-1.07
		c-0.27-0.33-0.54-0.65-0.82-0.95c-0.28-0.3-0.59-0.61-0.93-0.94l1.52-1.2c0.56,0.59,1.13,1.21,1.71,1.85
		c0.58,0.65,1.25,1.42,2.02,2.32L66.18,33.79z"/>
	<path class="st0" d="M81.36,34.99c-0.49,1-1.02,1.9-1.59,2.71c-0.57,0.81-1.13,1.52-1.7,2.14c-0.08-0.28-0.16-0.51-0.22-0.7
		c-0.06-0.18-0.13-0.34-0.2-0.46c-0.07-0.13-0.14-0.23-0.22-0.33c-0.08-0.09-0.17-0.19-0.28-0.28c0.3-0.2,0.61-0.47,0.96-0.82
		c0.34-0.35,0.69-0.76,1.04-1.23c0.35-0.47,0.69-0.99,1.02-1.55c0.33-0.56,0.64-1.15,0.92-1.77c-0.14-0.67-0.35-1.3-0.63-1.88
		c-0.45,0.55-0.86,1.03-1.22,1.45c-0.37,0.42-0.66,0.74-0.88,0.97c-0.21-0.32-0.39-0.57-0.55-0.74c-0.15-0.17-0.35-0.34-0.59-0.53
		c0.42-0.28,0.84-0.62,1.26-1.02c0.42-0.4,0.82-0.83,1.2-1.3c-0.29-0.36-0.64-0.7-1.03-1.01c-0.39-0.31-0.84-0.61-1.33-0.91
		l1.14-1.37c0.84,0.67,1.57,1.35,2.17,2.02c0.28-0.41,0.54-0.82,0.77-1.25c0.23-0.43,0.43-0.85,0.6-1.25
		c0.21,0.22,0.46,0.41,0.75,0.57c0.29,0.16,0.59,0.28,0.92,0.38c0.18,0.06,0.27,0.13,0.26,0.23c-0.01,0.1-0.17,0.25-0.49,0.44
		c-0.13,0.08-0.26,0.18-0.39,0.28c-0.13,0.11-0.27,0.23-0.42,0.38c-0.15,0.15-0.31,0.32-0.48,0.53c-0.18,0.2-0.38,0.45-0.6,0.75
		c0.24,0.35,0.46,0.85,0.65,1.49c0.2,0.64,0.36,1.37,0.48,2.2c0.13,0.83,0.21,1.73,0.25,2.72c0.04,0.98,0.02,1.99-0.06,3.01
		c-0.08,1.07-0.2,1.93-0.35,2.59c-0.15,0.66-0.37,1.19-0.66,1.59c-0.3,0.4-0.68,0.71-1.16,0.92c-0.48,0.21-1.07,0.39-1.79,0.55
		c-0.04-0.37-0.12-0.67-0.22-0.93c-0.11-0.25-0.31-0.55-0.6-0.88c0.52,0.01,0.96-0.03,1.33-0.13c0.36-0.1,0.67-0.26,0.91-0.47
		c0.24-0.22,0.43-0.5,0.57-0.86c0.14-0.36,0.25-0.79,0.32-1.3c0.11-0.8,0.19-1.6,0.22-2.41C81.45,36.72,81.43,35.87,81.36,34.99z
		 M89.91,43.01c-0.81,0.36-1.75,0.68-2.79,0.96c-1.05,0.27-2.29,0.53-3.74,0.77c-0.07-0.28-0.17-0.54-0.31-0.78
		c-0.13-0.24-0.33-0.48-0.6-0.72c2.25-0.18,4.14-0.51,5.69-0.99c-0.46-0.25-0.91-0.53-1.34-0.83c-0.43-0.3-0.85-0.64-1.25-1l1.2-0.5
		c-0.73,0-1.3,0.01-1.7,0.02c-0.4,0.01-0.72,0.04-0.96,0.06v-1.56c0.45,0.07,1.13,0.13,2.03,0.17c0.91,0.04,2.03,0.06,3.36,0.06
		c1.35,0,2.47-0.03,3.37-0.08c0.9-0.06,1.58-0.12,2.04-0.19c-0.21,0.38-0.45,0.75-0.71,1.13c-0.26,0.37-0.54,0.72-0.83,1.05
		c-0.3,0.33-0.59,0.63-0.9,0.89c-0.3,0.27-0.59,0.48-0.87,0.63c0.77,0.18,1.59,0.31,2.44,0.39c0.86,0.08,1.74,0.09,2.65,0.05
		c-0.18,0.2-0.33,0.38-0.43,0.54c-0.11,0.16-0.19,0.31-0.24,0.45c-0.06,0.14-0.09,0.28-0.11,0.41c-0.01,0.13-0.02,0.27-0.02,0.41
		c-1.28-0.17-2.4-0.36-3.36-0.58C91.59,43.56,90.71,43.31,89.91,43.01z M85.4,33.37c-0.28,0.41-0.56,0.78-0.83,1.12
		c-0.27,0.34-0.52,0.62-0.73,0.86c-0.17-0.42-0.3-0.72-0.4-0.9c-0.1-0.18-0.24-0.34-0.42-0.49c0.29-0.25,0.57-0.51,0.83-0.78
		c0.26-0.27,0.52-0.58,0.77-0.93c0.25-0.35,0.51-0.76,0.78-1.23c0.27-0.47,0.56-1.04,0.88-1.7c0.27,0.22,0.52,0.39,0.75,0.5
		c0.23,0.1,0.51,0.17,0.83,0.2c0.18,0.03,0.26,0.08,0.24,0.15c-0.02,0.07-0.14,0.15-0.37,0.23c-0.06,0.03-0.12,0.07-0.2,0.14
		c-0.08,0.06-0.17,0.16-0.28,0.28H90c-0.14-0.34-0.29-0.62-0.44-0.86l1.73-0.3c0.11,0.46,0.27,0.85,0.46,1.16
		c1.04,0,1.87-0.02,2.51-0.05c0.63-0.03,1.17-0.08,1.62-0.14V32c-0.24-0.01-0.47-0.03-0.7-0.04c-0.22-0.01-0.49-0.02-0.8-0.03
		c-0.31-0.01-0.68-0.01-1.12-0.01s-0.99,0-1.66,0v0.95c0.91,0,1.7-0.01,2.37-0.04c0.67-0.03,1.2-0.06,1.61-0.1v1.33
		c-0.44-0.04-0.97-0.07-1.61-0.09c-0.64-0.02-1.43-0.03-2.37-0.03v0.88c0.94,0,1.73-0.01,2.38-0.04c0.65-0.03,1.17-0.06,1.58-0.1
		v1.31c-0.44-0.04-0.97-0.07-1.6-0.09s-1.42-0.03-2.36-0.03v0.86c1.01,0,1.88-0.01,2.6-0.04c0.72-0.03,1.31-0.06,1.76-0.11V38
		c-0.52-0.04-1.19-0.08-2.01-0.13s-1.67-0.06-2.54-0.06h-4.68v0.53h-1.54c0.07-0.37,0.12-0.72,0.16-1.06
		c0.03-0.34,0.05-0.78,0.05-1.32V33.37z M88.37,28.58v0.97h-1.41v-0.97c-0.52,0.01-1.03,0.04-1.54,0.08
		c-0.51,0.04-0.92,0.08-1.24,0.1v-1.52c0.32,0.03,0.73,0.06,1.23,0.08c0.5,0.03,1.01,0.05,1.55,0.06c0-0.38-0.01-0.74-0.04-1.09
		s-0.06-0.61-0.08-0.81c0.59,0.08,1.15,0.13,1.69,0.13c0.15,0,0.24,0.03,0.25,0.09c0.01,0.06-0.04,0.13-0.17,0.2
		c-0.1,0.04-0.16,0.09-0.19,0.15s-0.04,0.15-0.04,0.27v1.05h3.05c0-0.46-0.01-0.85-0.03-1.15c-0.02-0.3-0.05-0.56-0.09-0.77
		c0.28,0.04,0.57,0.07,0.85,0.09c0.29,0.02,0.57,0.03,0.83,0.03c0.13,0,0.2,0.03,0.22,0.09c0.02,0.06-0.02,0.13-0.14,0.2
		c-0.1,0.04-0.16,0.09-0.19,0.15c-0.03,0.06-0.04,0.15-0.04,0.27v1.07c0.58-0.01,1.15-0.04,1.72-0.06c0.57-0.03,1.03-0.06,1.38-0.1
		v1.54c-0.35-0.04-0.8-0.08-1.35-0.12c-0.55-0.03-1.13-0.06-1.75-0.07v0.88h-1.41v-0.88H88.37z M86.73,32.86h3.5v-0.95h-3.5V32.86z
		 M86.73,34.8h3.5v-0.88h-3.5V34.8z M86.73,36.69h3.5v-0.86h-3.5V36.69z M89.87,41.6c1.02-0.48,1.76-1.04,2.21-1.68h-5.01
		c0.35,0.34,0.76,0.65,1.23,0.93C88.77,41.12,89.29,41.38,89.87,41.6z"/>
	<path class="st0" d="M103.27,44.49h-1.77c0.07-0.59,0.12-1.15,0.15-1.67c0.03-0.53,0.04-1.1,0.04-1.72v-5.41
		c-0.32,0.37-0.66,0.72-1.01,1.06c-0.35,0.34-0.67,0.66-0.95,0.94c-0.15-0.22-0.34-0.46-0.57-0.71c-0.23-0.25-0.46-0.48-0.72-0.71
		c0.74-0.46,1.4-0.99,1.97-1.59c0.57-0.6,1.06-1.19,1.46-1.78c0.42-0.63,0.76-1.18,1.01-1.63c0.25-0.46,0.46-0.89,0.61-1.3
		c0.24,0.2,0.53,0.39,0.87,0.58c0.34,0.19,0.64,0.33,0.87,0.43c0.38,0.15,0.36,0.3-0.04,0.42c-0.04,0.01-0.11,0.06-0.19,0.13
		c-0.08,0.07-0.2,0.19-0.35,0.36c-0.15,0.17-0.33,0.4-0.56,0.7c-0.22,0.3-0.51,0.68-0.84,1.16V44.49z M104.6,27.07
		c-0.04,0.03-0.09,0.06-0.16,0.1c-0.06,0.04-0.15,0.12-0.26,0.24c-0.11,0.12-0.27,0.29-0.48,0.52c-0.21,0.23-0.48,0.53-0.82,0.91
		c-0.55,0.6-1.02,1.13-1.42,1.57c-0.4,0.44-0.73,0.83-0.98,1.15c-0.14-0.21-0.34-0.42-0.59-0.64c-0.25-0.22-0.53-0.4-0.82-0.56
		c0.36-0.27,0.74-0.59,1.13-0.98c0.39-0.39,0.76-0.79,1.12-1.22c0.36-0.43,0.68-0.87,0.98-1.33c0.29-0.46,0.53-0.89,0.72-1.3
		c0.1,0.11,0.22,0.23,0.36,0.35c0.14,0.12,0.28,0.23,0.43,0.34c0.15,0.11,0.29,0.2,0.42,0.27c0.13,0.08,0.25,0.13,0.35,0.16
		C104.97,26.77,104.98,26.91,104.6,27.07z M109.32,36c-0.94,0-1.76,0.01-2.45,0.02c-0.7,0.01-1.2,0.04-1.53,0.08v-1.54
		c0.39,0.04,0.93,0.08,1.61,0.11c0.68,0.03,1.47,0.04,2.37,0.04h4.07c0.9,0,1.68-0.02,2.35-0.05c0.67-0.03,1.16-0.07,1.49-0.09v1.56
		c-0.24-0.03-0.55-0.05-0.94-0.07c-0.39-0.02-0.85-0.03-1.38-0.03v1.45c0.69-0.01,1.29-0.03,1.79-0.05
		c0.51-0.02,0.88-0.05,1.14-0.07v1.58c-0.28-0.03-0.67-0.05-1.17-0.07c-0.5-0.02-1.08-0.04-1.76-0.05v2.97
		c0,0.58-0.04,1.04-0.11,1.39c-0.07,0.35-0.23,0.64-0.47,0.86c-0.25,0.22-0.6,0.4-1.06,0.53c-0.46,0.13-1.08,0.25-1.85,0.36
		c-0.01-0.32-0.08-0.66-0.19-1.01c-0.11-0.35-0.29-0.69-0.53-1.01c0.55,0.04,0.99,0.05,1.32,0.03s0.58-0.08,0.76-0.19
		c0.18-0.11,0.29-0.27,0.34-0.48c0.05-0.22,0.07-0.51,0.07-0.87V38.8h-4.91c-0.94,0-1.76,0.01-2.45,0.02
		c-0.7,0.01-1.2,0.04-1.53,0.08v-1.56c0.39,0.03,0.93,0.06,1.61,0.08c0.68,0.03,1.47,0.04,2.37,0.04h4.91V36H109.32z M115.93,26.54
		c-0.01,0.17-0.02,0.38-0.03,0.63c-0.01,0.25-0.01,0.5-0.01,0.74v4.47c0,0.18,0,0.38,0.01,0.58c0.01,0.2,0.02,0.4,0.05,0.58
		c-0.21-0.03-0.44-0.05-0.68-0.07c-0.25-0.02-0.55-0.03-0.91-0.04c-0.36-0.01-0.8-0.01-1.32-0.02c-0.52-0.01-1.15-0.01-1.9-0.01
		c-0.74,0-1.37,0-1.86,0.01c-0.5,0.01-0.92,0.02-1.27,0.03c-0.35,0.01-0.65,0.03-0.9,0.05c-0.25,0.02-0.48,0.04-0.71,0.05
		c0.03-0.15,0.04-0.33,0.04-0.54c0-0.2,0-0.4,0-0.58v-4.36c0-0.28-0.01-0.57-0.03-0.85c-0.02-0.29-0.05-0.51-0.07-0.66
		c0.25,0.03,0.51,0.05,0.76,0.07c0.25,0.02,0.55,0.04,0.91,0.04s0.77,0.01,1.26,0.02c0.49,0.01,1.11,0.01,1.85,0.01
		c0.76,0,1.4,0,1.92-0.01c0.52-0.01,0.96-0.01,1.32-0.02s0.66-0.02,0.91-0.04C115.52,26.59,115.74,26.57,115.93,26.54z
		 M107.85,42.85c-0.03-0.24-0.08-0.49-0.15-0.77c-0.07-0.27-0.15-0.55-0.24-0.82c-0.09-0.27-0.19-0.54-0.28-0.8
		c-0.1-0.26-0.2-0.49-0.3-0.71l1.79-0.48c0.06,0.22,0.13,0.47,0.22,0.75c0.09,0.27,0.19,0.55,0.29,0.83
		c0.11,0.28,0.21,0.54,0.33,0.79c0.11,0.25,0.21,0.45,0.29,0.62L107.85,42.85z M114.23,28.02h-6.21v1.52h6.21V28.02z M108.01,32.25
		h6.21v-1.56h-6.21V32.25z"/>
	<path class="st0" d="M122.11,34.76c-0.24,0.01-0.53,0.03-0.86,0.05c-0.34,0.02-0.77,0.05-1.29,0.09V33.2
		c0.51,0.04,0.98,0.08,1.41,0.11c0.44,0.03,0.96,0.05,1.58,0.06c0.62,0.01,1.4,0.03,2.34,0.03c0.94,0.01,2.18,0.01,3.71,0.01
		c1.47,0,2.69,0,3.63-0.01c0.95-0.01,1.74-0.02,2.39-0.03c0.65-0.01,1.2-0.03,1.65-0.06c0.46-0.03,0.92-0.06,1.4-0.11v1.71
		c-0.49-0.04-0.97-0.07-1.43-0.09c-0.46-0.02-1.03-0.04-1.71-0.05c-0.67-0.01-1.51-0.02-2.51-0.02c-1,0-2.26,0-3.79,0v6.93
		c0,0.56,0.01,1.07,0.03,1.53c0.02,0.46,0.06,0.91,0.12,1.36h-1.75c0.03-0.37,0.06-0.73,0.08-1.1c0.03-0.37,0.05-0.75,0.06-1.16
		l-2.46,0.34c-0.59,0.08-1.19,0.18-1.8,0.3c-0.61,0.11-1.35,0.26-2.2,0.44c-0.04-0.31-0.1-0.61-0.18-0.92
		c-0.08-0.3-0.16-0.58-0.24-0.83c0.36-0.01,0.7-0.03,0.99-0.04c0.29-0.01,0.57-0.04,0.82-0.06V34.76z M135.72,32.42
		c-0.34-0.03-0.68-0.05-1.02-0.07c-0.34-0.02-0.76-0.04-1.24-0.04c-0.48-0.01-1.06-0.01-1.74-0.02c-0.67-0.01-1.5-0.01-2.49-0.01
		c-0.9,0-1.68,0-2.34,0.01c-0.66,0.01-1.24,0.01-1.75,0.02c-0.51,0.01-0.94,0.02-1.32,0.04c-0.37,0.02-0.73,0.05-1.06,0.07
		c0.06-0.13,0.09-0.27,0.12-0.44c0.02-0.17,0.03-0.46,0.03-0.88v-3.45c0-0.42-0.01-0.73-0.03-0.92c-0.02-0.19-0.06-0.34-0.12-0.45
		c0.34,0.03,0.7,0.05,1.1,0.06c0.39,0.01,0.85,0.03,1.36,0.03c0.51,0.01,1.1,0.01,1.75,0.02c0.65,0.01,1.41,0.01,2.26,0.01
		c0.91,0,1.7,0,2.37-0.01c0.67-0.01,1.25-0.01,1.75-0.02c0.5-0.01,0.93-0.02,1.31-0.03c0.37-0.01,0.73-0.03,1.06-0.06
		c-0.04,0.11-0.07,0.31-0.09,0.58c-0.02,0.27-0.03,0.54-0.03,0.79v3.45c0,0.24,0.01,0.47,0.03,0.7
		C135.64,32.01,135.67,32.22,135.72,32.42z M123.56,34.73v1.35h3.62v-1.35H123.56z M127.18,37.2h-3.62v1.47h3.62V37.2z
		 M127.18,39.75h-3.62v1.62l3.62-0.42V39.75z M133.88,27.66h-9.35v1.18h9.35V27.66z M133.88,30h-9.35v1.12h9.35V30z M130.09,37.43
		c-0.29,0.03-0.57,0.05-0.82,0.06v-1.56c0.58,0.07,1.18,0.11,1.8,0.13c0.62,0.01,1.34,0.02,2.14,0.02c0.77,0,1.45-0.01,2.04-0.02
		c0.59-0.01,1.16-0.06,1.71-0.13c-0.28,1.19-0.65,2.24-1.1,3.14c-0.45,0.9-1.01,1.76-1.69,2.59c0.53,0.32,1.15,0.59,1.84,0.79
		c0.7,0.2,1.42,0.32,2.18,0.35c-0.2,0.32-0.36,0.63-0.49,0.92c-0.13,0.29-0.24,0.63-0.33,1.02c-0.84-0.25-1.62-0.55-2.34-0.88
		c-0.72-0.34-1.34-0.7-1.87-1.1c-0.35,0.32-0.77,0.68-1.26,1.06c-0.49,0.39-1.03,0.76-1.62,1.13c-0.15-0.21-0.35-0.43-0.6-0.65
		c-0.25-0.22-0.52-0.41-0.81-0.57c0.6-0.27,1.19-0.57,1.76-0.92c0.57-0.34,1.04-0.68,1.42-1.02
		C131.22,40.79,130.57,39.34,130.09,37.43z M131.59,37.39c0.13,0.65,0.31,1.26,0.56,1.85c0.25,0.59,0.54,1.1,0.87,1.54
		c0.51-0.59,0.92-1.14,1.24-1.66c0.32-0.52,0.55-1.1,0.7-1.75c-0.72,0-1.35,0-1.91,0C132.5,37.37,132.01,37.38,131.59,37.39z"/>
	<path class="st0" d="M144.02,32.88c-0.32,0.56-0.63,1.05-0.92,1.47c-0.29,0.42-0.61,0.86-0.96,1.31c-0.18-0.24-0.4-0.48-0.66-0.73
		c-0.26-0.25-0.53-0.47-0.81-0.66c1.36-1.15,2.5-2.73,3.41-4.74c0.28-0.63,0.55-1.31,0.81-2.02c0.26-0.72,0.45-1.36,0.56-1.94
		c0.63,0.32,1.29,0.57,1.98,0.74c0.21,0.07,0.32,0.16,0.34,0.25c0.01,0.1-0.11,0.22-0.36,0.38c-0.06,0.03-0.12,0.08-0.19,0.17
		c-0.07,0.08-0.17,0.23-0.29,0.43c-0.13,0.2-0.29,0.48-0.48,0.84c-0.2,0.36-0.44,0.82-0.74,1.38V44.7h-1.96
		c0.11-0.63,0.19-1.22,0.22-1.75c0.03-0.53,0.05-1.02,0.05-1.48V32.88z M154.09,37.49c0.94-0.01,1.79-0.04,2.56-0.06
		c0.77-0.03,1.4-0.08,1.91-0.15v1.81c-0.51-0.07-1.14-0.12-1.91-0.15c-0.77-0.03-1.62-0.05-2.56-0.06v3.14
		c1.22-0.01,2.27-0.03,3.14-0.06c0.87-0.03,1.66-0.08,2.36-0.15v1.92c-0.79-0.07-1.68-0.12-2.69-0.16c-1-0.04-2.23-0.05-3.68-0.05
		c-1.43,0-2.65,0.02-3.67,0.05c-1.01,0.03-1.9,0.09-2.68,0.16v-1.92c0.72,0.07,1.51,0.12,2.37,0.15c0.86,0.03,1.9,0.05,3.11,0.06
		v-3.14c-0.97,0.01-1.84,0.04-2.61,0.06c-0.77,0.03-1.43,0.08-1.96,0.15v-1.81c0.55,0.07,1.2,0.12,1.97,0.15
		c0.77,0.03,1.63,0.05,2.6,0.06c0-0.39,0-0.73-0.01-1.02c-0.01-0.29-0.02-0.54-0.03-0.76c-0.01-0.22-0.03-0.41-0.05-0.57
		c-0.02-0.16-0.05-0.31-0.09-0.45c0.35,0.04,0.7,0.07,1.03,0.09s0.71,0.03,1.12,0.03c0.18,0,0.29,0.03,0.32,0.08
		c0.03,0.06-0.04,0.13-0.19,0.23c-0.11,0.07-0.2,0.19-0.26,0.36c-0.06,0.17-0.09,0.32-0.09,0.44V37.49z M154.13,28.63
		c1.05-0.01,1.98-0.03,2.78-0.06c0.8-0.03,1.49-0.08,2.06-0.15v1.77c-0.58-0.07-1.26-0.12-2.06-0.15c-0.8-0.03-1.73-0.05-2.78-0.06
		v2.7c1.22-0.01,2.27-0.04,3.15-0.07c0.88-0.03,1.67-0.09,2.39-0.16v1.83c-0.79-0.07-1.68-0.12-2.68-0.16
		c-1-0.03-2.22-0.05-3.67-0.05c-1.43,0-2.65,0.02-3.64,0.05c-1,0.04-1.88,0.09-2.65,0.16v-1.83c0.72,0.07,1.49,0.12,2.33,0.16
		c0.84,0.04,1.85,0.06,3.04,0.07v-2.7c-0.98,0.01-1.86,0.04-2.63,0.06c-0.77,0.03-1.44,0.08-2,0.15v-1.77
		c0.56,0.07,1.23,0.12,2,0.15c0.77,0.03,1.65,0.05,2.63,0.06c0-0.74-0.01-1.34-0.04-1.78c-0.03-0.44-0.08-0.85-0.15-1.21
		c0.35,0.04,0.7,0.07,1.03,0.09c0.34,0.02,0.71,0.03,1.12,0.03c0.39,0,0.43,0.11,0.1,0.32c-0.11,0.07-0.2,0.18-0.25,0.33
		c-0.06,0.15-0.08,0.31-0.08,0.47V28.63z"/>
	<path class="st0" d="M169.38,30.27c-0.45-0.06-0.95-0.09-1.51-0.12c-0.56-0.02-1.26-0.03-2.12-0.03c-0.84,0-1.55,0.01-2.11,0.03
		c-0.56,0.02-1.07,0.06-1.52,0.12v-1.62c0.46,0.06,0.97,0.09,1.53,0.12c0.56,0.02,1.25,0.03,2.1,0.03c0.86,0,1.56-0.01,2.12-0.03
		c0.56-0.02,1.06-0.06,1.51-0.12V30.27z M169.09,32.94c-0.37-0.06-0.79-0.09-1.27-0.12s-1.09-0.03-1.8-0.03s-1.32,0.01-1.81,0.03
		c-0.49,0.02-0.93,0.06-1.31,0.12V31.3c0.39,0.06,0.83,0.09,1.32,0.12c0.48,0.02,1.09,0.03,1.8,0.03s1.32-0.01,1.8-0.03
		s0.91-0.06,1.27-0.12V32.94z M169.09,35.62c-0.37-0.06-0.79-0.09-1.27-0.12s-1.09-0.03-1.82-0.03c-0.72,0-1.32,0.01-1.8,0.03
		c-0.48,0.02-0.92,0.06-1.3,0.12v-1.64c0.39,0.06,0.83,0.09,1.31,0.12c0.48,0.02,1.07,0.03,1.79,0.03c0.73,0,1.34-0.01,1.82-0.03
		s0.91-0.06,1.27-0.12V35.62z M164.64,41.83v1.75h-1.66c0.11-0.53,0.17-1.14,0.17-1.81v-3.01c0-0.77-0.02-1.39-0.06-1.85
		c0.22,0.03,0.56,0.05,1.01,0.06c0.45,0.01,1.05,0.02,1.81,0.02c0.76,0,1.39-0.01,1.91-0.02c0.51-0.01,0.88-0.04,1.11-0.06
		c-0.01,0.25-0.03,0.53-0.03,0.84c-0.01,0.31-0.01,0.65-0.01,1.01v2.89c0,0.67,0.04,1.17,0.11,1.48h-1.58v-1.29H164.64z
		 M165.63,28.48c-0.11-0.37-0.28-0.78-0.51-1.24c-0.22-0.46-0.44-0.86-0.65-1.18l1.64-0.63c0.08,0.14,0.18,0.31,0.29,0.52
		s0.22,0.42,0.34,0.65c0.11,0.23,0.22,0.46,0.33,0.69c0.1,0.22,0.19,0.43,0.26,0.61L165.63,28.48z M167.4,40.55v-2.3h-2.76v2.3
		H167.4z M173.03,41.9c0.2,0.22,0.39,0.42,0.59,0.59c0.2,0.17,0.37,0.3,0.53,0.4c0.11,0.07,0.15,0.14,0.12,0.22
		c-0.04,0.08-0.14,0.11-0.31,0.09c-0.13-0.01-0.32,0.01-0.59,0.07s-0.56,0.17-0.86,0.33c-0.37,0.18-0.77,0.37-1.21,0.55
		c-0.44,0.18-0.87,0.34-1.27,0.48c-0.13-0.22-0.26-0.43-0.39-0.61c-0.13-0.18-0.32-0.38-0.56-0.59c0.32-0.07,0.66-0.17,1.01-0.28
		c0.35-0.12,0.7-0.25,1.04-0.39c0.34-0.14,0.67-0.28,0.97-0.43c0.3-0.15,0.56-0.29,0.77-0.43c-0.27,0-0.5,0-0.7,0
		c-0.2,0-0.37,0-0.53,0.01c-0.15,0.01-0.31,0.02-0.45,0.03c-0.15,0.01-0.31,0.03-0.47,0.04c0.03-0.2,0.05-0.41,0.07-0.64
		c0.02-0.23,0.03-0.48,0.03-0.75v-3.88c0-0.25-0.01-0.49-0.03-0.73c-0.02-0.23-0.05-0.42-0.07-0.56c0.25,0.03,0.48,0.05,0.7,0.06
		c0.21,0.01,0.47,0.03,0.77,0.04c0.3,0.01,0.68,0.02,1.14,0.02c0.46,0,1.06,0,1.8,0c0.74,0,1.35,0,1.81,0
		c0.46,0,0.85-0.01,1.15-0.02c0.3-0.01,0.57-0.03,0.79-0.04c0.22-0.01,0.47-0.03,0.74-0.06c-0.03,0.13-0.05,0.31-0.06,0.55
		c-0.01,0.24-0.02,0.48-0.02,0.74v3.88c0,0.27,0.01,0.51,0.02,0.73c0.01,0.22,0.03,0.44,0.06,0.66c-0.25-0.01-0.49-0.03-0.73-0.04
		c-0.23-0.01-0.48-0.02-0.74-0.03c-0.26-0.01-0.55-0.01-0.88-0.01c-0.33,0-0.71,0-1.15,0H173.03z M175.85,29.49
		c0.93,0,1.76-0.01,2.51-0.03s1.36-0.06,1.85-0.12v1.33c-0.53-0.04-1.22-0.07-2.06-0.09c-0.84-0.02-1.77-0.03-2.78-0.03
		c-0.67,0-1.27,0-1.79,0.01c-0.52,0.01-0.98,0.01-1.39,0.02c-0.41,0.01-0.77,0.02-1.09,0.04c-0.32,0.02-0.6,0.04-0.85,0.05v-1.33
		c0.45,0.04,0.98,0.07,1.59,0.1c0.61,0.02,1.44,0.04,2.47,0.05v-0.97c-1.11,0-2.03,0.01-2.77,0.02c-0.74,0.01-1.43,0.04-2.07,0.08
		v-1.43c0.34,0.03,0.67,0.05,1.01,0.06c0.34,0.01,0.7,0.03,1.09,0.04c0.39,0.01,0.8,0.02,1.25,0.03c0.45,0.01,0.95,0.01,1.5,0.01
		c0-0.38-0.01-0.71-0.03-1c-0.02-0.29-0.05-0.55-0.09-0.79c0.08,0.01,0.2,0.03,0.36,0.04c0.15,0.01,0.31,0.03,0.47,0.03
		c0.16,0.01,0.32,0.01,0.46,0.01c0.15,0,0.27,0,0.37,0c0.27-0.03,0.44-0.01,0.51,0.06c0.07,0.07,0.01,0.18-0.17,0.32
		c-0.11,0.1-0.19,0.25-0.24,0.44c-0.05,0.2-0.08,0.49-0.09,0.88c0.56,0,1.07,0,1.54-0.01c0.46-0.01,0.89-0.01,1.28-0.02
		c0.39-0.01,0.76-0.02,1.11-0.04c0.34-0.02,0.68-0.05,1-0.07v1.43c-0.32-0.01-0.66-0.03-1-0.04c-0.34-0.01-0.71-0.02-1.11-0.03
		c-0.39-0.01-0.82-0.01-1.28-0.02c-0.46-0.01-0.98-0.01-1.54-0.01V29.49z M180.59,34.88c-0.8-0.04-1.65-0.07-2.54-0.09
		c-0.89-0.02-1.87-0.03-2.94-0.03c-1.07,0-2.02,0.01-2.86,0.02c-0.84,0.01-1.68,0.05-2.51,0.11c0.04-0.63,0.06-1.24,0.06-1.83
		c0-0.32,0-0.64-0.01-0.95c-0.01-0.31-0.02-0.6-0.05-0.88c0.76,0.06,1.58,0.09,2.45,0.11c0.88,0.01,1.85,0.02,2.92,0.02
		c1.07,0,2.07-0.01,3-0.03c0.93-0.02,1.76-0.05,2.48-0.09c-0.03,0.25-0.05,0.54-0.06,0.85c-0.01,0.32-0.02,0.64-0.02,0.98
		c0,0.32,0.01,0.65,0.02,0.97C180.54,34.34,180.56,34.63,180.59,34.88z M172.98,32.38h-1.73v1.37h1.73V32.38z M178,36.59h-5.73v0.7
		H178V36.59z M178,38.29h-5.73v0.72H178V38.29z M178,39.98h-5.73v0.84H178V39.98z M176,32.38h-1.73v1.37H176V32.38z M180.15,44.61
		c-0.24-0.14-0.54-0.29-0.91-0.44c-0.37-0.16-0.75-0.3-1.15-0.44c-0.4-0.14-0.79-0.27-1.18-0.38c-0.39-0.11-0.71-0.19-0.98-0.23
		l0.82-1.18c0.31,0.08,0.65,0.19,1.03,0.31c0.38,0.12,0.76,0.24,1.15,0.37c0.39,0.13,0.76,0.25,1.14,0.38
		c0.37,0.13,0.72,0.25,1.04,0.36L180.15,44.61z M179.03,32.38h-1.73v1.37h1.73V32.38z"/>
	<path class="st0" d="M191.68,30.4c-0.51-0.06-1.07-0.09-1.71-0.1c-0.63-0.01-1.4-0.02-2.32-0.02c-0.91,0-1.68,0.01-2.32,0.02
		c-0.63,0.01-1.2,0.05-1.71,0.1v-1.6c0.52,0.06,1.09,0.09,1.72,0.12c0.62,0.02,1.39,0.03,2.31,0.03c0.91,0,1.69-0.01,2.32-0.03
		c0.63-0.02,1.2-0.06,1.71-0.12V30.4z M186.01,42.4v1.79h-1.64c0.06-0.45,0.1-0.87,0.13-1.27c0.03-0.4,0.04-0.83,0.04-1.3v-3.05
		c0-0.35,0-0.64-0.01-0.86c-0.01-0.22-0.02-0.44-0.05-0.65c0.15,0.03,0.31,0.05,0.46,0.05c0.15,0.01,0.34,0.02,0.57,0.03
		c0.22,0.01,0.51,0.02,0.86,0.02c0.35,0,0.81,0,1.37,0c0.56,0,1.02,0,1.38,0s0.66-0.01,0.9-0.02c0.24-0.01,0.43-0.02,0.58-0.03
		c0.15-0.01,0.3-0.02,0.45-0.05c-0.03,0.18-0.05,0.38-0.05,0.6c-0.01,0.22-0.01,0.52-0.01,0.92v2.61c0,0.46,0.01,0.89,0.04,1.28
		c0.03,0.39,0.08,0.81,0.15,1.26h-1.58V42.4H186.01z M191.11,33.09c-0.41-0.06-0.88-0.09-1.42-0.11c-0.54-0.01-1.2-0.02-1.97-0.02
		c-0.76,0-1.4,0.01-1.92,0.02c-0.52,0.01-0.99,0.05-1.41,0.11v-1.6c0.42,0.06,0.89,0.09,1.41,0.12c0.52,0.02,1.16,0.03,1.92,0.03
		c0.77,0,1.43-0.01,1.97-0.03c0.54-0.02,1.01-0.06,1.42-0.12V33.09z M191.15,35.81c-0.42-0.06-0.9-0.09-1.44-0.1
		c-0.54-0.01-1.19-0.02-1.95-0.02s-1.4,0.01-1.92,0.02c-0.52,0.01-0.99,0.05-1.41,0.1v-1.58c0.42,0.04,0.89,0.07,1.41,0.09
		c0.52,0.02,1.16,0.03,1.92,0.03s1.41-0.01,1.95-0.03c0.54-0.02,1.02-0.05,1.44-0.09V35.81z M189.59,41.14v-2.76h-3.58v2.76H189.59z
		 M187.4,28.77c-0.11-0.39-0.27-0.81-0.48-1.24c-0.21-0.44-0.46-0.84-0.74-1.22l1.6-0.63c0.24,0.39,0.46,0.78,0.65,1.15
		c0.2,0.37,0.41,0.79,0.65,1.25L187.4,28.77z M196.02,29.97c-0.83,0-1.54,0.01-2.13,0.03c-0.59,0.02-1.13,0.05-1.62,0.09v-1.56
		c0.51,0.04,1.05,0.07,1.64,0.09c0.59,0.02,1.29,0.03,2.11,0.03c0-0.55-0.02-1.07-0.06-1.57c-0.04-0.5-0.11-0.97-0.21-1.42
		c0.31,0.04,0.62,0.06,0.95,0.05c0.32-0.01,0.67-0.03,1.03-0.07c0.17-0.03,0.26-0.01,0.27,0.04c0.01,0.06-0.05,0.13-0.19,0.21
		c-0.1,0.06-0.16,0.16-0.19,0.32c-0.03,0.15-0.04,0.4-0.04,0.74v1.71c0.77,0,1.44-0.01,1.99-0.02c0.56-0.01,1.07-0.05,1.55-0.11
		v1.56c-0.48-0.04-0.99-0.07-1.55-0.09c-0.55-0.02-1.22-0.03-1.99-0.03v2.4c0.98,0,1.82-0.01,2.51-0.02
		c0.69-0.01,1.33-0.05,1.92-0.11v1.62c-0.7-0.07-1.51-0.11-2.42-0.13v2.15c0.49-0.03,0.94-0.06,1.34-0.08
		c0.4-0.03,0.69-0.07,0.87-0.13v1.69c-0.2-0.03-0.49-0.05-0.88-0.06c-0.39-0.01-0.84-0.03-1.33-0.04v5.33c0,0.27-0.03,0.5-0.09,0.71
		c-0.06,0.2-0.2,0.38-0.42,0.54c-0.22,0.15-0.53,0.29-0.94,0.4c-0.41,0.11-0.96,0.21-1.64,0.3c-0.01-0.45-0.06-0.83-0.15-1.15
		c-0.08-0.32-0.23-0.64-0.44-0.96c0.45,0.06,0.81,0.09,1.1,0.09c0.28,0.01,0.5-0.01,0.65-0.06c0.15-0.05,0.26-0.13,0.32-0.23
		c0.06-0.1,0.08-0.24,0.08-0.41v-4.57h-2.42c-0.76,0-1.46,0.01-2.1,0.03c-0.64,0.02-1.11,0.05-1.42,0.07V35.7
		c0.35,0.07,0.84,0.13,1.46,0.17c0.62,0.04,1.32,0.06,2.08,0.06h2.4v-2.19h-3.16c-0.63,0-1.19,0.01-1.68,0.03
		c-0.49,0.02-0.96,0.05-1.39,0.09v-1.62c0.58,0.03,1.19,0.05,1.85,0.07c0.66,0.02,1.45,0.04,2.36,0.05V29.97z M194.03,41.94
		c-0.06-0.35-0.11-0.67-0.17-0.96c-0.06-0.29-0.12-0.56-0.19-0.81c-0.07-0.25-0.15-0.5-0.24-0.74c-0.09-0.24-0.19-0.49-0.31-0.76
		l1.6-0.55c0.14,0.51,0.29,1.01,0.45,1.53c0.16,0.51,0.35,1.08,0.58,1.72L194.03,41.94z"/>
	<path class="st0" d="M205.53,28.96c0-0.95-0.02-1.68-0.06-2.19c0.18,0.03,0.35,0.05,0.52,0.05c0.16,0.01,0.35,0.02,0.58,0.03
		c0.22,0.01,0.49,0.02,0.81,0.02c0.32,0,0.72,0,1.21,0c0.49,0,0.9,0,1.23,0c0.33,0,0.61-0.01,0.83-0.02
		c0.22-0.01,0.42-0.02,0.58-0.03c0.16-0.01,0.32-0.02,0.47-0.05c-0.03,0.24-0.05,0.54-0.05,0.92c-0.01,0.37-0.01,0.8-0.01,1.27v3.33
		c0.29,0,0.55-0.02,0.76-0.06v2.82h-0.99v7.5c0,0.34-0.02,0.61-0.05,0.81c-0.04,0.2-0.13,0.37-0.28,0.49
		c-0.15,0.13-0.39,0.23-0.72,0.32c-0.32,0.08-0.77,0.18-1.35,0.29c0-0.32-0.05-0.66-0.14-1s-0.21-0.64-0.37-0.89
		c0.34,0.04,0.6,0.07,0.8,0.08c0.2,0.01,0.35,0,0.45-0.04c0.11-0.04,0.17-0.11,0.2-0.2c0.03-0.09,0.04-0.22,0.04-0.39v-1.52h-2.91
		v3.67h-1.48c0.04-0.46,0.07-0.91,0.08-1.33c0.01-0.42,0.02-0.9,0.02-1.43v-6.32h-1.16v-2.86c0.34,0.04,0.66,0.06,0.97,0.06V28.96z
		 M210.97,33.47h-4.99v1.12c0.34,0.01,0.7,0.03,1.07,0.03c0.38,0.01,0.88,0.01,1.52,0.01c0.46,0,0.89,0,1.27-0.01
		c0.39-0.01,0.76-0.02,1.13-0.03V33.47z M210.31,28.14h-3.5v4.17h0.95v-2.97h2.55V28.14z M210,37.09v-1.26h-2.91v1.26H210z
		 M207.09,38.21v1.18H210v-1.18H207.09z M210.31,30.5h-1.28v1.81h1.28V30.5z M218.17,42.68c0.28-0.52,0.48-0.93,0.59-1.24
		c0.11-0.31,0.2-0.62,0.25-0.93c0.28,0.14,0.55,0.26,0.8,0.36c0.25,0.1,0.5,0.17,0.74,0.21c0.15,0.03,0.24,0.08,0.26,0.16
		c0.02,0.08-0.05,0.16-0.2,0.24c-0.11,0.07-0.25,0.19-0.4,0.36c-0.15,0.17-0.37,0.45-0.63,0.84c0.73,0,1.4-0.01,2.01-0.03
		c0.61-0.02,1.18-0.06,1.72-0.12v1.52c-0.32-0.03-0.66-0.05-1-0.07c-0.34-0.02-0.73-0.04-1.17-0.04c-0.44-0.01-0.94-0.01-1.51-0.02
		c-0.57-0.01-1.23-0.01-1.99-0.01c-1.24,0-2.34,0.01-3.3,0.04c-0.96,0.03-1.75,0.06-2.37,0.11v-1.52c0.51,0.06,1.02,0.09,1.54,0.12
		c0.52,0.02,1.1,0.03,1.73,0.03c-0.11-0.27-0.23-0.53-0.36-0.79c-0.13-0.26-0.27-0.49-0.42-0.71l1.52-0.48
		c0.14,0.28,0.28,0.6,0.42,0.96c0.14,0.36,0.27,0.7,0.38,1.02H218.17z M222.89,36.04c-0.6-0.06-1.33-0.1-2.18-0.13
		c-0.85-0.03-1.86-0.04-3.04-0.04c-1.15,0-2.15,0.01-3,0.04c-0.85,0.03-1.58,0.07-2.18,0.13v-1.45c0.6,0.06,1.33,0.09,2.18,0.12
		c0.85,0.02,1.85,0.03,3,0.03c1.18,0,2.22-0.01,3.12-0.04c0.9-0.03,1.6-0.06,2.11-0.11V36.04z M218.21,27.85
		c0-0.44-0.01-0.85-0.03-1.23c-0.02-0.39-0.05-0.7-0.09-0.94c0.32,0.03,0.61,0.05,0.86,0.05c0.25,0.01,0.46,0,0.63-0.01
		c0.34-0.03,0.39,0.08,0.15,0.32c-0.1,0.1-0.16,0.24-0.19,0.43c-0.03,0.19-0.04,0.49-0.04,0.89v0.48c0.63,0,1.14-0.01,1.54-0.03
		c0.39-0.02,0.8-0.05,1.22-0.09c-0.01,0.39-0.02,0.87-0.02,1.44s0,1.15,0,1.74c0,0.63,0,1.22,0,1.75c0,0.53,0.01,1,0.02,1.41
		c-0.3-0.03-0.58-0.05-0.85-0.06c-0.27-0.01-0.58-0.03-0.93-0.04c-0.34-0.01-0.74-0.02-1.2-0.02c-0.46,0-1.01,0-1.67,0
		c-0.67,0-1.24,0-1.7,0c-0.46,0-0.85,0.01-1.19,0.02c-0.34,0.01-0.64,0.03-0.92,0.04c-0.27,0.01-0.56,0.04-0.85,0.06
		c0.01-0.21,0.03-0.42,0.04-0.62c0.01-0.2,0.02-0.42,0.03-0.66c0.01-0.24,0.01-0.51,0.01-0.81s0-0.66,0-1.06c0-0.39,0-0.74,0-1.05
		c0-0.31,0-0.59-0.01-0.83c-0.01-0.25-0.02-0.47-0.03-0.68c-0.01-0.21-0.03-0.41-0.04-0.61c0.79,0.07,1.68,0.11,2.7,0.13
		c-0.01-0.41-0.03-0.8-0.05-1.17c-0.02-0.37-0.05-0.68-0.07-0.92c0.32,0.03,0.6,0.04,0.84,0.04s0.44-0.01,0.61-0.02
		c0.14-0.01,0.23,0.01,0.26,0.06c0.03,0.06,0,0.14-0.12,0.25c-0.07,0.07-0.13,0.2-0.17,0.4c-0.04,0.2-0.06,0.51-0.06,0.93v0.42
		H218.21z M221.83,40.46c-0.55-0.01-1.14-0.02-1.79-0.03c-0.65-0.01-1.48-0.01-2.51-0.01c-0.51,0-0.96,0-1.37,0
		c-0.41,0-0.78,0-1.12,0c-0.34,0-0.65,0-0.95,0.01c-0.29,0.01-0.58,0.02-0.84,0.03c0.03-0.24,0.05-0.52,0.05-0.85
		c0.01-0.33,0.01-0.68,0.01-1.04c0-0.32,0-0.66-0.01-1.02c-0.01-0.36-0.03-0.65-0.05-0.87c0.27,0.01,0.54,0.03,0.83,0.04
		c0.29,0.01,0.6,0.03,0.94,0.03c0.34,0.01,0.71,0.01,1.12,0.01s0.87,0,1.39,0c1.02,0,1.86-0.01,2.51-0.02
		c0.65-0.01,1.24-0.03,1.79-0.06c-0.03,0.22-0.05,0.52-0.05,0.87c-0.01,0.36-0.01,0.7-0.01,1.02
		C221.77,39.33,221.79,39.96,221.83,40.46z M215.64,28.94h-1.26v1.33h1.26V28.94z M215.64,31.39h-1.26v1.43h1.26V31.39z
		 M220.26,37.96h-5.48v1.24h5.48V37.96z M218.21,28.94h-1.33v1.33h1.33V28.94z M218.21,31.39h-1.33v1.43h1.33V31.39z M219.5,30.27
		h1.33v-1.33h-1.33V30.27z M219.5,32.82h1.33v-1.43h-1.33V32.82z"/>
	<path class="st0" d="M227.03,37.98c0.01,0.88,0,1.64-0.04,2.26c-0.04,0.62-0.11,1.21-0.21,1.76h-1.2c0.28-1.22,0.43-2.58,0.44-4.09
		L227.03,37.98z M230.97,29.85c0.81-0.01,1.58-0.06,2.3-0.13v1.41c-0.37-0.03-0.74-0.05-1.12-0.06c-0.38-0.01-0.77-0.03-1.18-0.04
		v1.66c0.41,0,0.8-0.01,1.19-0.03c0.39-0.02,0.76-0.05,1.13-0.07V34c-0.37-0.03-0.74-0.05-1.13-0.07c-0.39-0.02-0.78-0.03-1.19-0.03
		v1.81c0.31,0,0.59,0,0.83-0.01c0.25-0.01,0.48-0.01,0.69-0.02c0.22-0.01,0.43-0.02,0.62-0.04c0.2-0.02,0.41-0.05,0.63-0.07
		c-0.04,0.14-0.08,0.33-0.1,0.56c-0.03,0.23-0.04,0.45-0.04,0.64c0,0.44-0.01,0.94-0.04,1.51c-0.03,0.57-0.07,1.13-0.12,1.67
		c-0.05,0.55-0.11,1.06-0.17,1.53c-0.06,0.47-0.12,0.83-0.18,1.06c-0.08,0.3-0.18,0.54-0.27,0.75c-0.1,0.2-0.25,0.38-0.45,0.53
		c-0.2,0.15-0.47,0.27-0.79,0.38c-0.32,0.11-0.74,0.21-1.26,0.31c0-0.36-0.03-0.66-0.09-0.89s-0.21-0.5-0.45-0.81
		c0.44-0.01,0.79-0.04,1.06-0.06c0.27-0.03,0.49-0.09,0.64-0.2c0.15-0.11,0.27-0.25,0.34-0.44c0.07-0.19,0.13-0.45,0.19-0.77
		c0.04-0.22,0.08-0.52,0.12-0.89c0.03-0.37,0.06-0.77,0.08-1.19c0.02-0.42,0.04-0.84,0.05-1.25c0.01-0.41,0.01-0.78,0-1.09h-3.31
		c-0.7,0-1.24,0.01-1.6,0.02c-0.37,0.01-0.69,0.04-0.97,0.06c0.04-0.49,0.07-1.2,0.09-2.13c0.02-0.93,0.03-2.04,0.03-3.35
		c0-0.93-0.01-1.78-0.02-2.55c-0.01-0.77-0.04-1.52-0.08-2.23c0.22,0.03,0.46,0.05,0.71,0.06c0.25,0.01,0.51,0.02,0.79,0.03
		c0.28,0.01,0.59,0.01,0.94,0.02s0.73,0.01,1.17,0.01c0.8,0,1.46-0.01,1.99-0.02c0.53-0.01,1.06-0.05,1.61-0.1v1.45
		c-0.45-0.04-0.88-0.07-1.31-0.09c-0.42-0.02-0.86-0.04-1.33-0.05V29.85z M227.45,41.45c0.03-0.25,0.05-0.53,0.07-0.83
		c0.02-0.3,0.04-0.61,0.05-0.93c0.01-0.32,0.02-0.62,0.01-0.93c-0.01-0.3-0.02-0.58-0.03-0.83l0.95,0.02
		c0.06,0.53,0.09,1.11,0.1,1.74c0.01,0.62,0.01,1.2,0,1.72L227.45,41.45z M229.58,29.85v-1.83l-1.66,0.02v1.81H229.58z
		 M227.91,31.01v1.71h1.66v-1.71H227.91z M229.58,33.87h-1.66v1.83h1.66V33.87z M229.18,41.33c0-0.25,0-0.53-0.01-0.82
		c-0.01-0.3-0.02-0.59-0.04-0.9c-0.02-0.3-0.05-0.6-0.07-0.89c-0.03-0.3-0.06-0.56-0.11-0.8l0.97-0.04
		c0.07,0.44,0.13,0.81,0.17,1.12c0.04,0.31,0.08,0.59,0.1,0.83c0.03,0.25,0.05,0.48,0.07,0.7c0.02,0.22,0.04,0.45,0.05,0.71
		L229.18,41.33z M230.76,40.93c-0.03-0.45-0.08-0.95-0.17-1.51c-0.08-0.55-0.19-1.06-0.32-1.53l0.93-0.21
		c0.14,0.48,0.27,0.97,0.39,1.47c0.12,0.51,0.23,1,0.33,1.48L230.76,40.93z M239.44,26.44c0.35,0.63,0.71,1.19,1.08,1.69
		c0.37,0.49,0.77,0.93,1.2,1.31c0.43,0.38,0.89,0.71,1.38,0.99s1.03,0.53,1.62,0.74c-0.23,0.27-0.41,0.54-0.56,0.81
		c-0.15,0.27-0.27,0.58-0.37,0.92c-1.08-0.63-1.99-1.31-2.72-2.02v1.1c-0.27-0.06-0.6-0.1-0.99-0.14c-0.39-0.03-0.84-0.05-1.35-0.05
		c-0.53,0-1,0.02-1.4,0.05c-0.4,0.04-0.73,0.08-1,0.14v-1.24c-0.25,0.31-0.54,0.65-0.86,1.01c-0.32,0.37-0.71,0.79-1.16,1.28
		c-0.2-0.21-0.4-0.41-0.62-0.59c-0.22-0.18-0.45-0.35-0.69-0.51c0.35-0.3,0.67-0.57,0.95-0.82c0.28-0.25,0.54-0.51,0.78-0.78
		c0.24-0.27,0.47-0.54,0.68-0.82c0.22-0.28,0.45-0.6,0.69-0.97c0.34-0.49,0.63-0.99,0.88-1.51c0.25-0.51,0.49-1.09,0.72-1.72
		c0.13,0.08,0.27,0.16,0.43,0.23c0.16,0.07,0.33,0.14,0.49,0.2c0.17,0.06,0.34,0.12,0.51,0.17c0.17,0.05,0.32,0.08,0.46,0.09
		c0.2,0.03,0.29,0.09,0.28,0.19c-0.01,0.1-0.15,0.18-0.43,0.25H239.44z M236.78,39.41c0.38,0.2,0.75,0.42,1.12,0.66
		c0.36,0.25,0.72,0.51,1.07,0.79L238,42.11c-0.15-0.15-0.39-0.37-0.69-0.64c-0.31-0.27-0.61-0.53-0.91-0.77
		c-0.27,0.8-0.57,1.51-0.92,2.14c-0.34,0.62-0.72,1.15-1.13,1.59c-0.2-0.25-0.39-0.46-0.57-0.61c-0.18-0.16-0.43-0.3-0.74-0.44
		c0.31-0.25,0.59-0.52,0.84-0.8c0.25-0.28,0.48-0.6,0.69-0.97c0.2-0.36,0.39-0.79,0.56-1.26c0.17-0.48,0.34-1.05,0.51-1.71
		c-0.27,0.01-0.51,0.02-0.72,0.02c-0.21,0-0.4,0.01-0.57,0.02c0.03-0.29,0.05-0.7,0.05-1.21c0.01-0.51,0.01-1.05,0.01-1.61
		c0-0.55,0-1.06-0.01-1.55c-0.01-0.48-0.03-0.87-0.05-1.17c0.25,0.03,0.54,0.05,0.86,0.06c0.32,0.01,0.71,0.02,1.16,0.02
		s0.85-0.01,1.19-0.02c0.34-0.01,0.63-0.03,0.87-0.06c-0.03,0.28-0.05,0.67-0.06,1.16c-0.01,0.49-0.02,1.01-0.02,1.56
		c0,0.56,0.01,1.1,0.02,1.62c0.01,0.52,0.03,0.93,0.06,1.22c-0.2-0.03-0.41-0.04-0.65-0.04s-0.51-0.01-0.82-0.02
		c-0.03,0.13-0.06,0.26-0.09,0.39C236.84,39.16,236.81,39.29,236.78,39.41z M237.14,34.52h-1.48v2.95h1.48V34.52z M240.57,30.35
		c-0.45-0.49-0.83-1-1.14-1.54c-0.31-0.53-0.58-1.12-0.8-1.75c-0.38,0.73-0.72,1.34-1.01,1.82c-0.29,0.48-0.62,0.96-0.99,1.42
		c0.52,0.08,1.22,0.13,2.11,0.13c0.36,0,0.7-0.01,1.01-0.02C240.06,30.4,240.34,30.38,240.57,30.35z M241.48,39.96
		c0.3,0.2,0.6,0.41,0.93,0.64s0.64,0.47,0.95,0.71c0.31,0.24,0.6,0.47,0.86,0.7c0.27,0.22,0.49,0.43,0.67,0.61l-1.29,1.33
		c-0.31-0.42-0.69-0.88-1.15-1.37c-0.46-0.49-0.94-0.96-1.44-1.41c-0.31,0.63-0.68,1.23-1.12,1.78c-0.44,0.56-0.97,1.1-1.6,1.63
		c-0.24-0.28-0.46-0.5-0.65-0.65c-0.2-0.15-0.44-0.29-0.74-0.4c0.51-0.28,0.94-0.57,1.32-0.87c0.37-0.3,0.7-0.64,0.98-1.01
		c0.28-0.37,0.52-0.8,0.71-1.27c0.19-0.48,0.35-1.03,0.49-1.66c-0.24,0.01-0.46,0.02-0.66,0.03c-0.2,0.01-0.38,0.03-0.54,0.05
		c0.03-0.31,0.05-0.71,0.06-1.21c0.01-0.5,0.02-1.02,0.02-1.57c0-0.55-0.01-1.07-0.02-1.58c-0.01-0.51-0.04-0.91-0.06-1.2
		c0.24,0.03,0.53,0.05,0.88,0.06c0.35,0.01,0.75,0.02,1.2,0.02c0.45,0,0.86-0.01,1.22-0.02c0.36-0.01,0.67-0.04,0.91-0.06
		c-0.03,0.29-0.05,0.69-0.06,1.2c-0.01,0.51-0.02,1.03-0.02,1.58c0,0.53,0.01,1.05,0.02,1.56c0.01,0.51,0.03,0.91,0.06,1.22
		c-0.2-0.03-0.43-0.05-0.7-0.06c-0.27-0.01-0.57-0.03-0.91-0.04c-0.04,0.23-0.09,0.45-0.15,0.66S241.55,39.76,241.48,39.96z
		 M241.99,34.57h-1.45v2.97h1.45V34.57z"/>
</g>
</svg>
