<!-- Generator: Adobe Illustrator 25.0.0, SVG Export Plug-In  -->
<svg version="1.1" xmlns="http://www.w3.org/2000/svg" xmlns:xlink="http://www.w3.org/1999/xlink" x="0px" y="0px"
	 width="309.02px" height="381.45px" viewBox="0 0 309.02 381.45"
	 style="overflow:visible;enable-background:new 0 0 309.02 381.45;" xml:space="preserve">
<style type="text/css">
	.st0{fill:#FFFFFF;}
</style>
<defs>
</defs>
<path class="st0" d="M264.86,92.59c0.63-0.9,1.38-1.96,2.48-1.95c0.76,0.01,1.4,0.57,1.83,1.19s0.72,1.34,1.2,1.93
	c0.6,0.74,1.49,1.24,2.43,1.38c0.37,0.05,0.76,0.05,1.11,0.18c1.09,0.39,1.43,1.73,1.87,2.8c0.52,1.27,1.38,2.36,2.12,3.51
	c1.15,1.8,2.05,3.96,1.55,6.04c-0.32,1.35-1.2,2.5-2.05,3.6c-0.62,0.8-1.24,1.6-1.86,2.4c-0.4,0.51-0.83,1.05-1.43,1.28
	c-0.74,0.28-1.56,0.06-2.32-0.17c-1.05-0.32-2.13-0.66-2.99-1.35c-0.5-0.4-0.9-0.91-1.29-1.41c-0.67-0.86-1.35-1.72-2.02-2.57
	c-0.51-0.65-1.05-1.36-1.14-2.18c-0.1-0.94,0.38-1.99-0.15-2.77c-0.17-0.24-0.41-0.42-0.58-0.67c-0.19-0.29-0.26-0.64-0.29-0.98
	c-0.12-1.37,0.29-2.86-0.36-4.08c-0.44-0.82-1.29-1.37-1.63-2.24c-0.33-0.86,0-2.06,0.86-2.44c0.35-0.16,0.88,0.01,1.31-0.2
	C264.06,93.62,264.51,93.08,264.86,92.59z"/>
<g>
	<path class="st0" d="M53.12,233.53c0.33-0.27,0.51-0.69,1.15-0.8c3.34,0.07,6.67-0.61,10.01-0.65c1.23-0.02,1.94,0.24,2.93,0.12
		c3.65,0.54,7.33,0.57,10.91-0.17c1.9-0.39,3.72-1.13,5.56-1.74c0.62-0.21,1.26-0.38,1.89-0.56c3.18-0.25,6.36-0.44,9.56-0.48
		c1.89-0.03,3.81-0.01,5.63-0.47c2.91,0.55,5.96,1.44,8.63,0.23c0.56-0.26,1.07-0.6,1.56-0.98c0.5-0.11,1.03-0.06,1.53-0.19
		c0.24-0.06,0.45-0.16,0.66-0.28c0.03,0.01,0.05,0.03,0.08,0.03c0.86,0.26,1.79-0.32,2.28-1.08c0.12-0.2,0.33-0.62,0.56-1.13
		c0.06-0.08,0.11-0.18,0.16-0.27c0.16-0.28,0.43-0.48,0.74-0.56c0.15-0.04,0.32-0.06,0.41-0.18c0.08-0.11,0.06-0.27,0.16-0.36
		c0.13-0.13,0.36-0.04,0.54-0.04c0.45-0.01,0.64-0.57,0.7-1.01c0,0,0,0,0-0.01c0.25-0.12,0.49-0.25,0.7-0.43
		c0.76-0.64,1.56-1.74,1.28-2.7c-1.24-4.27-2.45-4.22-4.51-5.48c-0.33-0.2-0.67-0.41-1.01-0.61c-0.16-0.25-0.32-0.5-0.47-0.75
		c-0.67-1.06-1.54-1.86-2.5-2.26c-0.09-0.12-0.16-0.25-0.17-0.4c-0.01-0.13,0.01-0.31-0.13-0.36c-0.07-0.03-0.15-0.01-0.21-0.04
		c-0.08-0.04-0.1-0.13-0.12-0.2c-0.08-0.2-0.31-0.35-0.56-0.35c0.12-0.15-0.07-0.35-0.27-0.38c-0.2-0.03-0.41,0.04-0.61,0.01
		c-0.01,0-0.02-0.01-0.03-0.01c-0.18-0.29-0.38-0.56-0.66-0.76c-1.05-0.75-2.49-0.15-3.63,0.46c-2.51,1.36-5.03,2.72-7.54,4.08
		c-0.97,0.52-2.06,0.27-3.16,0.39c-1.95,0.22-3.79-0.11-5.71,0.18c-0.75-1.7-1.68-3.39-1.65-5.22c0.03-1.95,0.61-2.36,0.38-6.17
		c-0.04-0.59-0.92-0.48-1.28-0.96c-0.5-0.66-1.1-1.35-1.21-2.17c-0.54-3.9-2.51-3.4-4.32-4.44c-0.81-0.65-0.39-1.28-0.8-1.8
		c-0.74-0.95-1.79-0.58-2.94-0.95c-0.01-0.08-0.02-0.16-0.03-0.24c-0.04-0.28-0.08-0.56-0.12-0.83c-0.01-0.05-0.02-0.11-0.05-0.14
		c-0.03-0.03-0.06-0.04-0.1-0.05c-0.27-0.09-0.55-0.19-0.84-0.21c-0.16-0.01-0.3,0.01-0.43,0.05c-0.44-0.62-0.93-1.15-1.64-1.37
		c-1.39-0.43-2.82,0.62-3.59,1.85c-0.77,1.23-1.15,2.68-2.01,3.85c-0.84,1.15-2.14,2.01-2.57,3.37c-0.68,2.03,0.99,3,0.81,7.96
		c-0.41,0.46-0.6,0.73-0.28,1.19c0.22,0.32,0,0.3,0.31,0.54c-0.09,1.05-0.37,2.08-0.38,3.12c-0.05,4.1-1.17,4.86-2,5.24
		c-0.19,0.09-2.31,0.14-2.46,0.15c-1.3-0.09-2.59-0.01-3.35,0.02c-1.21,0.05-2.21-0.16-3.63-0.05c-0.76,0.06-3.26,0.11-4.01,0.26
		c-0.69,0.14-1.29,0.18-2.16-0.18c-0.82-0.34-1.7-1.01-2.34-0.55c-0.5,0.36-0.28,0.37-0.67,0.85c0,0,0,0,0,0
		c-2.36,0.2-6.92-0.63-8.42-5.12c-0.49-1.48-1.15-1.15-2.14,0.36c-1.21,2.03-0.26,3.04-1.77,3.45c-0.54,0.15-1.17,0.06-1.71-0.07
		c-0.71-0.18-1.47-0.16-2.17,0.05c0.18-0.65,0.4-1.3,0.69-1.92c1.16-1.15,2.25-2.37,3.07-3.79c0.36-0.63,0.67-1.29,1.1-1.87
		c0.15-0.21,0.32-0.41,0.41-0.65c0.21-0.55,0-1.17-0.28-1.69c-0.35-0.62-0.83-1.23-1.4-1.72c-0.22-0.49-0.49-0.97-0.74-1.45
		c0.06-1.18,0.25-2.32,0.82-3.34c0.32-0.57,0.76-1.09,1.01-1.69c0.59-1.4,0.14-3.03-0.57-4.37c-0.71-1.34-1.68-2.56-2.2-3.99
		c-0.46-1.26-0.54-2.6-0.61-3.95c0.25-0.44,0.52-0.87,0.75-1.32c0.9-1.74,1.19-3.68,1.36-5.66c0.01-0.01,0.02-0.03,0.04-0.04
		c0.58-0.43,0.75-0.2,1.18-0.78c0.54-0.72,0.21-1.19,0-2.06c-0.37-1.54-0.08-3.33,0.31-5.59c0.65-4.99,0.38-8.46,0.76-12.55
		c0.31-4.07,0.61-8.15,1.05-12.21c0.07-0.18,1.35-3.12,1.43-4.51c0.06-1-0.18-1.98-0.38-2.97c0.56-3.17,1.26-6.32,2.24-9.4
		c0.35-1.11,0.74-2.22,0.84-3.38c0.1-1.16-0.11-2.4-0.84-3.3c-0.31-0.39-0.71-0.7-1.1-1c-0.03-0.02-0.06-0.04-0.08-0.06
		c-0.38-1.46-0.64-2.92-0.25-4.36c0.2-0.72,0.55-1.39,0.91-2.05c0.19-0.08,0.38-0.13,0.59-0.15c1.97-0.2,2.03-3.45,0.7-5
		c0.02-0.32,0.04-0.64,0.09-0.96c0.33-2.05,1.58-3.66,3.15-5.06c1.02-0.5,1.97-1.14,2.78-1.97c0.43-0.43,1.03-0.72,1.47-1.2
		c2.15-0.72,3.9-0.85,5.95-1.1c0.26,0.25,0.24,0.26,1.12,0.3c1.43-0.12,1.64-0.38,3.82-0.83c1.95-0.29,5.52-0.66,8.81,0.19
		c1.97,1.14,3.59,2.58,5.35,3.91c0.07,1.78,0.52,3.55,0.12,5.71c-0.17,0.45-0.71,0.93-0.79,1.41c-0.13,0.78,0.17,0.65,0.04,1.65
		c-0.05,0.39-0.52,0.52-0.52,0.91c-0.01,2.55-0.97,4.16-0.95,6.7c0.05,6.25-0.7,8-0.7,9.63c0,0.71,0,1.44-0.29,2.09
		c-0.7,0.2-1.05,0.16-1.74,0.29c-0.7,0.13-1.15,0.2-1.82,0.3c-0.29,0.05-0.55,0.22-0.81,0.36c-0.61,0.32-1.21-0.04-1.99,0.45
		c-0.38,0.16-0.75,0.33-1.14,0.47c-1.97,0.7-4.32,0.9-6.02-0.31c-0.9-0.64-1.52-1.61-2.41-2.25c-2.09-1.5-4.16-0.52-5.81,0.92
		c-0.5,0.44-2.11,1.47-2.38,1.85c-1,1.37,0.38,1.85,0.53,4.42c-0.28,3.18-0.97,3.3-1.72,4.87c-0.75,1.56-1.21,3.37-0.6,5
		c0.66,1.8,1.62,0.85,2.92,2.63c0.39,2.42,1.63,2.79,2.03,4.33c0.11,0.43,0.23,1.01,0.66,1.09c0.95,0.16,0.8-0.49,1.12-0.66
		c3.04-1.64,5.54-3.59,9.03-4.47c1.63-0.22,3.22-0.73,4.87-0.8c1.08-0.05,2.22,0.08,3.25-0.19c7.94,0.72,15.84-1.77,23.81-2.55
		c-0.41,1.63-0.39,3.36-0.23,5.1c-0.31,0.76-0.48,1.65-0.57,2.24c-0.16,1.05-0.04,2.13-0.26,3.17c-0.05,0.23-0.12,0.46-0.19,0.68
		c-0.39,0.03-0.79,0.01-1.16,0c-2.53-0.09-4.92,1.19-6.84,2.84c-1.92,1.65-3.47,3.67-5.24,5.47c-0.22,0.23-0.46,0.45-0.7,0.67
		c-0.84,0.42-1.96,0.96-2.88,1.19c-0.26,0.07-1.2,0.16-1.43,0.06c-0.25-0.11-0.07,0.01-0.41-0.44c-0.19-0.25-1.41-0.39-1.93,0.1
		c-0.3,0.27-0.7,0.35-1.29,0.43c-1.15-0.03-2.3-0.07-3.45-0.13c-0.39-0.2-0.76-0.46-1.05-0.8c-0.3-0.35-0.56-0.76-0.97-0.97
		c-0.42-0.21-0.93-0.17-1.39-0.09c-1.05,0.17-2.08,0.45-3.07,0.84c-0.45,0.18-0.9,0.38-1.36,0.56c-1.34-0.08-2.67-0.14-4.01-0.19
		c-0.24-0.01-0.49-0.01-0.74-0.01c-0.3-0.25-0.57-0.55-0.82-0.87c-0.42-0.82-0.23-1.04-0.23-1.58c0-0.41-0.11-0.74-0.44-0.98
		c-0.19-0.14-0.75-0.12-1.11-0.16c-0.04,0-0.37-0.35-0.41-0.35c-0.39-0.47-0.83-0.88-1.35-1.18c-2.59-1.49-5.89,0.46-7.63,2.88
		c-1.07,1.48-1.87,3.33-1.45,5.1c0.3,1.25,1.17,2.33,1.31,3.61c0.11,1.07-0.32,2.13-0.39,3.2c-0.17,2.47,1.51,4.65,3.09,6.55
		c1.35,1.62,2.47,2.9,3.8,4.54c0.71,0.87,1.69,0.98,2.83,0.76c0.73-0.14,0.63-0.69,1.34-1.72c1.79-2.62,5.34-3.22,8.5-3.51
		c4.04-0.36,8.09-0.58,12.14-0.64c2.34-0.04,4.7-0.03,7.02,0.29c0.55,0.08,1.09,0.18,1.63,0.29c0.09,0.16,0.18,0.32,0.27,0.47
		c1.61,2.78,2.69,2.36,5.57,1.87c1.24-0.2,2.46,0.29,3.58,0.86c2.05,1.05,4.05,1.44,5.12,1.84c0.58,0.22,1.2,0.43,1.82,0.37
		c1.71-0.17,2.66-2.28,4.34-2.64c1.87-0.4,3.74,1.55,5.54,0.91c1.05-0.37,1.63-1.51,1.89-2.6c0.12-0.51,0.2-1.04,0.29-1.55
		c1.06-0.96,1.88-2.4,2.44-3.75c0.05-0.12,0.1-0.25,0.15-0.37c0.46-0.41,0.92-0.83,1.31-1.3c0.86-1.02,1.42-2.31,1.57-3.64
		c0.12-0.99,0.31-1.64,0.85-2.48c0.33-0.51,0.83-1.2,0.92-1.8c0.73-4.87-1.61-3.7-0.44-9.81c0.08-0.42,0.39-0.54,0.61-0.91
		c0.7-1.22-0.89-1.21-0.26-2.47c0.22-0.43-0.97-0.92-1.08-1.08c0-1.87,0.14-4.13,0.35-5.99c0.08-0.72,0.19-1.44,0.32-2.16
		c1.16-0.83,2.66-1.37,3.29-2.63c0.68-1.36,0.07-3.02,0.38-4.51c0.37-1.78,2.04-3.25,1.87-5.06c-0.11-1.18-0.99-2.14-1.93-2.86
		c-0.35-0.27-0.71-0.5-1.08-0.73c-0.58-1.31-1.58-2.42-2.89-3c-3.04-1.35-6.8,0.3-9.84-1.06c-0.34-0.15-0.67-0.34-1.03-0.42
		c-0.37-0.08-0.76-0.04-1.15,0c-1.14,0.12-2.29,0.25-3.43,0.39c-0.34-0.19-0.39-0.77-0.88-0.76c-0.77,0.45-1.31,0.8-2.1,1.21
		c-1.04,0.18-2.49,0.98-3.1,0.66c-1.36-1.04-1.14-2.5-1.08-3.68c0.03-0.39,0.11-1.01,0.13-1.18c0.07-0.52,0.44-0.59,0.77-1.22
		c0.39-0.75,0.09-1.33,0.02-2.25c-0.4-5.75-0.21-10.88-0.05-15.41c0-0.05,0-0.11,0-0.17c1.16-0.52,2.29-1.13,3.41-1.75
		c4.56-2.54,9.13-5.09,13.69-7.63c0.27-0.15,0.55-0.31,0.83-0.46c0.2,0,0.39-0.02,0.59-0.02c1.24,0.01,2.56,0.12,3.66-0.47
		c1.53-0.81,2.01-2.53,2.06-4.35c0.03-0.04,0.06-0.07,0.09-0.11c1.86-2.39,2.65-5.89,1.08-8.48c-0.71-1.17-1.72-1.95-2.89-2.52
		c-0.11-0.85-0.36-1.68-1.05-2.12c-0.74-0.47-0.96-0.08-1.69,0.41c-0.25,0.16-5.77-0.58-7.6-1.6c-0.48-0.27-0.97-0.59-1.48-0.81
		c-0.19-0.66-0.19-0.77-0.66-1.25c-0.97-0.99-1.82-0.82-2.84,0.13c-0.55,0.51-2.17,0.8-3.09,0.91c-0.8,0.34-1.65-0.19-1.94-0.23
		c-1.83-0.23-2.41-0.02-4.4,0.66c-1.33,0.46-2.6,1.19-4.01,1.28c-0.41,0.03-0.8,0.09-1.19,0.16c-0.29-0.24-0.58-0.5-0.9-0.7
		c-0.86-0.53-1.99-0.58-2.88-0.12c-0.76,0.38-1.31,1.06-1.9,1.67c-0.67,0.7-1.42,1.32-2.19,1.91c-0.01,0-0.03,0.01-0.04,0.01
		c-4,0.72-20.72,1.99-22.44,1.94c-1.73-0.05-3.46-0.08-5.18-0.09c-0.13-0.1-0.27-0.18-0.39-0.29c-0.23-0.2-0.81-0.63-2.26,0.31
		c-2.66,0.03-5.32,0.12-7.97,0.26c-0.02-0.51-0.4-0.07-0.96-0.24c-0.17-0.07-0.45-0.32-0.63-0.34c-0.72-0.06-1.73,0.08-2.69-0.05
		c-2.98-1.11-6.08-1.76-8.81-0.37c-1.27,0.65-2.3,1.69-3.45,2.53c-3.36,0.46-6.7,1.01-10.03,1.65c-0.39,0.08-0.55-0.49-1.05-0.7
		c-1.1-0.23-2.36,0.57-3.49,0.54c-2.75-0.07-9.4,3.61-8.3,7.05c0.17,0.53,0.48,1.04,0.7,1.55c0.26,0.88-0.62,1.56-0.3,2.44
		c-0.41,0.59-0.91,1.14-1.03,1.83c-0.26,1.5,1.32,2.58,2.55,3.48c0.9,0.65,1.71,1.41,2.49,2.19c0.56,0.84,1.15,1.9,1.11,3.2
		c-0.01,0.47,0.22,1.73,0.84,1.52c1.22-0.42,0.58-0.5,1.68-0.72c0.13,0.11-0.01,0.37,0.38,0.76c2.15,2.15,6.27,2.5,8.89,0.97
		c1.01-0.59,2.01-1.18,2.78-2.11c1.51-0.31,2.48-2.07,3.99-2.73c0.17-0.07,0.35-0.12,0.53-0.17c0,0.06,0,0.11-0.01,0.17
		c-0.16,2.28-1.24,4.21-1.54,6.43c-0.34,2.48,0.56,4.91,1.18,7.28c0.38,1.45,0.59,2.68,0.68,3.85c-0.04,1.34-0.06,2.68-0.05,4.02
		c-0.18,2.49-0.53,5.51-0.58,10.38c-0.23,1.71-0.05,2.34,0.14,3.03c-0.07,0.21-0.15,0.42-0.21,0.64c-0.51,1.68-0.67,3.45-0.82,5.2
		c-0.69,8.14-1.38,16.28-2.08,24.42c-0.86,4.16-2.13,8.23-3.75,12.15c-0.7,1.7-1.23,1.62-1.62,2.41c-0.23,0.27,0.22,0.53-0.18,1.1
		c-1.04,1.5-1.94,2.52-2.86,4.1c-0.51,0.88-1.02,1.76-1.34,2.72c-0.15,0.45,0.25,1.04-0.38,1.38c-2.05,1.06-2.58,2.51-2.63,4.3
		c-0.03,1.29,0.54,2.29,0.9,3.55c-0.3,0.71-0.46,1.52-0.5,2.05c-0.1,1.19,0.08,2.39,0.16,3.59c0.05,0.84,0.04,1.68,0.04,2.52
		c0,0.62-0.01,1.24-0.01,1.87c-0.01,1.76-0.02,3.53-0.06,5.29c0,0.11,0,0.22,0,0.32c-1.33,1.69-0.6,2.19-0.42,3.85
		c0.13,1.17,0.68,2.23,1.09,3.34c0.02,0.17,0.05,0.33,0.06,0.5c0.12,1.3,0.04,2.62,0.19,3.92c0.1,0.83,0.32,1.66,0.71,2.4
		c0.03,0.29,0.07,0.57,0.12,0.86c0.4,2.37,1.8,4.9,4.16,5.3c0.8,0.14,1.69-0.02,2.28-0.58c0.2-0.2,0.27-0.5,0.57-0.26
		c0.54,0.36,0.63-0.27,1.08-0.27c0.72,0,0.11-0.41,0.18-0.84c0.05-0.33,0.15-0.9,0.51-1.05c0.83-0.34,1.74-0.57,2.64-0.79
		c3.44-0.8,5.27-4.62,5.82-8.12c0.39-2.49,0.42-5.09,0.96-7.53c1.03,0.89,2.03,1.84,2.65,3.05c1.47,2.87,0.56,6.62,2.37,9.28
		c1.29,1.9,3.33,3.57,5.54,4.21c3.46,1.01,7.01,0.65,10.56,1.29C51.66,233.86,52.46,234.07,53.12,233.53z"/>
	<path class="st0" d="M308.97,67.49c-0.15-0.57-0.58-1.01-1-1.42c-1.86-1.83-4.04-3.8-6.65-3.65c-0.72,0.04-1.46,0.25-2.16,0.04
		c-0.55-0.16-1-0.56-1.45-0.92c-2.61-2.11-5.94-3.3-9.29-3.33c-3.92-0.03-7.63,1.6-11.16,3.3c-5.71,2.75-21.86,3.04-28.67,3.86
		c-1.78,0.27-2.32,0.38-4.11,0.18c-1.8-0.2-3.92-0.53-5.14,0.81c-0.23,0.25-0.42,0.55-0.62,0.83c-0.03,0-0.06,0-0.09,0.01
		c-3.85,0.24-7.69,0.07-11.53-0.21c-0.75-0.24-1.49-0.5-2.21-0.8c-0.93-0.39-1.88-0.84-2.89-0.8c-0.96,0.04-1.81,0.5-2.67,0.96
		c-1.38-0.11-2.75-0.22-4.13-0.3c-1-0.06-2.29-0.23-3.62-0.34c-0.63-0.52-1.2-1.13-1.66-1.8c-0.1-0.14-0.2-0.29-0.31-0.42
		c0.27-0.66,0.5-1.13,0.65-1.28c1.21-1.49,1.49-1.23,1.77-1.84c0.27-0.61,0.02-0.87,0.22-1.35c0.21-0.48,0.14-0.52,0.54-0.61
		c0.49-0.11,0.19-0.28,0.43-0.92c0.24-0.64,1.1-1.18,1.51-1.87c0.4-0.68,0.55-1.26,0.33-1.48s0.21-0.48,0.43-0.59
		c0.58-0.27,1.45-0.6,1.89-1.37c0.56-0.97,0.25-2.14,0.18-3.28c0.92-1.73,1.9-3.42,2.97-5.07c0.57-0.46,1.15-0.91,1.69-1.36
		c3.6-3.01,5.65-7.7,5.69-12.38c0.11-0.15,0.21-0.31,0.27-0.49c0.11-0.33,0.11-0.68,0.09-1.04c0.49-1.31,1.13-2.53,2.04-3.59
		c0.48-0.56,1.03-1.06,1.44-1.68c0.72-1.11,0.89-2.46,1.26-3.73c0.43-1.48,1.16-2.87,2.12-4.08c0.94-1.18,0.13-1.61-0.88-1.49
		c-0.05-0.08-0.1-0.17-0.14-0.25c-0.05-0.1-0.08-0.21-0.13-0.3c-0.06-0.1-0.14-0.18-0.22-0.26c-0.32-0.31-0.63-0.62-0.95-0.93
		c-0.01-0.01-0.02-0.03-0.04-0.04c0.05-0.24,0.08-0.48,0.11-0.71c0.05-0.36,0.09-0.74-0.06-1.07c-0.18-0.41-0.6-0.65-1-0.83
		c-0.1-0.05-0.21-0.09-0.32-0.14c-0.15-0.33-0.26-0.68-0.28-1.04c-0.01-0.12,0-0.26-0.07-0.36c-0.04-0.07-0.12-0.13-0.17-0.2
		c-0.13-0.18-0.1-0.43-0.16-0.64c-0.12-0.47-0.64-0.76-1.11-0.71c-0.1,0.01-0.19,0.04-0.28,0.07c-0.12-0.24-0.24-0.47-0.35-0.71
		c-0.1-0.21-0.21-0.42-0.4-0.56c-0.55-0.41-1.25,0.05-1.93,0.4c-0.06-0.06-0.14-0.11-0.21-0.16c-0.31-0.23-0.42-0.73-0.8-0.78
		c-0.09-0.01-0.19,0.01-0.29-0.01c-0.21-0.05-0.33-0.27-0.48-0.42c-0.22-0.21-0.55-0.3-0.74-0.55c-0.17-0.24-0.18-0.58-0.39-0.78
		c-0.25-0.24-0.67-0.18-0.95-0.39c-0.13-0.1-0.21-0.24-0.33-0.34c-0.07-0.06-0.16-0.08-0.25-0.11c-0.32-0.68-0.57-1.39-0.72-2.13
		c-0.03-0.15-3.29,1.61-3.46,2.2c-0.2,0.68-0.1,1.43-0.4,2.06c-0.23,0.49-0.68,0.86-0.81,1.38c-0.23,0.93,0.61,1.73,1.15,2.51
		c1.4,2.02,0.95,4.74,0.46,7.15c-0.29,1.42-0.59,2.83-0.88,4.25c-0.18,0.86-0.37,1.75-0.85,2.49c-0.16,0.25-0.35,0.5-0.55,0.75
		c-1.1,0.7-2.01,1.69-2.46,2.95c-0.59,1.66-0.31,3.48-0.22,5.23c0.05,0.92,0.03,1.84-0.02,2.75c-0.15,0.54-0.3,1.08-0.47,1.61
		c-0.58,1.81-1.4,3.52-2.23,5.24c-0.43,0.88-0.85,1.77-1.38,2.6c-0.33,0.52-0.71,1.02-1.05,1.54c-0.77,1.19-1.35,2.49-1.99,3.75
		c-1.95,3.82-4.48,7.31-7,10.79c-3.91,5.38-13.48,20.14-13.78,20.99c-0.8,2.29-2.92,3.81-4.65,5.51c-1.94,1.91-3.47,4.19-4.98,6.45
		c-0.43,0.65-0.86,1.29-1.3,1.94c-0.78,1.16-1.56,2.33-2.47,3.39c-1.83,2.14-4.19,3.82-6.8,4.86c-0.5,0.2-1.03,0.39-1.38,0.8
		c-0.47,0.55-0.49,1.35-0.78,2.02c-0.88,2.02-4.23,2.38-6.68,3.16c-1.12,0.63-0.82,0.87-1.66,1.07c-0.84,0.2-0.78-0.59-1.76-0.1
		c-0.84,0.55-0.33,0.89-1.27,1.17c-0.94,0.29-0.57-0.25-1.56,0.59c-0.96,1.31-1.59,2.08-2.62,2.85c-1.03,0.77-2.26,1.26-3.2,2.14
		c-2.07,1.95-2.12,5.18-2.02,8.02c0.03,0.73,0.07,1.52,0.53,2.08c0.65,0.79,1.05,2.1,1.72,2.28c0.99,0.11,1.31-0.04,1.7-0.58
		c0.39-0.54,1.06-0.61,1.53-1.07c0.83-0.8,2.42-0.39,3.03,0.59c0.39,1.4,0.2,0.78,1.17,0.98c0.98,0.1,0.55-0.37,1.37-1.07
		c6.15,0.39,7.8-1.56,11.24-4.14c7.9-5.92,15.26-12.63,21.39-20.37c1.85-2.34,3.56-4.76,5.19-7.25c1.68-0.31,3.37-1.13,4.11-2.66
		c0.48-0.97,0.51-2.1,0.85-3.12c0.75-2.26,2.87-3.78,4.03-5.87c0.76-1.37,1.1-2.94,1.78-4.34c0.27,0.06,0.53,0.09,0.79,0.11
		c2.35,0.18,5.01-0.07,6.77,1.5c0.6,0.54,1.04,1.25,1.71,1.69c1.13,0.74,2.65,0.55,3.88,0c1.23-0.55,2.31-1.4,3.52-1.99
		c0.21-0.1,0.42-0.17,0.63-0.26c1.42,0.2,2.86,0.62,4.27,0.39c2.69-0.44,5.9-0.36,8.08-0.37c0.51,0.57,0.86,1.28,1.17,2.28
		c0.41,1.31,0.76,2.65,1.06,3.99c0.17,0.76,0.32,1.54,0.21,2.3c-0.08,0.6-0.32,1.16-0.51,1.74c-0.25,0.81-0.4,1.65-0.54,2.48
		c-0.12,0.72-0.24,1.43-0.37,2.15c-0.82,1.84-1.27,4.01-1.46,5.69c-0.06,0.48-0.1,0.97-0.3,1.4c-0.49,1.06-1.83,1.55-2.28,2.64
		c-0.47,1.13,0.22,2.42,1.05,3.33c0.41,0.45,0.87,0.89,1.27,1.35c0.12,2,0.34,4-0.05,5.95c-0.17,0.86-0.46,1.72-0.4,2.6
		c0.08,1.07,0.67,2.03,1.24,2.94c0.8,1.26,1.6,2.53,2.4,3.79c0.71,1.12,1.49,2.3,2.7,2.85c1.33,0.6,2.93,0.28,4.19-0.47
		c0.55-0.33,1.04-0.74,1.51-1.18c1.5-0.32,2.9-1.23,4.03-2.31c1.96-1.86,3.33-4.29,4.02-6.89c0.42-0.51,0.82-1.06,1.13-1.63
		c0.71-0.61,1.4-1.34,1.22-2.13c-0.1-0.42-0.4-0.72-0.76-0.92c-0.16-0.6-0.42-1.18-0.59-1.78c-0.36-1.23-0.36-2.54-0.37-3.83
		c-0.01-1.62-0.04-3.26-0.12-4.9c0.14-0.39,0.3-0.79,0.47-1.17c0.26-0.56,0.57-1.14,0.54-1.76c-0.02-0.49-0.26-0.94-0.56-1.33
		c-0.29-0.38-0.6-0.69-0.91-0.93c-0.2-1.5-0.47-2.99-0.83-4.45c-0.01-0.11-0.01-0.23-0.02-0.34c-0.11-1.63-0.21-3.26-0.32-4.9
		c-0.02-0.34-0.05-0.69-0.2-1c-0.18-0.36-0.51-0.61-0.83-0.85c-0.61-0.45-1.23-0.9-1.93-1.17c-0.33-0.77-0.56-1.57-0.57-2.4
		c0-0.18,0.02-0.35,0.03-0.53c0.99-0.06,1.98-0.19,2.94-0.45c2.09-0.56,4.17-1.67,6.3-1.26c0.54,0.1,1.09,0.31,1.63,0.21
		c0.52-0.1,0.94-0.46,1.38-0.74c0.35-0.23,0.72-0.4,1.11-0.54c1.32,0.07,4.34-0.11,11.51,0.42c0.72,0.23,1.4,0.59,1.96,1.1
		c0.12,0.11,0.24,0.23,0.4,0.28c0.23,0.07,0.47-0.03,0.67-0.15c0.31-0.17,0.58-0.4,0.83-0.65c1.15,0.29,2.18,0.84,3.23,1.4
		c4.82,2.6,6.62,2.55,7.58,2.46c1.26-0.11,2.34-0.9,3.52-1.36c1.18-0.46,2.76-0.47,3.45,0.6c0.18,0.28,0.3,0.64,0.58,0.81
		c0.65,0.4,1.35-0.41,1.82-1.02c1.73-2.23,4.85-2.65,7.37-3.96c0.9,0.21,1.8,0.49,2.58,0.07c0.79-0.42,1.1-1.37,1.38-2.22
		c0.22-0.67,1.18-2.17,1.09-2.82c-0.04-0.29-0.12-0.47-0.22-0.58c0.53-1.13,0.98-2.32,1.41-3.48
		C308.9,68.79,309.13,68.13,308.97,67.49z"/>
	<path class="st0" d="M283.39,137.25c-0.87-1.59-2.04-3-3.65-3.78c-1.15-0.56-2.47-0.78-3.53-1.5c-0.36-0.24-0.7-0.55-1.13-0.59
		c-0.46-0.04-0.79,0.15-1.02,0.44c-0.5-0.14-1.01-0.29-1.51-0.42c-0.98-0.27-2.18-0.49-2.9,0.24c-0.49,0.49-0.59,1.3-1.17,1.69
		c-0.65,0.44-1.51,0.11-2.29,0.04c-2.14,1.54-1.05,1.71-12.46,2.83c-0.46,0.24-0.87,0.62-1.38,0.68c-0.39,0.05-0.78-0.1-1.17-0.15
		c-0.55-0.08-1.08,0.02-1.6,0.19c-0.38-0.23-2.11,0.41-2.25,0.89c-0.05,0.24-2.7,0.4-3.52,0.41c-2.21,0.05-7.81,0.69-8.37,0.69
		c-2.2-0.01-2.92,0.47-3.09,0.63c-0.41,0.35-0.61,0.34-1.12,0.58c-1.06,0.33-2.13,0.64-3.22,0.8c-1.74,0.25-3.62,0.09-5.07-0.89
		c-0.02-0.03-0.38-0.32-0.44-0.49c-0.09-0.25,0.13-0.49,0.31-0.68c0.18-0.19,0.34-0.51,0.15-0.7c-0.07-0.07-0.17-0.1-0.26-0.13
		c-0.65-0.27-0.96-1.19-1.66-1.25c-0.25-0.02-0.49,0.08-0.72,0.2c-0.25-0.37-0.49-0.74-0.76-1.09c-0.68-0.9-1.48-1.35-2.32-1.79
		c-0.04-1.32-0.08-2.65-0.12-3.97c-0.1-3.22-0.63-7.11-3.58-8.4c-0.23-0.97,1.46-1.8,0.44-2.14c-2.71-0.9-4.63,3.05-5.31,4.52
		c-1.3,1.36-0.81,1.92-1.18,3.21c-1.03,3.51-2.06,7.06-2.33,10.71c-0.15,1.94-0.08,3.88,0.01,5.82c0.12,2.76,0.27,5.54,0.41,8.31
		c-0.05,0.13-0.09,0.25-0.12,0.34c-0.11,0.34-0.36,0.66-0.4,1.01c-0.04,0.3,0.08,0.61,0.2,0.9c0.16,0.4,0.32,0.8,0.48,1.21
		c0.15,3.52,0.23,7.04,0.16,10.54c0.03,0.33,0.17,0.4,0.17,0.99c0,0.54-0.21,0.72-0.25,1.17c-0.2,5.02-0.76,10-1.99,14.88
		c-0.68,2.68-1.55,5.34-2.38,7.99c-0.87,2.46-0.33,2.59-0.61,3.51c-0.25,0.83-0.47,0.58-0.91,1.8c-0.63,2.54-1.08,5.1-1.14,7.73
		c-0.02,1.02,0.01,2.09-0.47,2.99c-0.45,0.85-1.28,1.43-1.87,2.19c-0.99,1.27-1.27,2.94-1.44,4.55c-0.16,1.49-0.25,3-0.28,4.5
		c-0.07,0.19-0.14,0.35-0.19,0.46c-0.52,1.1-1.04,2.41-0.47,3.49c0.18,0.35,0.47,0.63,0.77,0.9c0.22,3.38,0.75,6.73,1.59,10.01
		c0.17,0.65,0.36,1.32,0.66,1.93c0.13,0.59,0.34,1.15,0.67,1.67c0.42,0.67,1.02,1.23,1.74,1.56c0.65,0.29,1.38,0.38,2.09,0.45
		c1.95,0.22,3.9,0.43,5.85,0.65c1.11,0.12,2.3,0.27,3.16,0.99c0.3,0.25,0.56,0.56,0.91,0.75c1.15,0.61,2.41-0.47,3.4-1.31
		c1.16-0.98,2.51-1.74,3.95-2.22c0.52-0.17,1.1-0.31,1.62-0.14c0.44,0.14,0.79,0.48,1.21,0.69c0.87,0.43,2.03,0.17,2.64-0.59
		c0.37-0.47,0.56-1.1,1.05-1.44c0.31-0.22,0.71-0.28,1.08-0.34c1.89-0.25,15.62-1.3,18.26-1.66c1.11-0.15,2.25-0.37,3.35-0.15
		c1.06,0.21,2.1,0.82,3.15,0.57c0.51-0.12,0.94-0.44,1.42-0.65c2.4-1.11,5.38,0.27,7.84-0.57c0.04,0.01,0.07,0.03,0.11,0.04
		c1.07,0.36,2.22,0.21,3.32,0.48c2.33,0.58,4.72-0.02,6.18-1.69c1.02-1.17,1.31-1.31,1.6-2.88c1.02-2.21-0.07-1.81,1.13-6.51
		c0-0.01,0-0.01-0.01-0.02c0.08-0.74,0.16-1.49,0.24-2.23c0.37-0.73,0.88-1.48,1.11-2.24c0.65-2.19-0.37-4.67,0.24-10.51
		c0.11-1.08,0.36-3.45,0.64-6.21c0.74-0.86,1.55-1.69,1.68-2.8c0.05-0.42,0.01-0.89,0.28-1.21c0.19-0.22,0.48-0.31,0.69-0.5
		c0.47-0.43,0.36-1.18,0.26-1.82c-0.47-2.85-1.16-4.05-1.71-5.31c0.05-0.45,0.09-0.87,0.13-1.22c0.08-0.11,0.18-0.21,0.25-0.33
		c0.71-1.15,0.78-2.59,0.54-3.92c-0.24-1.33,0.47-3.4,0.05-4.68c-0.25-0.77-0.46-1.56-0.64-2.35c0.21-5.51,0.74-11,1.56-16.44
		c0.03-0.02,0.13-0.12,0.21-0.3s-0.01-0.43,0.18-0.53c0.18-0.1,0.27-0.24,0.29-0.45c0.12-1.01-0.03-2.93,0.74-5.7
		c0.6-1.92,1.21-3.83,1.83-5.72c0.14-0.44,0.28-0.89,0.41-1.35c0.73-0.37,1.39-0.87,1.92-1.51c0.08-0.1,0.15-0.21,0.22-0.31
		c0.49-0.52,0.85-1.2,1-1.9c0.17-0.82,0.11-1.66-0.07-2.48C284.63,139.6,284.12,138.34,283.39,137.25z M258.58,170.34
		c0.46-0.32,0.84-1.43,0.77-2.34c-0.08-0.85,0.06-0.91,0.33-1c0.29-0.1,0.07-0.48,0.36-0.57c0.52-0.16,0.89-0.57,0.88-1.19
		c1.65-1.56,3.31-3.11,4.96-4.67c0.54-0.51,1.12-1.1,1.13-1.84c0.02-1.16-1.24-1.8-2.04-2.66c-0.07-0.51-0.29-1.01-0.32-1.53
		c-0.01-0.09,0-0.17,0-0.26c0.17-0.36,0.22-0.77,0.19-1.18c0.1-0.46,0.17-0.91,0.04-1.36c-0.09-0.31-0.26-0.58-0.43-0.85
		c0.04-0.15,0.07-0.3,0.11-0.44c0.34-1.07,0.71-2.2,0.8-3.31c1.69-0.08,3.39-0.11,5.08,0.05c0.52,0.05,1.04,0.12,1.56,0.2
		c-0.14,3.09-0.42,6.2-0.93,9.22c-0.89,5.26-2.64,10.33-4.32,15.41c-0.87,0.05-1.74,0.15-2.24,0.17c-0.78,0.03-1.57,0.18-2.23,0.61
		c-2.61,1.69-1.18,4.39-1.43,6.76c-0.1,0.96-0.48,1.87-0.65,2.82c-0.28,1.53,0.01,3.1,0.64,4.53c0.22,0.5,0.26,1.04,0.26,1.59
		c-0.01,0.81,0.35,1.66,0.52,2.39c0.21,0.85,0.25,1.72,0.23,2.6c-0.45,1.74-1.07,3.43-1.74,5.11c-1.47,0.78-3.28,0.84-5.07,1.02
		c-0.08-0.31-0.18-0.61-0.31-0.9c-1.64-3.87-6.68-5.41-8.34-9.27c-0.2-0.47-0.34-0.96-0.47-1.46c0.89-0.92,1.66-1.92,2.17-3.1
		c0.2-0.46,0.36-0.95,0.68-1.34c0.45-0.56,1.14-0.84,1.78-1.16c3.15-1.56,5.76-4.68,5.77-8.19c0-0.42-0.03-0.86,0.09-1.27
		C256.8,171.71,257.52,171.07,258.58,170.34z M238.71,149.45c-0.04,0.69,0.05,1.39,0.31,2.03c0.5,1.21,1.51,2.26,1.52,3.57
		c0.01,1.25-0.87,2.68-0.04,3.62c0.11,0.13,0.25,0.24,0.33,0.39c0.23,0.46-0.2,0.95-0.43,1.4c-0.48,0.97-0.01,2.12,0.45,3.09
		c0.18,0.38,0.37,0.78,0.72,1.02c0.3,0.21,0.68,0.27,1.04,0.33c1.05,0.16,2.11,0.32,3.16,0.49c0.4,0.06,0.82,0.12,1.2-0.02
		c0.83-0.31,1.07-1.4,1.81-1.88c0.72-0.46,1.69-0.22,2.45-0.6c0.86-0.43,1.19-1.55,1.02-2.49c-0.17-0.95-0.73-1.77-1.26-2.58
		c-0.45-0.69-0.89-1.41-1.28-2.14c0.1-0.19,0.2-0.39,0.26-0.6c0.22-0.7,0.22-1.44,0.11-2.16c-0.03-0.21-0.08-0.43-0.24-0.57
		c-0.34-0.3-0.89-0.04-1.3-0.14c-0.06-0.01-0.11-0.05-0.17-0.07c-0.03-0.14-0.06-0.28-0.09-0.41c-0.18-1.1-0.17-2.24-0.27-3.35
		c1.36-0.1,2.71-0.21,4.07-0.31c0.01,0.09,0,0.17,0.03,0.26c0.05,0.12,0.16,0.21,0.28,0.27c0.46,0.26,0.97,0.41,1.43,0.68
		c0.45,0.27,0.85,0.72,0.85,1.25c0.39,0.07,0.79,0.14,1.18,0.21c0.19,0.03,0.38,0.05,0.57,0.01c0.64,1.24,0.66,2.78,0.26,4.14
		c-0.48,1.61-1.46,3.01-2.45,4.36c-3.28,4.46-6.86,8.69-10.6,12.78c-1.32,1.45-2.67,2.87-4.02,4.3c-0.65-0.42-1.28-0.85-1.69-1.5
		c-1.01-1.61-0.22-3.87-1.19-5.5c-0.55-0.93-1.6-1.51-2.08-2.47c-0.79-1.57,0.17-3.43,0.09-5.18c-0.08-1.94-1.4-3.56-2.16-5.35
		c-0.1-1.98,0.3-3.82,1.34-5.43C235.47,150.24,237.07,149.78,238.71,149.45z M217.71,156.77c1.28-0.02,2.58-0.22,3.85-0.48
		c1.17,0.08,2.18,0.81,2.68,1.91c0.55,1.21,0.52,2.6,0.47,3.93c-0.1,2.67-0.2,5.34-0.32,8.01c3.03,0.13,4.97,3.25,5.94,6.12
		c0.88,2.62,1.38,5.36,1.54,8.12c-0.05,0.05-0.1,0.1-0.14,0.15c-0.66,0.68-1.32,1.36-1.99,2.04c-0.11-0.07-0.22-0.13-0.34-0.17
		c-0.36-0.14-0.74-0.19-1.1-0.31c-0.75-0.25-1.32-0.69-1.79-1.52c-1.32-3.32,0.23-5.53-1.74-7.34c-0.41-0.38-0.87-0.72-1.3-1.08
		c-0.04-0.52-0.85-1.15-0.89-1.67c-0.02-0.27-0.03-0.18-0.03-0.51c0-0.16-0.38-0.41-0.45-0.67c-0.11-0.52-0.41-0.86-0.8-1.21
		c-0.41-0.37-0.99-0.45-1.5-0.65c-1.33-0.51-1.96-1.57-2.45-2.74C217.51,164.73,217.66,160.75,217.71,156.77z M216.88,198.09
		c-0.15-2.99-0.21-5.99-0.2-8.99c0.48,0.32,0.97,0.63,1.48,0.92c0.45,0.25,0.93,0.5,1.45,0.47c0.43-0.02,0.83-0.23,1.21-0.44
		c1.03-0.56,1.07-1.06,3.01-1.85c1.41-0.57,2.26,0.29,2.69,1.41c-0.46,0.39-0.92,0.79-1.39,1.16c-1.51,1.17-3.13,2.2-4.59,3.44
		C219.18,195.36,217.98,196.68,216.88,198.09z M250.33,221.99c-6.28,0.71-12.56,1.42-18.84,2.13c-0.43,0.05-0.88,0.09-1.29-0.07
		c-0.28-0.11-0.52-0.32-0.81-0.4c-1.01-0.27-1.82,1.07-2.86,1.04c-0.63-0.02-1.27-0.54-1.82-0.24c-0.27,0.15-0.41,0.46-0.67,0.62
		c-0.28,0.17-0.64,0.14-0.96,0.08c-1.52-0.28-2.6-1-3.69-1.81c0.04-1.36-0.01-2.73-0.11-4.1c0.45-0.57,0.87-1.16,1.29-1.77
		c0.35,0.19,0.81,0.11,1.2,0c0.41-0.11,0.8-0.4,1.13-0.77c0.5-0.63,0.1-0.71,0.17-1.09c0.05-0.24,0-0.51,0.11-0.73
		c0.1-0.21,0.51,0.09,0.73-0.46c0.27-0.67,0.79-1.24,1.44-1.57c1.59-0.82,3.26-1.5,4.23-2.95c0.13-0.19,0.23-0.39,0.32-0.59
		c0.31-0.23,0.63-0.46,1.01-0.49c0.26-0.02,0.52,0.05,0.77-0.03c0.49-0.16,0.61-0.79,0.63-1.31c0.03-1.04-0.02-2.07-0.14-3.1
		c-0.04-0.3-0.09-0.55-0.15-0.77c1.15-1.37,2.98-2.09,4.23-3.4c0.1,0.46,0.18,0.94,0.07,1.4c-0.11,0.51-0.44,0.95-0.64,1.44
		c-0.75,1.81,0.99,3.79,0.66,6.19c-0.25,1.31,0.44,0.76,0.48,1.35c0.07,1.04-0.73,1.94-1,2.95c-0.75,2.81,1.87,5.63,4.73,6.14
		c2.15,0.38,4.31-0.17,6.36-1c0.88,0.44,1.99-0.06,2.91,0.31c0.87,0.35,1.27,1.36,1.39,2.29c0.03,0.2,0.04,0.41,0.06,0.62
		C250.97,221.93,250.65,221.95,250.33,221.99z"/>
	<path class="st0" d="M272.41,353.61c-0.51-0.43-4.21-2.91-5.01-3.39c-0.62-0.37-1.24-0.74-1.92-0.97c-0.18-0.06-1.9-2.03-3.02-2.22
		c-0.01-0.05-0.01-0.09-0.03-0.14c-0.14-0.56-1.74-0.66-1.94-0.39c-0.49,0.66-1.66,1.29-2.76,1.22c-4.91-0.12-6.4-1.6-7.25-2.44
		c-0.59-0.59-1.38-0.87-2.22-0.93c-0.06-0.13-0.13-0.25-0.23-0.36c-0.36-0.39-0.96-0.41-1.49-0.36c-0.2,0.02-0.41,0.05-0.59,0.15
		c-0.17,0.1-0.28,0.26-0.39,0.42c-0.14,0.21-0.31,0.44-0.48,0.69c-1.43,0.51-2.84,1.17-4.35,1.15c-0.39,0-0.78-0.05-1.15,0.03
		c-0.12,0.03-0.24,0.07-0.35,0.11c-0.24-0.04-0.48-0.07-0.73-0.04c-1.29,0.14-2.18,1.32-3.23,2.08c-0.34,0.25-0.7,0.46-0.97,0.78
		c-0.42,0.52-0.67,1.19-0.89,1.87c-0.69,0.58-1.39,1.17-2.08,1.75c-0.47,0.4-0.95,0.8-1.53,1.02c-0.92,0.35-1.93,0.18-2.92,0.14
		c-0.14-0.11-0.24-0.26-0.39-0.35c-0.17-0.1-0.38-0.12-0.58-0.14c-0.78-0.06-1.65-0.08-2.22,0.45c-0.5,0.46-0.62,1.16-0.75,1.82
		c-0.23,0.21-0.47,0.41-0.72,0.59c-0.77,0.56-1.79,1.14-2.65,1.07c-0.35-0.59-0.7-1.17-1.06-1.76c-0.37-0.61-0.87-1.31-1.59-1.3
		c-0.46,0.01-0.86,0.31-1.2,0.62c-0.88,0.79-1.71,1.73-2.65,2.44c-0.03,0.01-0.06,0.01-0.1,0.02c-2.56-0.42-5.13-0.83-7.69-1.25
		c-0.64-0.1-1.29-0.2-1.94-0.28c-0.07-0.21-0.13-0.43-0.17-0.63c0.18-0.49,0.34-0.99,0.51-1.49c0.08-0.22,0.16-0.45,0.24-0.67
		c0.72-0.56,1.71-0.87,2.02-1.72c0.28-0.73-0.1-1.53-0.32-2.28c-0.05-0.17-0.08-0.33-0.11-0.5c0.88-2.41,1.79-4.81,2.74-7.2
		c0.89-1.01,1.88-1.94,2.85-2.78c-0.16-1.17-0.23-2.35-0.22-3.54c1-2.31,2.03-4.61,3.1-6.88c0.76-0.62,1.15-1.61,1.61-2.56
		c0.82-0.87,1.82-1.4,2.88-0.96c0.11,0.04,0.79-1.01,1.42-2.44c0.73-0.41,1.34-0.91,1.6-1.71c0.2-0.61,0.13-1.27,0.32-1.88
		c0.14-0.43,0.4-0.8,0.7-1.15c1.89-1.7,3.55-3.94,2.91-6.3c-0.82-3.05-4.65-3.85-7.53-5.15c-3.83-1.73-7.04-5.27-11.24-5.38
		c-1.19-0.03-1.04-0.63-2.18-0.27c-0.69,0.3-0.33,0.66-0.82,0.73c-0.52,0.08-1.17-0.35-1.7,0.87c-0.22,0.5-0.68,0.08-1.67,0.54
		c-1.99,0.82-5.26,1.99-7.24,2.81c-0.07-0.05-0.14-0.09-0.22-0.13c-0.83-0.42-1.83-0.38-2.73-0.14c-0.42,0.11-0.83,0.26-1.18,0.51
		c-0.35,0.25-0.7,0.73-1.01,1.3c-0.36-0.01-0.73-0.01-1.09-0.02c-0.63-0.01-1.28-0.02-1.89,0.16c-0.62,0.19-1.32,0.72-1.92,1.37
		c-1.04,0.11-2.08,0.33-3.12,0.29c-14.75-0.6-11.84,0.85-27.43,0.07c-0.9-0.1-1.79-0.23-2.69-0.37c0,0,0-0.01-0.01-0.01
		c-0.29-0.29-0.78-0.13-1.19-0.17c-0.43-0.04-0.79-0.31-1.17-0.5c-0.99-0.48-2.22-0.36-3.13,0.26c-0.38,0.01-0.76,0.04-1.13,0.07
		c-1.09-0.41-2.19-0.84-3.35-0.88c-1.73-0.06-3.36,0.74-5.03,1.21c-0.48,0.14-0.96,0.24-1.45,0.33c-1.07,0.01-2.13,0-3.2-0.04
		c-2.05-0.08-4.1-0.26-6.14-0.52c-0.08-1.84-0.57-3.62-1.63-5.12c-0.85-1.21-2.01-2.17-3.01-3.26c-1.09-1.2-1.99-2.57-2.66-4.04
		c-1.06-2.33-3.07-6.86-6.19-4.16c-2.99,2.59-3.03,6.84-2.53,10.37c0.22,1.57,0.43,3.15,0.61,4.74c-0.82,1.51-1.09,3.65-0.88,4.72
		c0.11,0.58,0.32,1.17,0.73,1.6c0.17,0.18,0.38,0.32,0.61,0.42c0.01,0.91,0,1.81-0.04,2.71c-1.07,1.29-1.1,1.95-1.56,2.2
		c-0.29,0.35-0.28,0.93-0.28,0.93c-0.42,0.31-0.77,0.74-0.95,1.22c-0.5,1.29-0.19,2.73,0.12,4.07c0.15,0.67,0.33,1.37,0.62,2
		c-1.42,3.98-3.31,7.82-4.38,11.91c-0.7,2.66-1.04,5.4-1.39,8.13c-0.59,4.68-1.18,9.36-1.77,14.04c-0.01,0.11-0.03,0.23-0.04,0.35
		c-0.1-0.01-0.2-0.02-0.3-0.03c-3.39-0.11-6.6,1.41-9.94,1.99c-5.1,0.89-10.3-0.44-15.46-0.79c-3.97-0.27-8,0.04-11.98,0.01
		c-0.31-0.49-0.66-0.95-1.05-1.38c-0.9-0.98-2.15-1.82-3.47-1.61c-0.29,0.05-0.59,0.14-0.88,0.25c-0.09-0.19-0.15-0.39-0.24-0.58
		c-0.41-0.86-0.86-1.71-1.06-2.65c-0.26-1.23-0.06-2.5-0.17-3.75c-0.01-0.17-0.04-0.35-0.16-0.46c-0.25-0.24-0.65-0.03-0.92,0.19
		c-0.16,0.13-0.34,0.26-0.52,0.41c-0.05-0.75-0.23-1.46-0.89-1.74c-0.32-0.14-0.69-0.12-1.02-0.21c-1.35-0.38-1.69-1.12-3.12-0.44
		c-0.59,0.28-1.38,0.92-1.82,1.42c-0.86,0.99-0.97,2.21-1.31,3.33c-0.22,0.38-0.4,0.8-0.55,1.24c-0.07,0.11-0.3,0.65-0.43,0.64
		c-0.76-0.03-1.27,0.44-0.83,1.05c-0.03,0.51-0.67,1.15-0.54,1.43c0.29,0.6,0.32,1.02-0.04,1.39c-0.49,0.52-1.07,0.98-0.96,1.64
		c0.06,0.34,0.3,0.61,0.5,0.88c0.05,0.08,0.1,0.16,0.15,0.24c-0.06,0.57-0.13,1.15-0.19,1.72c-0.14,1.27-0.27,2.56-0.14,3.83
		c-0.21,0.54-0.3,1.07,0,1.54c0.31,0.68,1.09,2.15,1.6,3.21c0.18,0.37,0.36,0.74,0.62,1.06c0.24,0.3,1.55,1.11,1.85,1.35
		c1.11,0.88,2.22,1.75,3.33,2.63c0.96,0.76,2.17,1.55,3.31,1.19c0.56,0.7,1.27,1.29,2.13,1.54c0.97,0.28,2.11,0.06,2.78-0.7
		c0.34-0.38,0.53-0.88,0.87-1.26c0.77-0.89,2.08-1.03,3.26-1.11c4.74-0.3,9.48-0.56,14.22-0.82c5.07-0.27,10.13-0.55,15.2-0.82
		c2.39-0.13,4.79-0.26,7.18-0.39c5.55-0.3,11.1-0.6,16.65-0.9c0.58,0.05,1.16,0.08,1.73,0.06c1.04-0.03,2.07-0.15,3.09-0.32
		c0.58-0.03,6.7-1.47,8.74-1.77c7.91-1.17,16.08,0.83,23.92-0.73c1.03-0.21,2.1-0.47,3.13-0.25c1.48,0.32,2.46,0.93,4.3,1
		c1.23,0.5,1.07,0.6,1.71,0.66c0.65,0.06,0.78,0.39,1.39,0.18c3.52-1.2,7.38-0.64,11,0.21c1.05,0.25,2.1,0.52,3.18,0.6
		c2.19,0.17,4.38-0.45,6.58-0.38c3.35,0.09,6.56,1.76,9.91,1.55c3.37-0.21,6.41-2.29,9.64-3.1c5.1,0.08,10.2,0.15,15.3,0.23
		c0.58,0.01,1.16,0.02,1.74,0.05c2.03,0.37,3.96,1.02,5.51,2.34c0.64,0.55,1.3,1.23,2.14,1.24c0.63,0,1.19-0.39,1.72-0.72
		c0.82-0.51,1.71-0.89,2.63-1.17c1.47,0.03,2.93,0.04,4.39,0.17c0.9,0.08,1.79,0.21,2.68,0.34c0.14,0.25,0.33,0.44,1.31,0.34
		c0.17-0.01,0.34-0.04,0.52-0.06c0.93,0.14,1.85,0.28,2.78,0.37c0.85,0.08,1.71,0.13,2.54-0.08c0.9-0.23,1.7-0.73,2.54-1.13
		c0.25,0.03,0.51,0.07,0.76,0.1c5.76,0.72,11.76-0.77,16.52-4.09c1.62-1.13,3.11-2.52,4.33-4.09c0.17-0.06,0.33-0.14,0.51-0.18
		c0.48-0.12,0.97-0.16,1.43-0.33c0.46-0.17,0.89-0.51,1-0.99c0.06-0.25,0.02-0.51-0.02-0.77c-0.07-0.47-0.12-1.19-0.2-1.99
		c0.2-0.46,0.4-0.92,0.61-1.38c0.26-0.6,0.53-1.2,0.67-1.84c0.31-1.34,0.05-2.8-0.68-3.96
		C273.64,354.73,273.04,354.15,272.41,353.61z M136.84,328.55c-0.57,1.94-0.13,4.02-0.24,6.03c-0.04,0.67-0.15,1.32-0.29,1.96
		c-0.3,1.06,0.2,1.25-0.3,2.07c-0.16,0.26-0.48,0.36-0.75,1.13c-0.31,0.88-0.61,2.11-0.69,2.14c-0.97,2.29-1.61,2.84-2.29,5.23
		c-0.86,3.02-0.87,6.2-1.36,9.3c-0.15,0.95-0.36,1.9-0.6,2.83c-0.01,0.02-0.03,0.03-0.04,0.05c-1.92,2.74-5.16,1.82-7.89,3.98
		c-0.77,0.31-0.27-0.69-1.51,0c-2.44-0.07-4.25-0.44-6.07-0.78c0.1-0.8,0.14-1.6,0.09-2.4c-0.03-0.47,0.01-1.21,0-1.68
		c1-1.13,0.03-1.13,0.41-1.8c0.32-0.6,0.38-0.65,0.35-1.12c-0.07-1.18-1.02-1.26-1.05-2.29c0.2-1.89,0.39-6.63,0.52-8.53
		c0.7-1.47,1.55-2.96,1.86-4.52c0.56-2.82-0.69-5.62-1.32-8.45c0.07-0.7,0.16-1.41,0.3-2.1c0.24-1.18,0.6-2.33,0.96-3.48
		c0.1-0.32,0.2-0.64,0.3-0.96c4.02-2.24,8.1-4.39,12.61-4.27c2.18,0.06,4.31,0.67,6.47,0.97c0.37,0.05,0.74,0.08,1.12,0.12
		c0.21,0.38,0.39,0.79,0.49,1.28C138.3,325.29,137.38,326.7,136.84,328.55z M162.64,328.84c-0.3,0.47-0.55,0.88-0.71,1.11
		c-0.7,1.03-1.39,2.21-1.23,3.44c0.07,0.53,0.3,1.03,0.49,1.53c0.09,0.22,0.14,0.45,0.22,0.68c-0.12,0.64-0.23,1.28-0.35,1.92
		c-0.4,2.22-0.82,4.47-1.87,6.46c-1.82,3.43-5.52,6.16-5.51,10.05c0,1.5,0.59,2.93,1.17,4.31c0.16,0.38,0.33,0.77,0.49,1.15
		c-0.28-0.02-0.57-0.03-0.85-0.01c-1.21,0.07-2.38,0.5-3.59,0.58s-3.23,0.25-3.79-0.83c-0.17-0.32-0.1-0.83-0.06-1.31
		c0.48-1.83,0.81-3.7,0.94-5.58c0.06-0.89,0.09-1.8,0.46-2.62c0.3-0.67,0.81-1.22,1.2-1.84c1.7-2.68,1.08-6.18,0.24-9.24
		c-0.34-1.23-0.7-2.5-0.51-3.77c0.14-0.91,0.55-1.75,0.91-2.59c0.25-0.59,0.48-1.19,0.68-1.79c0.47-0.37,0.9-0.79,1.16-1.32
		c0.4-0.81,0.44-2.73-0.05-4.04c0.12-1.31,0.14-2.63,0.05-3.94c3.82-0.3,7.59-0.28,11.19,0.98c0.16,0.06,0.32,0.12,0.49,0.18
		C163.43,324.51,163.03,326.67,162.64,328.84z M197.43,333.99c-2.48,4.77-4.99,9.59-8.58,13.59c-1.53,1.7-3.27,3.28-4.23,5.36
		c-0.83,1.79-0.98,3.76-0.86,5.75c-0.28,0.2-0.56,0.39-0.87,0.55c-1.1,0.55-2.37,0.64-3.6,0.71c-3.22,0.19-6.43,0.37-9.65,0.56
		c-0.04-1.13,0.02-2.25,0.46-3.25c0.43-0.99,1.19-1.79,1.77-2.7c1.76-2.75,1.72-6.54-0.09-9.25c-0.48-0.73-1.11-1.48-1.02-2.35
		c0.19-0.22,0.36-0.47,0.52-0.71c0.22-0.34,0.44-0.68,0.66-1.02c0.35-0.54,0.71-1.1,0.81-1.73c0.06-0.35,0.04-0.71,0.01-1.07
		c-0.02-0.31-0.01-1.13-0.09-2.03c0.9-4.1,1.81-8.21,2.71-12.31c0.87-0.19,1.73-0.42,2.59-0.65c3.12-0.83,6.23-1.67,9.35-2.5
		c4.41-1.18,9.45-2.27,13.26,0.24c0.76,0.5,1.43,1.13,2.12,1.73C200.64,326.37,199.11,330.77,197.43,333.99z"/>
</g>
</svg>
