<!-- Generator: Adobe Illustrator 25.0.0, SVG Export Plug-In  -->
<svg version="1.1" xmlns="http://www.w3.org/2000/svg" xmlns:xlink="http://www.w3.org/1999/xlink" x="0px" y="0px"
	 width="413.72px" height="149.15px" viewBox="0 0 413.72 149.15"
	 style="overflow:visible;enable-background:new 0 0 413.72 149.15;" xml:space="preserve">
<style type="text/css">
	.st0{fill:#FFFFFF;}
</style>
<defs>
</defs>
<g>
	<polygon class="st0" points="30.12,86.46 30.12,94.94 3.06,94.94 3.06,97.19 57.19,97.19 57.19,94.94 32.37,94.94 32.37,86.46 	"/>
	<rect x="8.88" y="105.11" class="st0" width="42.49" height="2.26"/>
	<rect x="8.88" y="115.29" class="st0" width="42.49" height="2.26"/>
	<path class="st0" d="M48.04,125.84H11.68v-2.21H9.42v22.98h2.26v-5.22h36.37v5.22h2.26v-22.98h-2.26V125.84z M48.04,139.14H11.68
		v-11.04h36.37V139.14z"/>
	<polygon class="st0" points="93.8,99.38 119.79,99.38 119.79,97.12 93.8,97.12 93.8,86.46 91.54,86.46 91.54,97.12 65.55,97.12 
		65.55,99.38 91.54,99.38 91.54,109.67 55.92,109.67 55.92,111.93 129.42,111.93 129.42,109.67 93.8,109.67 	"/>
	<path class="st0" d="M112.29,116.25h-2.26v6.32H59.57v2.26h50.46v7.81c0,5.48-0.9,10.83-11.66,10.83v2.26
		c12.26,0,13.91-6.61,13.91-13.09v-7.81h10.31v-2.26h-10.31V116.25z"/>
	<path class="st0" d="M72.27,129.67l-1.05,2c0.05,0.03,4.89,2.58,8.86,5.48c3.97,2.9,6.97,5.77,7,5.79l1.56-1.63
		c-0.13-0.12-3.13-2.99-7.23-5.99C77.31,132.32,72.48,129.77,72.27,129.67z"/>
	<path class="st0" d="M222.75,121.45h-24.66c1.63-1.69,4.79-5.79,4.79-12.03V96.89h13.1v-2.26h-68.25v2.26h52.89v12.52
		c0,6.2-3.55,9.94-4.64,10.94l1,1.09h-55.65v2.26h62.21v10.9c0,11.07-6.13,12.26-8.76,12.26v2.26c6.9,0,11.02-5.43,11.02-14.52
		v-10.9h16.95V121.45z"/>
	<path class="st0" d="M189.85,116.55v-15h-34.31v15h2.26v-2.63h29.79v2.63H189.85z M157.8,111.67v-7.85h29.79v7.85H157.8z"/>
	<path class="st0" d="M155.54,143.73h2.26v-2.63h29.79v2.63h2.26v-15h-34.31V143.73z M157.8,130.98h29.79v7.85H157.8V130.98z"/>
	<path class="st0" d="M243.37,117.15L243.37,117.15c0.67-3.61,1.02-7.64,0.98-12.16l23.74-0.23c-3.2,8.01-7.56,12.12-11.09,14.83
		l1.37,1.79c4.13-3.17,9.31-8.12,12.75-18.34l-2.2-0.55l-42.2,0.41c2.64-4.11,4.75-8.83,6.13-13.89l-2.18-0.59
		c-3.05,11.18-9.74,20.54-17.9,25.05l1.09,1.98c4.23-2.34,8.09-5.88,11.3-10.26l16.92-0.17c0.1,13.06-3.03,22.81-9.57,29.76
		c-6.13,6.51-14.2,9.38-20.55,11.15l0.61,2.17c11.75-3.28,24.83-9.34,29.76-26.53c4.7,12.72,18.08,24.58,31.66,27.47l0.47-2.21
		c-6.99-1.49-14.1-5.49-20.02-11.27C248.77,130.03,244.73,123.32,243.37,117.15z"/>
	<path class="st0" d="M325.92,97.46v9.28h2.26v-9.28h23.61V95.2h-42.81c2.08-1.99,3.93-4.09,5.46-6.23l-1.84-1.31
		c-1.87,2.63-4.24,5.18-6.96,7.54h-0.05v0.05c-5.4,4.68-12.12,8.59-18.83,10.77l0.7,2.15c6.73-2.19,13.48-6.06,19.01-10.71H325.92z"
		/>
	<path class="st0" d="M373.11,95.2c1.65-1.85,3.19-3.95,4.54-6.33l-1.96-1.11c-6.04,10.66-16.25,15.36-21.8,17.21l0.71,2.14
		c4.09-1.36,10.59-4.2,16.32-9.65h18.32v9.28h2.26v-9.28h22.22V95.2H373.11z"/>
	<path class="st0" d="M347.58,139.5c-2.18-1.96-6.3-5.41-9.55-6.62h12.41v-20.59h-45.29v32.8c-4.1,0.13-8.39,0.19-12.87,0.19v2.26
		c22.02,0,39.49-1.27,52.71-7.32c3.54,3.05,6.94,6.66,8.43,8.94l1.89-1.23C353.86,145.72,350.9,142.49,347.58,139.5z M307.39,114.54
		h40.78v6.91h-40.78V114.54z M307.39,123.71h40.78v6.91h-40.78V123.71z M307.39,145v-12.13h30.56l-0.76,2.09
		c1.6,0.58,3.68,1.94,5.84,3.64C333.49,142.73,321.64,144.42,307.39,145z"/>
	<path class="st0" d="M358.72,114.54h13.07v34.37h2.26v-34.37h30.98v8.14c0,10.92-4.25,16.23-12.98,16.23h-6.26v2.26h6.26
		c5.45,0,9.51-1.88,12.06-5.58c2.11-3.06,3.18-7.4,3.18-12.91v-10.39h-48.56V114.54z"/>
	<path class="st0" d="M251.58,10.53c6.12,1.34,11.61,2.75,15.52,3.99l0.68-2.15c-10.55-3.35-32.58-7.92-47.32-9.13l-0.18,2.25
		c8.03,0.66,18.24,2.33,27.54,4.24c-9.78,4.19-20.28,7.09-31.41,9.11c-14.62-2.42-25.02-5.6-30.56-8.79
		c7.41-2.08,14.43-4.81,19.58-8.15L204.21,0c-12.7,8.25-37.17,12.64-49.95,12.64v2.26c7.62,0,19.32-1.54,30.34-4.51l-0.7,1.12
		c5.57,3.5,14.73,6.29,25.82,8.43c-20.5,3.02-43.02,3.41-67.12,3.41v2.26c26.74,0,51.54-0.47,73.88-4.48
		c18.2,2.9,40.23,4.27,59.99,4.27v-2.26c-20.99,0-38.98-1.29-53.49-3.3C233.07,17.65,242.62,14.65,251.58,10.53z"/>
	<path class="st0" d="M208.74,63.04v-28.3h4.26v-2.26h-60.63v2.26h13.34v23.15c-3.81,0.16-7.46,0.25-10.71,0.25v2.26
		c17.21,0,45.13-2.64,51.48-3.26v5.9H208.74z M167.98,34.74h38.51v6.19h-38.51V34.74z M167.98,43.19h38.51v5.43h-38.51V43.19z
		 M167.98,57.79v-6.91h38.51v3.99C201.95,55.32,183.92,57.04,167.98,57.79z"/>
	<path class="st0" d="M269.33,32.49h-48.16v2.26h5.03v28.3h2.26v-28.3h38.15c-10.59,8.02-23.46,9.8-32.74,9.8v2.26
		c7.09,0,16.2-1.01,24.94-4.88c2.15,1.75,3.7,5.4,2.76,8.66c-1.23,4.24-6.14,6.58-13.85,6.58h-8.37v2.26h8.37
		c11.87,0,15.13-5.14,16.01-8.21c1.13-3.9-0.37-7.92-2.72-10.33c3.45-1.74,6.8-3.95,9.91-6.77L269.33,32.49z"/>
	<path class="st0" d="M118.12,5.35l-1.45-1.73c-3.06,2.57-6.41,5.01-10.05,7.35h-40.3V0.66h-2.26v10.31H18.37v2.26h45.69v10.97H8.65
		v2.26h64.71C53.56,33.21,29.21,38.35,0,41.98l0.28,2.24c11.99-1.49,23.17-3.23,33.57-5.24c-0.47,2.7-0.94,6.25-1.08,8.02
		c-0.12,2.56,0.06,5.83,2.52,8.41c3.06,3.2,9.09,4.69,18.99,4.69h58.15v-2.26h-3.84V51.5h-2.26v6.35H54.27
		c-9.11,0-14.79-1.31-17.36-4c-1.37-1.44-1.97-3.37-1.92-6.17L35,47.82c0.46-0.02,46.6-2.25,72.94-10.41l-0.67-2.16
		c-25.02,7.76-68.26,10.1-72.1,10.3c0.24-2.09,0.67-5,1.05-7.05c16.63-3.32,31.21-7.33,43.81-12.06h49.63v-2.26h-43.9
		C98.83,18.79,109.58,12.52,118.12,5.35z M79.64,24.19H66.32V13.22h36.63C96.13,17.24,88.37,20.89,79.64,24.19z"/>
</g>
</svg>
