<!-- Generator: Adobe Illustrator 25.0.0, SVG Export Plug-In  -->
<svg version="1.1" xmlns="http://www.w3.org/2000/svg" xmlns:xlink="http://www.w3.org/1999/xlink" x="0px" y="0px"
	 width="301.11px" height="304.2px" viewBox="0 0 301.11 304.2" style="overflow:visible;enable-background:new 0 0 301.11 304.2;"
	 xml:space="preserve">
<style type="text/css">
	.st0{fill:#FFFFFF;}
</style>
<defs>
</defs>
<g>
	<path class="st0" d="M9.31,93.7c-0.38,4.56,1.2,6.93,3.65,9.28c1.03,0.99,2.64,1.69,3.87,1.12c0.31-0.21,1.39-0.09,2.04-0.06
		c0.37,0.02,0.47-0.1,0.92-0.32c0.32-0.13,0.44,0.15,0.68,0.25c0.32,0.14,0.49,0.01,0.73,0c0.98-0.29,1.4,0.56,3.63,0.19
		c3.62-0.6,5.54-3.34,6.98-6.89c0.07-0.03,0.15-0.06,0.22-0.1c0.92-0.55,1.51-1.7,2.57-1.87c0.37-0.06,0.75,0.02,1.13,0.03
		c1.53,0.05,2.92-0.99,3.76-2.27c0.52-0.79,0.88-1.69,1.53-2.38c0.42-0.45,0.95-0.78,1.42-1.18c0.56-0.48,1.03-1.05,1.5-1.61
		c1.39-1.66,2.82-3.41,3.34-5.51c0.24-0.95,0.28-1.94,0.45-2.9c0.23-1.29,0.99-2.67,1.01-3.97c0.01-0.32-0.04-0.67-0.11-1.02
		c1.71-3.67,3.63-7.13,5.7-10.49c0.32,0.97,0.59,1.96,0.81,2.96c-0.2,1.24-0.17,2.6-0.12,3.54c0.12,2.25,0.57,4.49,0.43,6.74
		c-0.06,1.03-0.25,2.05-0.16,3.08c0.12,1.34,0.73,2.61,0.87,3.95c0.16,1.52-0.25,3.14,0.05,4.6c-0.01,1.32-0.04,2.63-0.09,3.95
		c-0.01,0.32-0.03,0.63-0.04,0.95c-0.01,0.03-0.02,0.07-0.02,0.1c-0.87,9.93-2.46,24.1-2.88,32.62c-0.05,1.1-0.31,2.18-0.41,3.27
		c-0.28,1.19-0.44,2.38-0.26,3.58c-0.06,0.96-0.11,1.93-0.16,2.89c-0.1,0.08-0.21,0.15-0.34,0.21c-0.3,0.12-0.65,0.2-0.84,0.47
		c-0.4,0.54,0.15,1.22,0.56,1.77c-0.03,0.54-0.08,0.72,0.17,1.34c0.13,0.32,0.21,0.65,0.3,0.98c-0.01,0.54-0.03,1.08-0.04,1.62
		c0,0.18-0.01,0.37-0.01,0.56c-0.46,1.42-1.25,2.71-1.77,4.1c-0.12,0.33-0.23,0.68-0.25,1.03c-0.03,0.45,0.1,0.9,0.22,1.34
		c0.08,0.27,0.16,0.55,0.25,0.81c0,0.01,0,0.02,0,0.03c-0.02,0.42-0.01,0.84,0.02,1.27c0.01,0.55,0.01,1.11,0.02,1.66
		c0.02,1.27,0.1,2.65,0.53,3.83c0,1.18-0.18,2.32-0.77,3.37c-1.18,0.89-1.87-1.58-2.33-0.26c-0.02,1.35,0.5,2.9,1.32,4.47
		c-0.08,0.27-0.13,0.55-0.13,0.81c0,0.05,0,0.1,0.02,0.15c0.06,0.16,0.26,0.2,0.41,0.28c0.74,0.39,0.26,1.73,0.92,2.24
		c0.13,0.1,0.3,0.15,0.44,0.24c0.47,0.27,0.75,0.85,1.27,0.99c0.08,0.02,0.17,0.03,0.25,0.03c0.45,0.55,0.9,1.09,1.35,1.59
		c0.98,1.09,1.79,0.14,2.43,0.19c0.51,0.04,1-0.17,1.46-0.42c0.71,0.15,1.42,0.19,2.01,0.13c0.45-0.05,0.97-0.14,1.18-0.55
		c0.2-0.41-0.01-1.01,0.35-1.3c0.14-0.12,0.34-0.14,0.48-0.26c0.22-0.17,0.24-0.49,0.24-0.77c0-0.25,0.01-0.49,0.01-0.74
		c0.2-0.28,0.38-0.57,0.52-0.87c0.19-0.27,0.48-0.47,0.8-0.54c0.11-0.02,0.22-0.03,0.29-0.11c0.04-0.05,0.06-0.12,0.07-0.18
		c0.26-1.18-0.17-2.42-1.01-3.31c0.07-0.49,0.1-1.04,0.14-1.32c0.03-0.21-0.02-0.54-0.18-0.49c-0.19-0.3-0.19-0.77,0-1.08
		c0.09-0.15,0.22-0.25,0.31-0.4c0.1-0.16,0.14-0.37,0.17-0.57c0.06-0.46,0.02-0.94-0.07-1.39c0.3-0.77,0.57-1.55,0.61-2.37
		c0.02-0.39-0.01-0.8-0.04-1.21c0.11-0.3,0.22-0.6,0.31-0.9c0.19-0.65,0.3-1.32,0.37-1.99c0.12-0.14,0.24-0.29,0.35-0.44
		c0.57-0.82,0.66-1.89,0.51-2.87c-0.14-0.99-0.5-1.93-0.74-2.89c-1-3.93-0.2-8.07-0.41-12.12c-0.11-2.23-0.54-4.43-1.05-6.6
		c0.13-0.24,0.23-0.52,0.25-0.84c0.04-0.54-0.12-1.17,0.08-1.59c0.1-0.2,0.26-0.28,0.36-0.46c0.19-0.33,0.17-0.86,0.13-1.32
		c-0.09-1.12-0.21-2.32,0.09-3.33c0.09-0.29,0.21-0.56,0.26-0.88c0.09-0.52-0.04-1.13-0.3-1.76c0.12-0.48,0.21-0.97,0.23-1.48
		c0.05-1.14-0.24-2.27-0.45-3.39c0.07-1.24,0.13-2.49,0.2-3.73c0.69-0.9,1.16-2.01,1.06-3.13c-0.04-0.39-0.14-0.78-0.17-1.18
		c-0.06-0.81,0.19-1.61,0.3-2.41c0.14-1.03,0.03-2.09-0.28-3.08c0.05-0.65,0.09-1.31,0.13-1.96c0.04-0.65,0.08-1.29,0.12-1.94
		c0.28-0.63,0.55-1.27,0.77-1.92c0.69-2.04,0.99-4.25,0.52-6.35c-0.12-0.53-0.29-1.06-0.37-1.6c-0.05-0.38-0.05-0.76-0.03-1.14
		c0.01,0,0.02,0.01,0.03,0.01c0.2,0.21,0.44,0.39,0.7,0.51c0.64,0.29,1.36,0.37,2.01,0.66c1.77,0.77,2.55,2.81,3.16,4.64
		c0.66,2.02,1.33,4.14,0.98,6.23c-0.01,1.04,1.2,0.6,1.24,1.29c0.04,0.69-0.16,1.42,0.12,2.04c0.54,1.21,4.36,1.58,4.82,2.8
		c0.28,0.82,0.67,0.36,1.24,0.84c0.57,0.48,0.66,0.18,1.1,0.11c0.79-0.35,0.99-0.87,1.6-1.48c1.61-1.62,4.91-0.23,6.49-1.88
		c0.44-0.46,0.63-1.1,0.75-1.72c0.22-1.15,0.23-2.33,0.07-3.49c0.68-1.12,1.41-2.43,1.86-3.66c0.13-0.12,0.26-0.24,0.38-0.36
		c1.05-1.08,1.9-2.74,1.14-4.04c-0.51-0.69-0.98-0.03-1.31-0.41C92,84,91.67,83.52,91.16,83.48c-0.32-0.02-0.97,0.18-1.52-0.37
		c-1.39-1.59-4.36-1.68-5.9-4.19c-0.49-0.8-0.83-1.69-1.33-2.48c-0.52-0.81-1.25-1.48-2.09-1.93c-0.08-0.04-0.16-0.07-0.24-0.11
		c-0.07-0.15-0.14-0.3-0.21-0.45c-0.4-0.75-1-1.55-1.85-1.55c-1.08,0-1.67,1.25-2.57,1.85c-1.36,0.91-3.1-0.77-4.06-0.03
		c-0.53,0.35-0.36,0.92-0.32,2.05c0.02,0.62-0.3,1.19-0.81,1.55c-0.28,0.2-0.51,0.56-0.57,0.9c-0.11,0.66,0.03,1.41-0.37,1.95
		c-0.65,0.87-1.95,0.58-3.29,0.32c0.05-0.96,0.07-2.04-0.04-3.1c0.1-2.06,0.18-4.12,0.22-6.18c0.02-0.05,0.04-0.09,0.06-0.13
		c0.23-0.6,0.45-1.22,0.5-1.87c0.05-0.74-0.12-1.47-0.27-2.2c-0.11-0.54-0.21-1.08-0.3-1.63c-0.01-0.21,0-0.41-0.01-0.62
		c-0.03-0.8-0.07-1.6-0.13-2.4c0.03-0.67,0.06-1.35,0.08-2.02l-0.16-0.02c0.06-0.55,0.14-1.09,0.27-1.63
		c0.12-0.49,0.27-0.97,0.31-1.47c0.08-0.99-0.27-1.91-0.78-2.76c0.24-0.57,0.52-1.13,0.86-1.65c0.22-0.33,0.46-0.65,0.58-1.02
		c0.11-0.33,0.11-0.69,0.1-1.04c-0.07-1.53-0.56-2.99-0.77-4.5c4.59-5.93,9.41-11.93,14.15-18.49c1.28-1.28,3.25-3.19,3.23-4.83
		c0.03-0.07,0.06-0.14,0.1-0.2c0.12-0.14,0.29-0.21,0.37-0.39c0.08-0.19,0.03-0.43,0.01-0.64c-0.09-0.88,0.53-0.92,0.98-1.59
		c0.68-1.03,1.43-2.87,1.1-5.52c-0.3-2.35-0.98-2.24-1.61-2.74c0.08-0.34,0.07-0.72-0.03-1.05c-0.05-0.15-0.12-0.3-0.18-0.44
		c-0.12-0.26-0.25-0.52-0.38-0.78c-0.03-0.72-0.27-1.43-1.21-2.12c-2.33-1.27-3.94-3.51-5.62-5.57c-0.06-0.07-0.13-0.14-0.19-0.21
		c-1.12-0.91-1.15-0.24-1.7-0.45c-2.17-0.82-4.46-1.72-6.74-1.31c-0.39,0.07-0.62-0.41-1.01-0.4c-0.26,0-0.58-0.17-0.85,0.27
		c-0.37,0.41-0.75,1.06-0.99,1.67c-0.64,9.13-2.87,14.22-5.66,21.25c-0.95,2.38-1.06,4.56-3.23,6.97c-1.66,4.08-3.55,5.19-5.51,7.64
		c-3.93,4.92-7.87,9.84-11.8,14.76c-0.31,0.39-0.64,0.8-1.1,1c-0.46,0.2-0.99,0.18-1.46,0.37c-1.09,0.43-1.43,1.76-1.89,2.83
		c-1,3.71-3,3.88-4.94,5.4c-1.64,1.28-3.29,2.57-5.16,3.5c-0.95,1.48-2.54,0.73-3.37,1.67c-0.18,0.21-0.34,0.4-0.51,0.59
		c-0.35,0.18-0.69,0.4-0.95,0.62c-0.68,0.56-1.22,1.27-1.72,1.99c-0.11,0.16-0.22,0.32-0.27,0.5c-0.09,0.32-0.03,0.71-0.27,0.93
		c-0.07,0.07-0.17,0.11-0.23,0.18c-0.08,0.09-0.11,0.21-0.13,0.33c-0.17,0.81-0.45,1.76-0.87,2.36c-0.17,0.24-0.15,0.38-0.24,0.66
		c-0.06,0.19-0.25,0.23-0.48,0.48c-0.29,0.32-0.79,0.7-1.5,1.04c-0.62,0.29-1.02,0.89-1.02,1.23c0,0.58-0.16,0.66-0.36,1.21
		c-0.18,0.47-0.39,1.27-0.62,1.68c-0.3,0.53-0.82,0.65-1.11,1.19c-0.17,0.33-0.18,0.81-0.35,1.14c-0.1,0.19-0.21,0.37-0.32,0.56
		c-0.46-0.02-0.91,0.04-1.26,0.7c-0.52,0.99-0.61,2.14-0.62,3.26C9,89.89,9.46,90.57,9.31,93.7z"/>
	<path class="st0" d="M89.94,112.59c-1.57-0.97-3.14-1.95-4.71-2.92c-0.52-0.32-0.89-0.53-1.7-0.64c-0.82-0.11-1.72-1.37-3.54-1.76
		c-1.2-0.24-1.62,0.43-2.22-0.06c-1.29-1.05-2.16-1.21-4.25-1.89c-1.7-0.39,0.02,1.6-1.18,2.76c-0.56,0.44-1.46,0.07-2.07-0.03
		c-0.59-0.1-1.45-0.41-1.91,0.14c-0.65,0.79,0.78,2.4,1.03,3.23c0.2,0.67,0.71,1.19,1.11,1.77s0.7,1.32,0.42,1.96
		c-0.27,0.62-1.35,1.48-2.06,2.01c-0.35,0.53-0.21,0.92-0.04,1.01c0.61,0.69,1.58,0.4,1.98,1.12c0.1,0.18,0.12,0.38,0.13,0.59
		c0.05,1.11-0.29,2.2-0.3,3.3c-0.01,1.77,0.84,3.41,1.67,4.97c0.4,0.76,0.84,1.56,1.6,1.95c0.41,0.21,0.9,0.3,1.25,0.61
		c0.62,0.56,0.5,1.61,1.06,2.24c0.51,0.57,1.33,0.84,1.62,1.55c0.27,0.66,0.04,0.75,0.4,1.15c0.25,0.28,1.72,0.28,2.07,0.4
		c2.07,0.71,3.6-0.24,5.84-0.6c1.24-0.2,2.48-0.4,3.67-0.79c0.95-0.31,1.86-0.75,2.7-1.29c1.52-0.98,2.84-2.36,3.52-4.04
		c1.05-2.6,0.5-5.54-0.08-8.29c-0.36-1.71-0.74-3.46-1.72-4.9C93.16,114.59,91.52,113.57,89.94,112.59z"/>
	<path class="st0" d="M107.04,174.26c0,0.07,0,0.16,0,0.23c0,0.69,0.04,1.38,0.25,2.04c0.13,0.39,0.32,0.77,0.63,1.04
		c0.31,0.27,0.75,0.41,1.14,0.29c0.23-0.07,0.46-0.23,0.69-0.17c0.13,0.04,0.24,0.14,0.37,0.19c0.17,0.06,0.35,0.01,0.49-0.09
		c0.12,0.1,0.24,0.2,0.35,0.3c0.61,0.51,1.34,1.05,2.11,0.86c0.75-0.18,1.16-0.98,1.79-1.44c1.26-0.92,3.09-0.31,4.52-0.93
		c1.41-0.61,2.06-2.2,2.86-3.51c0.28-0.46,0.42-0.76,0.76-1.17c0.06,0.02,0.61-0.12,0.95-0.38c0.48-0.37,0.57-0.57,0.62-1.16
		c0.84-0.71,1.78-1.31,2.79-1.75c0.64-0.28,1.34-0.52,1.8-1.05c0.6-0.7,0.63-1.74,1.09-2.54c0.84-1.46,2.87-1.81,3.87-3.16
		c0.36-0.49,0.57-0.42,0.74-1c-0.06-0.76,0.55-1.51,0.57-1.52c0.57-0.25,0.76-1.2,0.36-2.01c2.76-6.88,8.86-12.2,11.94-19.05
		c0.76-1.69,1.4-3.56,2.89-4.66c1.39-1.03,3.2-1.15,4.9-1.54c-0.9,4.13-0.78,8.58-1.95,12.69c-0.2,0.71-0.51,1.49-1.19,1.79
		c-0.58,0.26-0.33,0.76-0.66,1.3c-0.19,0.31-0.7,0.65-0.96,1.78c-0.53,2.84,1.23,2.74,1.2,5.16c-0.02,0.18-0.04,0.36-0.08,0.53
		c-0.15,0.73-0.5,1.5-0.18,2.17c0.14,0.3,0.39,0.52,0.6,0.77c0.33,0.4,0.58,0.86,0.88,1.28c-0.04,0.82,0.02,1.66,0.43,2.36
		c0.52,0.9,1.52,1.41,2.17,2.22c0.6,0.75,0.89,1.72,1.57,2.4c0.3,0.3,1.21,1.19,1.42,1.38c0.58,0.54,1.53,0.16,2.18-0.29
		c0.44-0.3,0.87-0.64,1.28-0.99c0.44-0.29,0.86-0.63,1.23-1.01c0.59-0.61,1.1-1.3,1.77-1.82c0.9-0.7,2.06-1.08,2.79-1.96
		c0.34-0.41,0.56-0.9,0.74-1.4c0.51-0.81,0.59-2.04,1.31-2.74c0.64-0.61,1.67-0.7,2.23-1.38c0.35-0.42,0.82-1.82,0.91-2.08
		c0.09-0.27,0.05-0.57,0.02-0.85c-0.36-3.56,1.55-6.89,2.92-10.18c0.27-0.64,1.1-3.82,1.2-4.78c0.09-0.86,0.7-1.52,0.31-2.58
		c0.24-0.79,0.89-1.44,1.05-2.25c2.61-12.6-2.43-19.56-0.53-27.42c0.07-0.33,0.13-0.7,0.34-0.96c0.34-0.41,0.73-0.31,1.16-0.55
		c0.6-0.33,0.52-1.02,0.34-1.64c0.42-0.26,0.87-0.5,1.24-0.82c0.8-0.7,1.17-1.71,1.26-2.75c0.15-0.02,0.28-0.06,0.38-0.17
		c0.2-0.22,0.12-0.56,0.02-0.84c-0.42-1.26-0.85-2.53-1.27-3.79c0.45-0.57,0.63-1.38,0.23-1.98c-0.14-0.2-0.34-0.39-0.34-0.64
		c0-0.21,0.15-0.4,0.15-0.61c0-0.17,0.11-0.43-0.02-0.54c-0.66-0.61-1.37-1.4-2.15-1.95c-0.16-0.11-0.33-0.22-0.4-0.4
		c-0.08-0.18-0.05-0.39-0.12-0.57c-0.1-0.27-1.5-0.93-1.92-1.12c-1.19-0.54-2.81-0.74-2.92-2.04c0.05-0.39-0.65-0.17-0.9-0.65
		c-0.43-0.47-1.34-0.63-1.96-0.34c-0.92-0.46-1.86-0.9-2.84-1.24c-1.11-0.39-2.3-0.69-3.46-0.5c-1.16,0.19-2.29,0.99-2.55,2.14
		c-0.16,0.7-0.01,1.48-0.39,2.09c-0.43,0.7-1.4,0.85-2.21,0.69c-0.81-0.16-2.25-0.28-3.07-0.39c-0.61-0.09-0.44,0.31-0.92,0.22
		c-1.21-0.22-3.2,1.5-3.91,1.71c-0.88,0.26-1.01,0.04-1.17-0.42c-0.12-0.37-0.35-0.69-0.52-1.04c-0.28-0.56-0.77-0.96-1.23-1.39
		c-0.02-0.63-0.04-1.25-0.07-1.88c-0.02-0.49-0.01-0.98,0.04-1.46c0.01-0.02,0.03-0.03,0.04-0.04c0.25-0.38,0.26-0.85,0.26-1.32
		c0.07-0.21,0.14-0.42,0.19-0.64c0.04-0.16,0.07-0.48,0.1-0.87c0.17-0.39,0.39-0.77,0.6-1.14c0.85-1.51,1.46-3.14,1.85-4.82
		c0.15-0.03,0.3-0.07,0.46-0.1c1.39,0.08,2.78,0.13,4.17,0.02c0.45-0.04,0.91-0.09,1.36-0.15c0.33,0.07,0.67,0.15,0.99,0.26
		c0.4,0.14,0.83,0.31,1.23,0.2c0.45-0.12,0.72-0.53,1.01-0.92c1.44-0.16,2.87-0.2,4.26,0.16c0.14,0.04,0.78-0.2,0.92-0.16
		c0.42,0.23,0.68,0.12,1.08-0.1c0.93-0.51,0.98,0.72,1.95,0.67c0.87-0.1,1.29-0.51,1.59-0.67c0.66-0.35,1.13-1.33,1.13-1.34
		c2.32-0.01,4.16,0.25,4.63,0.41c0.72,0.26,1.82-0.65,2.26-0.82c0.64-0.25,1.63,0.05,2.21-0.31c0.88-0.54,1.02-1.01,1.9-1.54
		c0.79-0.03,0.79-0.4,1.18-0.31c0.46,0.1,1.48-0.29,1.59-0.67c0.36-0.77,0.84-0.48,1.49-0.87c0.93-0.57,1.52-1.57,2.31-2.31
		c0.24-0.02,0.43-0.43,0.67-0.44c0.36-0.03,0.74-0.07,1.04-0.28c0.7-0.49,0.54-1.54,0.51-2.4c-0.01-0.27,0.01-0.57,0.05-0.87
		c0.11-0.19,0.21-0.39,0.33-0.57c0.93-1.4,1.25-1.86,2.01-4.43c0.12-0.16,0.48-0.16,0.43-0.83c-0.15-0.77-0.73-0.9-0.84-1.29
		c-0.1-0.37-0.34-0.69-0.58-0.99c-1.79-2.13-4.39-3.02-6.91-3.85c-0.14-0.09-0.1-0.26-0.67-0.42c-1.45-0.73-3.49,0.01-4.61,0.76
		c-1.97,0.07-0.05,0-0.07,0c-1.56-0.13-3.06-0.65-4.61-0.81c-0.69-0.07-1.38-0.07-2.07-0.03c-1.13-0.37-2.26-0.61-3.4-0.32
		c-0.65,0.16-1.23,0.48-1.81,0.82c-0.75,0.08-1.5,0.15-2.25,0.23c-0.99,0.1-1.32-0.1-2.27,0.19c-0.27,0.08-0.92,0.57-1.46,0.59
		c-0.54,0.03-0.49-0.23-0.9-0.18c-0.6,0.07-1.21,0.31-1.65,0.72c-0.9,0.85-1.26,0.88-2.38,1.39c-0.41,0.11-0.82,0.24-1.23,0.32
		c-1.32,0.27-2.68,0.41-3.93,0.9c-0.01,0-0.02,0.01-0.03,0.02c-0.13-0.87-0.27-1.73-0.33-2.61c-0.1-1.69,0.13-3.39,0.37-5.07
		c0.27-1.9,0.53-3.81,0.8-5.71c0.27-1.9,0.54-3.84,1.43-5.53c0.63-1.21,1.68-2.65,0.99-4.08c0,0,0-0.01-0.01-0.01
		c0.19-0.23,0.39-0.45,0.63-0.64c0.19-0.16,0.39-0.3,0.51-0.51c0.26-0.47,0.02-1.05-0.22-1.52c-0.18-0.36-0.36-0.72-0.55-1.08
		c-0.04-0.4-0.17-0.82-0.32-1.2c-0.45-1.16-1-2.42-2.12-2.96c-0.82-0.4-1.8-0.32-2.7-0.13c-0.01,0-0.01,0-0.02,0
		c-0.34-0.06-0.68-0.09-1.02-0.09c-0.3-0.5-0.7-1.03-1.27-1.03c-0.23,0-0.42-0.09-0.86,0.29c-0.94,0.25-2.67,0.17-3.76-0.55
		c-0.26-0.17-0.46-0.44-0.76-0.5c-0.29-0.07-0.58,0.07-0.84,0.21c-1.01,0.52-1.85,1.05-2.6,1.9c-0.55,0.62-0.94,0.76-1.7,0.83
		c-0.58,0.05-1.07-0.75-1.8-0.55c-0.72,0.25,0.15,1.1,0.08,2.22c-0.19,1.54-0.13,1.4,0.24,2.01c0.43,0.88,1.42,0.71,1.85,1.34
		c0.42,2.31,0.84,4.62,1.26,6.93c0.11,2.06,0.06,4.14-0.05,6.21c-0.11,0.2-0.21,0.4-0.3,0.61c-0.74,1.83,0.21,4.23-1.09,5.71
		c-0.41,0.47-1.06,1.05-0.71,1.57c0.15,0.22,0.42,0.3,0.65,0.43c0.31,0.17,0.53,0.44,0.7,0.75c-0.13,1.43-0.24,2.87-0.33,4.31
		c-0.08,0.36-0.13,0.72-0.2,1.09c-1.77,0.81-3.5,1.77-5.42,1.79c-0.75,0.01-1.51-0.13-2.24,0.05c-0.73,0.18-1.32,0.73-2,1.04
		c-1.51,0.69-2.11,0.34-3.46,0.33c-0.75-0.48-0.46-1.29-2.16-1.59c-1.79-0.32-2.11,0.41-3.68,0.1c-2.44-3.6-5.24,0.89-7.06,3.07
		c-0.13,0.16-0.27,0.33-0.33,0.53c-0.28,1,1.32,1.31,2.03,2.07c0.35,0.37,0.45,0.83,0.47,1.33c-0.41,1.03-0.56,2.22-0.55,3.34
		c0.02,1.52,0.27,3.15,1.32,4.26c0.29,0.31,0.67,0.58,1.09,0.55c0.27-0.02,0.56-0.16,0.81-0.06c0.25,0.1,0.35,0.39,0.49,0.62
		c0.49,0.8,1.59,0.93,2.35,1.49c0.38,0.28,0.68,0.67,1.01,1.01c0.46,0.47,0.99,0.86,1.52,1.25c1.23,0.9,2.55,1.83,4.07,1.93
		c0.24,0.02,0.49,0.01,0.7-0.11c0.05-0.03,0.08-0.08,0.13-0.13c0.4,0.14,0.81,0.24,1.24,0.27c0.8,0.06,1.59-0.14,2.37-0.34
		c0.81-0.21,1.61-0.41,2.42-0.62c0.02,0.34,0.02,0.69,0.01,1.05c-0.03,0.59-0.09,1.18-0.16,1.77c-0.21,0.64-0.36,1.28-0.38,1.96
		c0,0.1,0,0.21,0,0.31c-0.19,1-0.39,1.99-0.55,2.99c-0.02,0.12-0.03,0.23-0.05,0.35c-0.3,0.32-0.66,0.58-0.95,0.91
		c-0.81,0.93-1.25,2.64-1.32,3.88c-0.05,0.83,0.08,1.8,0.03,2.63c-0.02,1.55-0.12,2.79-0.58,4.04c-0.19,0.52-0.53,0.98-0.63,1.53
		c-0.11,0.54,0.24,0.64,0.51,1.02c0.7,1.98,0.87,4.33,1.13,5.16c0.32,1.04,1.23,1.93,1.19,3.02c-0.01,0.17-0.04,0.35,0.03,0.5
		c0.08,0.18,0.29,0.28,0.49,0.33c0.38,0.09,0.75,0.05,1.13-0.05c0.2,0.53,0.45,1.04,0.84,1.45c0.8,0.85,2.45,1.02,3.02,0
		c0.22-0.4,0.23-0.89,0.46-1.28c0.36-0.64,1.16-0.87,1.87-1.06c0.11-0.03,0.23-0.07,0.34-0.11c0.52,0.06,1.04,0.09,1.55,0
		c0.86-0.16,1.6-0.69,2.36-1.12c2.37-1.34,5.19-1.87,7.88-1.46c0.51,0.08,1.08,0.17,1.48-0.15c0.19-0.15,0.31-0.36,0.46-0.55
		c0.76-0.9,2.12-0.84,3.3-0.95c1.64-0.15,3.24-0.78,4.53-1.81c0.1-0.08,0.19-0.16,0.27-0.25c1.08-0.21,2.17-0.29,3.26-0.15
		c0.05,0.01,0.11,0.02,0.16,0.03c0.41,3.71-0.06,6.51-0.56,9.7c-0.18,1.15-0.37,2.34-0.99,3.34c-0.42,0.67-1.01,1.23-1.42,1.9
		c-0.33,0.55-0.53,1.16-0.73,1.78c-1.17,0.02-2.35,0.23-3.48-0.03c-1.36-0.31,0.31-3.3-1.98-3.03c-0.9,0.58-5.26-4.58-5.75-4.98
		c-1.41-1.16-3.69-1.18-4.83,0.44c-0.9,1.29-0.96,2.96-1.18,4.52c-0.38,2.78-1.33,5.4-2.56,7.92c-0.35,0.1-0.7,0.2-0.97,0.43
		c-0.27,0.23-0.43,0.57-0.55,0.9c-0.32,0.83-0.52,1.7-0.62,2.58c-0.79,1.32-1.62,2.62-2.44,3.91c-1.9,2.95-3.79,5.91-5.69,8.86
		c-0.76,1.18-1.65,2.45-3.02,2.73c-0.81,0.16-1.65-0.07-2.48-0.11c-2.66-0.13-4.99,1.66-7.05,3.36c-2.08,1.72-4.16,3.43-6.24,5.15
		c-0.28-0.02-0.62,0.02-1.04,0.13c-0.18,0.05-1,0.35-1.18,0.39c-0.76,0.16-1.02,0.9-1.4,1.49c-0.35,0.56-0.7,1.13-0.93,1.74
		c-0.84,0.7-1.67,1.43-2.19,2.38c-0.57,1.04-0.73,2.26-0.88,3.44c-0.22,1.8-0.45,3.6-0.67,5.4c-0.13,1.08-0.27,2.16-0.15,3.24
		C105.13,171.36,105.94,172.89,107.04,174.26z"/>
	<path class="st0" d="M200.38,85.96c0.02,0.03,0.03,0.07,0.05,0.1c0,0.89,0.01,1.77,0.02,2.65c0.01,0.69,0.02,1.39,0.27,2.03
		c0.18,0.45,0.47,0.84,0.81,1.19c0.06,0.15,0.1,0.3,0.18,0.44c0.66,1.21,2.01,1.9,3.36,2.21c0.94,0.21,1.95,0.29,2.77,0.81
		c0.3,0.19,0.57,0.44,0.88,0.62c0.33,0.19,0.7,0.29,1.07,0.39c1.44,0.38,2.88,0.77,4.32,1.15c0.3,0.08,0.61,0.17,0.82,0.39
		c0.31,0.33,0.31,0.84,0.56,1.22c0.41,0.62,1.37,0.65,2,0.26c0.63-0.39,1.02-1.08,1.37-1.73c0.6-1.1,1.2-2.2,1.8-3.3
		c0.42-0.77,1-1.64,1.88-1.65c0.35,0,0.68,0.14,1.03,0.14c0.83-0.01,1.41-0.8,1.84-1.51c0,0,0,0,0-0.01
		c0.16,0.03,0.32,0.06,0.48,0.1c0.44,0.09,0.88,0.18,1.31,0.28c-0.86,4.18-1.73,8.36-3.04,12.42c-2.33,7.22-6.04,14-10.88,19.84
		c-0.74,0.9-1.54,1.83-1.8,2.96c-0.32,1.37,0.2,2.78,0.48,4.16c0.55,2.67,0.23,5.51-0.91,7.98c-0.48,1.04-1.1,2.02-1.46,3.11
		c-1.32,3.96,1.02,8.12,3.26,11.63c0.48,0.75,1.02,1.55,1.86,1.83c2.62,0.86,3.84-3.66,6.48-4.45c0.77-0.23,1.61-0.11,2.38-0.33
		c1.89-0.53,2.68-2.82,2.7-4.79c0.01-1.54-0.24-3.13-0.03-4.63c0.7-0.09,1.37-0.34,1.65-0.95c0.14-0.29,0.16-0.63,0.17-0.95
		c0.03-0.62,0.07-1.24,0.1-1.86c0.6-0.71,1.24-1.39,1.76-2.15c0.24-0.34,0.44-0.7,0.62-1.06c0.86-0.23,1.62-0.93,2.05-1.78
		c0.56-1.1,0.69-2.38,0.75-3.63c0.1-2.07,0.04-4.14,0.11-6.21c0.06-1.86,0.21-3.73,0.67-5.54c0.22-0.87,0.2-4.96,0.34-5.69
		c0.06-0.34,0.13-0.69,0.11-1.04c-0.02-0.39-0.14-0.79-0.06-1.17c0.06-0.3,0.24-0.57,0.39-0.84c0.26-0.48,0.55-1.74,0.46-2.75
		c0.05-0.07,0.11-0.12,0.15-0.2c0.82-1.45-0.69-3.16-0.5-4.93c0.12-0.82,0.24-1.64,0.36-2.45c0.26-1.75,0.52-3.5,0.77-5.25
		c0.56-1.06,1.74-9.87,1.91-19.88c0.04-0.49,0.09-0.97,0.14-1.46c0.33-1.52,0.9-2.97,1.31-4.46c0.91-3.24,1.12-6.64,1.94-9.9
		c0.26-1.01,0.57-2.01,0.89-3c0.68-1.36,1.46-2.66,2.39-3.87c0.64-0.84,1.36-1.66,1.7-2.66c0.46-1.32,0.22-2.76-0.03-4.13
		c-0.26-1.48-0.58-3.06-1.65-4.12c-0.92-0.96-2.28-1.24-3.5-1.16c-0.69-0.39-1.4-0.71-2.14-0.66c-0.62,0.04-1.19,0.37-1.81,0.49
		c-1,0.2-2.01-0.14-2.97-0.47c-0.82-0.29-1.65-0.58-2.47-0.86c-0.76-0.26-0.53,0.04-1.49-0.26c-1.04,0.23-0.71,0.88-1.54,1.55
		c-0.26,0.21-0.62,0.25-0.95,0.29c-2.15,0.22-3.55,0.31-5.81,0.48c-0.44-0.02-0.79-0.05-0.9-0.15c-0.39-0.36-3.13-0.12-4.32-0.29
		c-0.95-0.02-0.75,0.3-1.52,0.25c-0.34-0.83-0.96-1.53-1.97-1.96c-0.99-0.42-2.21-0.31-3.04,0.34c-3.78,0.16-8.58,2.45-6.99,6.2
		c0.23,0.53,0.45,0.22,0.72,0.87c0.03,0.72-0.14,1.27-0.16,1.9c-0.01,0.16-0.01,0.32,0.04,0.47c0.05,0.16,0.17,0.29,0.28,0.41
		c0.49,0.56,0.59,0.73,0.57,1.5c-0.3,1.26,0.07,2.24-0.09,2.52c-0.53,0.92-0.7,1.61,0.17,2.22c0.36,0.25,0.82,0.3,1.26,0.34
		c1.73,0.15,3.18,0.24,4.91,0.75c0.25,0.53,0.75,0.5,1.33,0.35c1.48-0.4,1.21-0.35,3.03-0.64c3.31,0.05,5.65-0.1,8.95-0.31
		c1.88-0.59,3.78-1.65,4.19-0.19c0.1,0.37,0.07,0.79,0.24,1.14c0.35,0.75,1.4,0.87,2.19,0.63c0.06-0.02,0.11-0.04,0.17-0.06
		c0.12,1.99,0.33,3.98,0.38,5.96c-0.36,1.31-0.76,2.59-1.21,3.82c-0.47,1.3-1.01,2.59-1.15,3.97c-0.11,1.09,0.04,2.2,0.14,3.29
		c0.55,6.15-0.61,12.31-1.86,18.37c-0.59-0.16-1.16-0.4-1.65-0.78c-0.54-0.41-0.95-0.95-1.36-1.49c-0.42-0.55-0.83-1.12-1.21-1.7
		c0.09-0.59,0.2-1.17,0.2-1.76c0.01-1.67-0.83-3.21-1.65-4.66c-0.71-1.26-1.42-2.52-2.29-3.68c-2.35-3.15-5.68-5.39-8.95-7.56
		c-1.29-0.86-2.93-1.74-4.28-0.99c-0.8,0.44-1.21,1.33-1.74,2.07c-0.42,0.6-0.95,0.99-1.64,1.21c-0.41,0.13-1.35-0.05-1.6,0.36
		c-0.21,0.34,0.49,2.31,0.58,2.76c0.08,0.37,0.15,0.74,0.23,1.11c-0.48,0.8-0.8,1.72-1.03,2.67c-0.45,0.5-0.8,1.12-1.01,1.76
		c-0.39,1.19-0.42,2.47-0.44,3.72c-0.01,0.51-0.01,1.05,0.22,1.51C199.96,85.44,200.2,85.68,200.38,85.96z"/>
	<path class="st0" d="M198.09,114.9c0.32,0.38,0.7,0.73,0.91,1.18c0.21,0.43,0.25,0.93,0.28,1.41c0.12,1.59,1.33,1.18,1.45,2.77
		c0.04,0.52,0.05,1.69,0.37,2.1c0.49,0.62,1.05,1.54,2.16,1.85c1.11,0.31,3.77,0.13,3.77,0.13c1.34-0.02,2.55-0.83,3.06-2.06
		c0,0,0.27-0.92,0.53-1c0.41-0.12,0.26-0.49,0.47-0.48c0.27,0.01,0.52,0.07,0.79,0.01c0.19-0.04,0.33-0.19,0.41-0.32
		c0.29-0.44-0.46-1.06,0.32-1.58c0.16-0.11-0.12-0.29,0.21-0.33c0.25,0.02,0.2,0.1,0.4-0.04c0.14-0.1,0.55-0.58,0.62-0.73
		c0.51-1.11,1.03-2.26,1.07-3.48c0.04-1.22-0.5-2.55-1.61-3.06c-0.27-0.13-0.58-0.2-0.89-0.26c-0.66-0.17-2.06-1.14-2.84-1.38
		c-0.13-0.34-0.22-0.29-0.49-0.52c-0.53-0.46-0.84,0.12-1.85-0.11c-0.68-0.18-1.36-0.36-2.04-0.53c-0.45-0.12-0.69-0.77-0.94-0.86
		c-0.38-0.16-0.46,0.11-0.64-0.04c-0.08-0.12-0.18-0.22-0.25-0.34c-0.16-0.25-0.32-0.51-0.58-0.67c-0.45-0.28-1.03-0.5-1.56-0.54
		c-1.59-0.11-2.79-1.42-4.38-1.43c-0.21,0-0.44,0.04-0.57,0.2c-0.14,0.17-0.13,0.41-0.11,0.63
		C196.42,108.28,196.13,112.58,198.09,114.9z"/>
	<path class="st0" d="M151.3,229.2c-0.27-0.24-1.34-0.22-2.77-0.79c-2.34-1.46-4.67-2.85-6.44-5.01c-1.26-0.69-1.84,0.07-2.68-0.33
		c-5.25-2.49-3.51,4.73-4.42,8.2c-0.73,2.77-1.76,5.46-2.87,8.1c-3.85,9.2-8.61,18.02-14.19,26.29c-0.64,0.95-1.37,1.95-2.45,2.3
		c-1.09,0.35-2.05-0.73-2.69-0.59c-0.88,0.09-0.45-1.23-1.85-0.06c-0.34,0.5-0.84,0.05-1.01,0.95c-1.75,0.57-3.47,0.4-4.74,1.63
		c-1.27,1.23-2.18,2.92-3.8,3.62c-1.42,0.61-3.05,0.3-4.56-0.01c-1.67,2.57-3.06,5.32-4.14,8.18c-0.78,2.08-1.4,4.23-1.61,6.43
		c-0.52,5.66,1.96,11.51,6.38,15.09c0.83,0.67,1.94,1.29,2.91,0.84c0.49-0.23,0.84-0.69,1.35-0.87c0.8-0.28,1.64,0.24,2.48,0.39
		c1.56,0.28,3.03-0.72,4.29-1.67c3.39-2.55,6.8-5.12,9.55-8.34c0.37-0.06,0.74-0.11,1.11-0.17c0.63-0.1,1.31-0.21,1.78-0.64
		c0.22-0.2,0.38-0.46,0.54-0.72c0.66-1.07,1.34-2.17,1.5-3.42c0.07-0.58,0.03-1.17,0.08-1.75c0.02-0.26,0.1-0.61,0.2-1.01
		c0.17-0.28,0.35-0.55,0.5-0.85c1.29-2.57,4.31-1.73,4.8-2.9c1.13-3.31-0.43-2.69,0.88-6.15c0.66-1.75,1.35-3.48,2.25-5.11
		c0.97-1.76,1.94-3.53,2.94-5.27c0.13-0.22,0.26-0.44,0.39-0.66c1.08-0.98,2.17-1.97,3.25-2.95c0.24-0.22,0.48-0.43,0.65-0.71
		c0.26-0.41,0.33-0.91,0.41-1.39c0.17-1.01,0.41-2,0.69-2.99c3.33-5.01,6.94-9.84,10.82-14.44c1.56-1.85,3.31-3.88,3.34-6.3
		c0.03-3.34-1.2-3.12-1.89-4.65C152.76,228.75,152.03,229.87,151.3,229.2z"/>
	<path class="st0" d="M215.12,273.01c0.15-0.55,0.21-1.1,0.04-1.65c-0.08-0.27-0.22-0.51-0.38-0.75c-0.1-0.58-0.23-1.16-0.52-1.67
		c-0.28-0.48-0.58-0.74-0.88-0.88c-0.13-0.38-0.24-0.77-0.34-1.16c-0.04-0.96-0.08-1.91-0.15-2.87c-0.06-0.88-0.22-1.9-1-2.32
		c-0.25-0.14-0.55-0.19-0.79-0.35c-0.23-0.15-0.38-0.39-0.61-0.54c-0.47-0.32-1.11-0.22-1.63-0.46c-0.32-0.16-0.56-0.44-0.83-0.68
		c-0.65-0.6-1.4-0.91-2.16-1.03c-1.76-1.41-3.37-2.99-4.82-4.71c0.2-0.93,0.16-1.96-0.44-2.69c-0.64-0.79-2.22-1.39-3.17-1.71
		c-0.31-0.1-0.63-0.14-0.96-0.14c-1.39-0.94-2.74-1.31-3.18,0.29c-0.09,0.32-0.1,0.64-0.11,0.97c-0.03,0.02-1.58,0.62-1.55,1.25
		c0.07,1.84-1.03,4.08-2.69,5.26c-1.9,0.86-2.77,3.75-1.35,5.39c0.35,0.41,0.8,0.73,1.22,1.07c0.07,0.24,0.14,0.48,0.21,0.72
		c0.3,1,0.6,2.01,0.9,3.01c-0.48,1.57-1.5,3.22-1.08,4.79c0.32,1.22,1.41,2.03,2.19,3.02c0.1,0.63,0.26,1.26,0.43,1.88
		c0.34,1.25,0.68,2.51,1.02,3.76c0.01,0.04,0.02,0.09,0.04,0.13c0.01,0.03,0.02,0.07,0.03,0.1c0.58,2.12,1.15,4.24,1.97,6.27
		c0.7,1.72,1.6,3.43,3.05,4.59c0.89,0.72,2.03,1.18,3.16,1.24c1.64,0.6,3.46,0.63,5.22,0.64c0.84,0,5.26,0.17,6.96-3.66
		c0.4-0.89,0.72-2.18,0.7-3.2c0.1-0.24,0.18-0.48,0.27-0.72c0.31-0.92,0.55-1.85,0.76-2.79c0.2-0.2,0.4-0.4,0.55-0.63
		c0.61-0.92,0.38-1.94-0.01-3.01C215.43,277.54,215.38,275.26,215.12,273.01z"/>
	<path class="st0" d="M300.93,181.67c-0.69-0.18,0.28-0.98-1.33-1.62c-0.08-0.03-0.14-0.11-0.2-0.16c-0.29-0.85-0.72-1.62-1.49-2.04
		c-0.02-0.01-0.04-0.02-0.05-0.03c-0.27-0.44-0.55-0.87-0.93-1.21c-0.46-0.42-1.02-0.69-1.6-0.93c-0.48-0.36-1.07-0.53-1.71-0.59
		c-0.89-0.26-1.8-0.46-2.72-0.57c-0.32-0.04-0.7-0.11-0.83-0.4c-0.08-0.17-0.05-0.38-0.12-0.56c-0.09-0.23-0.33-0.36-0.56-0.47
		c-0.38-0.18-0.77-0.33-1.17-0.47c-0.65-0.66-1.58-1.04-2.52-1.13c-0.53-0.05-0.89,0.13-1.3-0.13c0.03-0.36-0.15-0.44-0.34-0.41
		c-0.52,0.32-1.18,0.13-1.76-0.07c-0.94-0.32-1.88-0.64-2.82-0.96c-0.16-0.05-0.31-0.11-0.47-0.16c-0.65-0.22-1.31-0.44-1.96-0.67
		c-0.78-0.26-1.55-0.53-2.36-0.68c-0.39-0.07-0.77-0.11-1.16-0.12c-0.9-0.84-1.97-1.56-3.11-1.28c-1.28,0.32-1.89,1.68-2.65,2.78
		c-0.48,0.26-0.96,0.55-1.41,0.86c-0.51,0.35-1,0.74-1.59,0.95c-0.56,0.2-1.16,0.23-1.74,0.32c-1.04,0.16-2.05,0.57-2.85,1.24
		c-1.28,0.1-2.63,0.17-3.66,0.94c-1.38,1.03-1.05,3.15-2.35,4.02c-1.83,0.53-3.06,1.07-4.34,2.24c-0.65,0.59-1.18,1.33-1.93,1.77
		c-1.15,0.68-2.57,0.58-3.91,0.51c-15.66-0.78-31.04,6.67-46.61,4.84c-1.15-0.13-0.94,0.32-1.57,0.26c-1.34-0.13-2.5,1.18-3.51,1.54
		c-1.87,0.67-5.2,0.2-7.06,0.91c-0.29,0.03-0.59,0.06-0.88,0.1c-9.28,0.98-18.56,1.86-27.85,2.7c-3.4-0.46-6.89-0.39-10.34-0.29
		c-3.14,0.08-6.27,0.17-9.41,0.25c-2.27,0.06-4.55,0.12-6.8,0.43c-2.43,0.33-4.81,0.93-7.18,1.53c-1.62,0.41-3.24,0.82-4.86,1.23
		c-0.27,0.07-0.53,0.14-0.8,0.21c-0.16,0.01-0.32,0.03-0.48,0.04c-0.95-0.56-0.67-0.18-1.76-0.15c-1.09,0.03-1.9,0.63-4.06,0.63
		c-4.19,0.34-8.38,0.69-12.57,1.03c-3.66,0.3-7.31,0.59-10.97,0.89c-0.88-0.44-1.75-0.93-2.71-1.13c-0.89-0.18-1.8-0.1-2.7-0.01
		c-2.7,0.26-5.41,0.51-8.11,0.77c-1.23,0.12-2.47,0.24-3.67,0.56c-0.66,0.18-1.3,0.42-1.96,0.55c-0.91,0.17-1.84,0.13-2.77,0.11
		c-1.65-0.04-3.29-0.02-4.94,0c-1.15,0.01-2.35,0.04-3.38,0.56c-0.45,0.22-0.87,0.54-1.37,0.57c-0.47,0.02-0.92-0.23-1.39-0.28
		c-0.49-0.05-0.97,0.11-1.43,0.28c-0.45,0.16-0.91,0.32-1.36,0.48c-6.58,0.25-13.15,0.47-19.76,1c-0.53,0.04-1.06,0.1-1.59,0.17
		c-2.86-0.19-5.71-0.46-8.56-0.73c-0.98-0.09-1.97-0.19-2.92-0.43c-0.54-0.13-1.05-0.32-1.56-0.53c-0.19-0.65-0.31-1.36-0.63-1.94
		c-0.08-0.16-0.18-0.31-0.32-0.42c-0.17-0.15-0.37-0.24-0.58-0.31c-1.24-0.46-2.69-0.5-4.08-0.19c-0.52-0.39-1.03-0.79-1.54-1.18
		c-0.7-0.54-1.56-1.41-2.48-2.27c-1.99,0.24-3.79,1.74-4.99,3.47c-0.22,0.68-0.5,1.35-0.79,2.02c-0.03,0.57-0.04,1.15-0.45,1.5
		c-0.08,0.07-0.17,0.11-0.27,0.14c-0.44,1.06-0.82,2.13-0.95,3.25c-0.22,1.89,0.27,3.8,0.95,5.58c2.48,6.49,3.14,9.28,9.44,12.22
		c2.55,0.15,2.24,2.83,5.46,2.15c0.53-0.58,7.81-1.17,9.18-3.87c0.84-0.05,1.69-0.1,2.53-0.15c0.43-0.03,0.87-0.05,1.29-0.17
		c0.75-0.21,1.41-0.7,2.18-0.86c0.1-0.02,0.2-0.02,0.3-0.03c0.79,0.68,1.89,1.54,2.89,1.37c1.05-0.17,1.89-0.89,2.64-1.68
		c1.44-0.18,2.86-0.45,4.26-0.81c0.28-0.07,0.58-0.16,0.78-0.37c0.25-0.26,0.31-0.64,0.5-0.94c0.34-0.53,1.01-0.7,1.62-0.83
		c0.93-0.2,1.86-0.4,2.78-0.6c1.64,0.15,2.9,0.94,4.81,1.53c2.47-0.21,3.32-1.61,4.33-2.78c0.83,0.16,1.7,0.08,2.43-0.36
		c0.81-0.48,1.19-1.07,1.67-1.5c0.81-0.07,1.6-0.01,2.47,0.31c1.08,0.41,2.6,0.36,3.72-0.19c0.92,0.11,1.84,0.18,2.76,0.17
		c2.22-0.03,4.5-0.54,6.27-1.87c2.89-0.3,5.77-0.57,8.66-0.82c0.47,0.03,0.93,0.01,1.36-0.11c1.41-0.12,2.82-0.24,4.23-0.35
		c1.9-0.14,5.93-0.27,6.4-0.27c0.65,0,1.34,0.6,2.68-0.42c11.58-0.84,23.7-1.63,37.3-2.96c2.65-0.26,2.74-0.26,4.33,0.08
		c1.22,0.26,1.09,0.19,2.32,0.37c3.04,0.44,6.33-0.87,12.78-0.87c1.39,0,1.74-0.35,2.75-0.2c2.43,0.38,16.57,1.36,24.97,0.04
		c21.12-3.31,42.23-6.62,63.35-9.93c4.83-0.84,12.39,0.12,17.02,0.66c0.22,0.03,0.45,0.05,0.67,0.07c0.43,0.41,1.38,1.46,1.49,1.66
		c0.39,0.72,1.48,0.99,1.57,0.39c0.09-0.64,0.64-0.57,1.29-0.6c0.73,0.06,1.38-0.09,2.12-0.07c1.23,0.03,2.48,0,3.69,0.28
		c0.71,0.16,1.4,0.43,2.12,0.56c0.79,0.15,1.58,0.13,2.37,0.02c0.29,0.06,0.61,0.06,0.78-0.01c2,0.33,4.04,0.33,6.01-0.07
		c0.81-0.07,0.37,0.51,0.83,0.51c0.98,0,2.61-1.35,2.93-1.53c2.02-1,3.52-2.64,4.73-4.54c0.59-0.92,1.05-1.93,1.76-2.76
		c0.82-0.97,1.94-1.65,2.75-2.62c0.87-1.04,1.36-2.41,1.35-3.77c0-0.1-0.02-0.2-0.03-0.3c0.37-0.37,0.72-0.75,1.05-1.13
		C301.1,182.22,301.23,181.75,300.93,181.67z"/>
</g>
</svg>
