<!-- Generator: Adobe Illustrator 25.0.0, SVG Export Plug-In  -->
<svg version="1.1" xmlns="http://www.w3.org/2000/svg" xmlns:xlink="http://www.w3.org/1999/xlink" x="0px" y="0px"
	 width="191.32px" height="220.29px" viewBox="0 0 191.32 220.29"
	 style="overflow:visible;enable-background:new 0 0 191.32 220.29;" xml:space="preserve">
<style type="text/css">
	.st0{fill:#FFFFFF;}
</style>
<defs>
</defs>
<g>
	<path class="st0" d="M145.56,126.8c0.44-0.67,0.58-1.5,1.02-2.16c0.59-0.89,1.66-1.4,2.21-2.31c0.39-0.65,0.48-1.43,0.57-2.18
		c0.18-1.59,0.55-2.68,0.73-4.27c0.04-0.33,0.1-0.72-0.03-1.03c-0.46-1.07-0.73-0.76-0.9-0.96c-0.19-0.23-0.23-0.56-0.24-0.87
		c-0.08-1.31-0.06-2.61,0.03-3.92c0-0.01,0-0.01,0.01-0.02c0.07-0.21,0.2-0.39,0.33-0.58c0.49-0.75,0.84-1.64,0.76-2.53
		c-0.06-0.67-0.35-1.32-0.42-1.98c0.04-0.36,0.06-0.73,0.06-1.09c0,0,0,0,0,0c0.14-0.88,0.18-1.87-0.36-2.58
		c-0.07-0.1-0.16-0.18-0.24-0.27c-0.11-0.32-0.22-0.65-0.31-0.98c-0.27-1.01-0.33-2.06-0.38-3.11c-0.26-5.02-0.52-10.12,0.63-15.01
		c0.11-0.48,0-1.21,0-2.22c0-0.95,0.05-1.42-0.11-2.47c-0.16-1.05-0.4-1.94-0.34-3c0.1-1.96-0.12-3.72-0.2-5.68
		c-0.1-1.33-0.24-2.66,0.48-3.24c0.62-0.34,0.79,0.06,1.27-0.22c0.6-0.35,0.09-0.67,0.28-1.12c0.5-1.17-0.5-2.31-1.73-2.79
		c-0.41-0.16-1.02-0.64-1.46-0.66c-0.41-0.02-0.82-0.03-1.23-0.05c-3.88-0.14-9.62,1.67-9.34,6.34c0.08,1.39,0.17,2.78,0.25,4.17
		c0.03,0.44-0.02,0.87-0.09,1.3c-0.18,1.09,0.21,2.49-0.13,3.27c-0.2,0.46-0.35,0.41,0.05,1.21c0.28,1.42-0.25,1.82-0.27,3.56
		c-0.01,0.93-0.65,1.75-0.87,2.66c-0.27,1.14-0.18,2.33-0.11,3.49c0.31,5.25,0.09,10.53-0.65,15.74c-0.04,0.31-0.09,0.64-0.27,0.9
		c-0.2,0.29-0.08,0.97-0.23,1.28c-0.24,0.5-0.08,0.66,0.08,1.14c0.89,2.76,0.47,4.17,0.21,6.32c-0.38,0.63-0.97,0.73-1.24,2.79
		c-0.05,0.51-0.08,0.61-0.19,0.94c-0.18,0.57,0.08,0.68,0.06,0.97c-0.03,0.5-0.1,0.83-0.14,1.33c-0.03,0.29,0.07,0.58,0.18,0.86
		c0.56,1.4,1.44,2.66,2.54,3.69c0.03,0.37,0.1,0.75,0.16,1.12c0.09,0.52,0.21,1.1,0.63,1.42c0.32,0.24,0.74,0.28,1.05,0.53
		c0.08,0.07,0.15,0.15,0.22,0.23c0.38,1.38,1.12,2.65,2.17,3.62C140.67,128.96,144.46,128.48,145.56,126.8z"/>
	<path class="st0" d="M189.77,42.67c0.71-5.13,3.03-9.76,0.13-15.41c0.55-0.94,0.91-1.88-0.03-2.24c-0.54-3.66-2.64-4.94-4.76-7.43
		c-1.85-2.17-2.24-6.2-4.66-5.33c-5.32,2.45-6.49,15.56-6.8,22.79c0.05,0.1,0.07,0.21,0.09,0.32c0.32,2.37-0.19,2.18,0.13,4.62
		c0.05,0.83-0.63,0.65-0.68,1.17c0.07,0.43,0.24,0.8,0.25,1.43c-0.32,11.81-0.63,23.63-0.95,35.44c-0.23,8.65-0.46,17.29-0.69,25.94
		c-0.21,7.76-0.41,15.51-0.62,23.27c0.25,1.29,0.13,2.63,0.2,3.98c0.06,1.01,0.47,2.91-0.2,3.85c-0.31,0.4-0.27,1.03-0.22,1.47
		c0.09,1.65-0.1,2.6-0.15,4.79c-0.25,9.25,0.67,18.35-3.91,25.13c-5.09,0.34-8.23-0.13-12.49-1.32c-1.57-0.44-3.19-0.88-4.81-0.66
		c-2.74,0.38-5.02,2.89-5.14,5.65s4.1,3.89,5.13,7.35c0.33,4.34,0.68,4.62,3.28,6.07c2.6,1.45,4.86,1.74,7.74,3.6
		c2.5,1.62,4.94,1.57,6.79,3.9c1.22,1.54,3.67,2.17,4.68,3.85c1.01,1.68,2.81,3.19,4.74,2.82c0.99-0.19,1.82-0.85,2.6-1.49
		c2.65-2.19,4.5-1.62,6.98-3.99c1.14-1.09,3.07-5.48,2.43-6.92c-0.35-0.77-0.33-1.48-0.71-1.77c0.49-1.62,0.69-3.26,0.58-4.91
		c-0.18-2.65-1.14-5.28-0.93-7.93c0.15-1.83,0.86-3.64,0.64-5.47c-0.18-1.51-0.89-3-1.39-4.49c-0.06-21.22-0.67-42.29-0.48-63.53
		c0.08-8.87,0.92-17.76,1.72-26.62c1.19-1.93,1.44-4.44,0.56-6.54c0.1-1.2,0.19-2.4,0.28-3.6C189.5,54.51,188.95,48.57,189.77,42.67
		z"/>
	<path class="st0" d="M31.72,64.72c0.39,0.72,0.94,0.81,1.25,1.16c0.23,0.27,0.32,0.63,0.4,0.98c0.49,2.12,0.92,3.72,0.74,5.89
		c-0.02,0.3,0.12,1.75,0.21,2.19c0.14,0.68,0.28,1.38,0.68,1.95c0.4,0.57,1.18,0.21,1.87,0.29c1.06,0.12,0.94-0.53,1.47-0.06
		c0.53,0.35,1.08,0.05,1.43,0.29c1.33,0.93,3.37,0.61,4.37-0.67c0.27-0.35,0.47-0.76,0.83-1.02c0.21-0.15,0.45-0.24,0.71-0.31
		c0.27,0.05,0.55,0.06,0.82,0.01c0.57-0.11,1.08-0.44,1.62-0.66c2.19-0.88,4.95,0.14,6.89-1.21c0.67-0.46,1.14-1.16,1.77-1.67
		c0.63-0.52,1.55-0.84,2.24-0.42c2.08-0.07,4.18-0.3,7.54-0.06c0.99-0.53,2-0.1,3.12-0.24c1.12-0.14,1.58,1.17,2.17,1.66
		c0.96,0.68,0.64,0.92,1.37,2.21c0.67,1.49,2.41,1.29,3.39,2.45c0.57,0.68,0.26,1.02,0.99,1.53c0.68,0.63,0.44,1.25,2.32,0.07
		c0.89-0.7,0.66-1.16,1.27-2.32c0.14-0.26-0.12-0.43,0.29-0.83c0.3-0.3,0.67-0.5,0.99-0.77c1.1-0.93,2.07-0.82,3.08-1.63
		c0.42-0.31,0.15-0.75,0.8-1.18c0.21-0.06,0.42-0.13,0.6-0.4c0.98-0.78,2.08-0.18,3.7-1.68c0.88-1.19,1.2-3.65,1.39-4.05
		c0.19-0.4,0.22-0.39,0.39-0.9c0.14-0.41-0.21-0.92-0.08-2c0.41-0.97,1.08-1.5,1.83-1.81s3.66-0.39,4.13-1.44
		c0.42-0.23,0.63-0.47,0.62-0.96c0.32-1.7-1.26-2.86-1.37-4.44c0.04-1.44,0.02-2.36-0.09-3.61c-0.32-2.48-1.73-2.89-2.9-3.72
		c-2.25-1.61-3.05-2.89-2.89-6.57c0.03-0.35,0.2-0.31,0.26-0.76c0.08-0.58-0.09-0.96-0.03-1.35c0.57-3.48,1.05-6.69,1.28-9.78
		c0.28-0.35,0.56-0.7,0.81-1.07c0.49-0.26,0.93-0.57,1.22-1.03c0.4-0.61,0.49-1.36,0.67-2.06c0.22-0.82,0.58-1.6,0.94-2.37
		c0.28-0.61,0.58-1.24,1.05-1.71c0.44-0.44,1.04-0.77,1.26-1.35c0.06-0.15,0.08-0.31,0.14-0.46c0.16-0.39,0.53-0.65,0.72-1.02
		c0.1-0.2,0.14-0.42,0.21-0.64c0.26-0.86,0.85-1.59,1.16-2.44c0.46-1.27,0.2-2.77-0.65-3.82c-0.46-0.56-1.06-0.99-1.65-1.41
		c-0.46-0.32-1.28-0.28-1.54-0.54c-0.18-0.2-0.35-0.41-0.49-0.64c-0.68-0.68-1.35-0.35-2.11-0.26c-0.07,0.01-0.63-0.19-0.86-0.31
		c-0.35-0.2-0.76-0.23-1.16-0.27c-0.89-0.1-1.76-0.28-2.64-0.46C90.1,7,89.93,6.96,89.78,6.87c-0.12-0.07-0.22-0.17-0.33-0.26
		C89,6.25,88.13,6.63,87.82,6.34c-0.67-0.62-1.57-0.75-2.27-0.77c-1.08-0.02-2.3,0.01-3.05,0.8c-0.31,0.32-0.51,0.76-0.88,1.01
		c-0.19,0.12-0.47,0.19-0.71,0.18c-0.35-0.02-0.68,0.09-0.88,0.37c-0.37,0.52-0.86,0.91-1.41,1.23c-0.66-0.11-1.34-0.13-2.01-0.06
		c-0.12,0.01-0.25,0.03-0.35,0.1c-0.13,0.09-0.19,0.26-0.33,0.33c-0.16,0.08-0.35,0.01-0.51,0.07c-0.1,0.04-0.18,0.12-0.27,0.19
		c-0.43,0.35-1.06,0.22-1.61,0.31c-0.57,0.09-1.12,0.41-1.7,0.34c-0.34-0.04-0.67-0.22-1-0.15c-0.19,0.04-0.35,0.16-0.53,0.21
		c-0.11,0.03-0.23,0.04-0.34,0.05c-1.08-0.05-2.16-0.13-3.26-0.18c-1.54-0.08-3.2-0.31-4.51,0.49c-0.25,0.15-0.5,0.09-0.79,0.11
		c-0.25,0.02-0.37,0.11-0.61,0.03c-0.93-0.3-2.17,0.35-3.06,0.35c-0.34,0-1,0.09-1.34,0.16c-0.25,0.05-0.54,0-0.83-0.07
		c-0.04-1.14-0.34-2.24-0.66-2.7c-0.19-0.23-0.48-0.9-0.99-1c-0.28-0.06-0.51-0.24-0.72-0.42c-0.39-0.34-0.38-1.05-0.84-1.3
		c-0.61-0.33-1.44,0.5-1.98,0.06c-0.16-0.13-0.31-0.29-0.41-0.47c-0.33-0.55-2.12-2.06-3.34-2.32c-0.5-0.11-0.56-0.81-0.72-1.31
		c-0.26-0.79-0.6-0.49-0.83-0.74c-0.62-0.83-1.42-1.38-2.53-1.21c-1.05,0.16-1.71,1.72-2.27,2.47c-1.03,1.36-2.18,2.64-3.29,3.94
		c-0.25,0.3-0.5,0.6-0.74,0.91c-0.04,0.02-0.09,0.03-0.14,0.06c-0.88,0.48-1.37,1.35-1.52,2.23c-0.13,0.79-0.02,1.59,0.12,2.38
		c-0.57,6.34,0.31,12.55,0.34,18.93c0.01,1.5-0.07,3.19-0.21,4.93c-0.11,0.25-0.22,0.49-0.33,0.74c-0.2,0.45-0.41,0.91-0.52,1.4
		c-0.11,0.46-0.13,0.93-0.15,1.4c-0.02,0.35-0.03,0.69-0.05,1.04c-0.06,1.33-0.15,2.74-0.88,3.85c-0.1,0.16-0.22,0.3-0.3,0.47
		c-0.15,0.3-0.2,0.64-0.23,0.98c-0.04,0.53-0.04,1.07-0.05,1.61c-0.69,1.2-0.46,0.81-0.46,1.98c0,0.15,0.05,0.28,0.12,0.4
		c-0.07,0.2-0.15,0.4-0.21,0.61c-0.18,0.64-0.17,1.32-0.21,1.98c-0.01,0.13-0.02,0.26-0.03,0.39c-0.25,0.45-0.55,0.89-0.92,1.34
		c-0.69,0.76-0.72,1.89-0.45,2.41C31.14,58.44,31.35,61.59,31.72,64.72z M56.55,26.26c0.4-0.05,0.8,0.24,1.2,0.17
		c0.43-0.08,0.66-0.54,0.89-0.92c0.74-1.23,2.08-2.01,3.48-2.38c1.39-0.37,2.85-0.38,4.29-0.38c1.83-0.01,3.56,0.13,5.36,0.16
		c0.02,0,0.04,0.01,0.06,0.01c0.24,0.02,0.48,0.01,0.72,0c0.02,0,0.03,0,0.05,0c0.03,0,0.07-0.01,0.1-0.01c0.06,0,0.13,0,0.19-0.01
		c0.5-0.03,2.18-0.12,3.25-1.11c3.34-0.56,4.7,0.81,5.31,2.8c-0.11,0.42-0.23,0.84-0.34,1.27c-0.38,1.51-0.69,3.04-0.88,4.58
		c-0.29,2.39,0,5.1-0.96,7.31c-0.57,1.29-2.32,3.13-3.21,4.22c-1.49,1.82-1.67,4.55-2.56,4.42c-1.01-0.15-2.51,1.3-5.08,1.87
		c-1.58,0.44-1.19-0.54-2.22,0.54c-2.11,2.02-3.12,3.23-6.9,4.04c-2.37,0.51-4.78-0.12-6.48-1.71c-0.17-1.78-0.12-3.58-0.28-5.49
		c-0.14-1.69-0.18-2.88,0.18-4.54c0.26-1.2,0.74-3.14,0.77-4.36c0.09-4.41-0.83-5.84-1.07-7.85c0.45-0.56,0.94-1.05,1.63-1.09
		c0.27-0.02,0.55,0.04,0.81-0.03C55.6,27.54,55.78,26.35,56.55,26.26z"/>
	<path class="st0" d="M104.91,105.22c-0.62-2.02-1.49-1.45-2.31-2.03c-1.07-0.76-0.46-1.81-3.14-2.11
		c-0.87-0.37-0.15-0.98-1.15-1.48c-0.89-0.69-2.5-0.69-3.62-0.8c-2.38-0.22-4.81,0.07-7.07,0.86c-0.22,0.08-0.54,0.08-0.62,0.29
		c-0.07,0.19-0.12,0.24-0.28,0.38c-0.28,0.25-0.59-0.14-1-0.08c-0.41,0.07-0.43,0.37-0.83,0.25c-0.36-0.11-0.85,0.1-1.2-0.1
		c-0.52-0.3-0.98-0.48-1.61-0.03c-0.16,0.12-0.48,0.47-0.63,0.6c-0.68,0.63-1.42,0.63-2.38,0.6c-1.44-0.04-2.81,0.56-4.04,1.31
		c-1.36,0.62-0.97,1.24-1.96,1.17s-1.77-0.15-2.57-0.75c-0.28-0.21-0.55-0.35-0.82-0.48c-0.24-0.98-0.6-1.96-0.78-2.95
		c0.36-1.99,1.48-3.26,1.44-5.2c-0.01-0.56-0.04-1.04-0.09-1.46c0.08-0.17,0.15-0.35,0.17-0.54c0.02-0.2-0.02-0.41-0.08-0.61
		c-0.12-0.43-0.34-0.83-0.6-1.19c0-0.02,0.01-0.03,0.01-0.05c0.04-0.48-0.15-0.94-0.36-1.37c-0.32-0.67-0.93-1.31-1.61-1.36
		c-0.83-1.94-0.63-4.23,0.02-6.77c0.29-1.14,0.92-1.17,1.33-1.36c0.47-0.16,0.42-0.43,0.45-0.5c0.03-0.07,0.03-0.14,0.02-0.21
		c-0.07-0.5-0.58-0.8-1.03-1.03c-0.06-0.03-0.12-0.06-0.18-0.07c-0.11-0.02-0.23,0.01-0.34-0.02c-0.09-0.03-0.16-0.1-0.24-0.16
		c-0.31-0.25-0.73-0.36-1.12-0.28c-0.09,0.02-0.16,0.06-0.23,0.1c-1.01-0.21-2.02-0.22-2.98-0.05c-0.71-0.26-1.55-0.31-2.04,0.08
		c-0.46,0.37-0.55,1.04-1.17,1.23c-0.22,0.07-0.48,0.06-0.67,0.17c-0.16,0.09-0.24,0.24-0.31,0.38c-0.1,0.21-0.18,0.43-0.24,0.66
		c-0.34,0.32-0.61,0.64-0.77,0.92c-1.01,1.71-1.28,3.75-1.24,5.73c0,0.22,0.02,0.45,0.12,0.65c0.04,0.07,0.1,0.14,0.15,0.2
		c-0.43,4.24-0.54,8.54-0.42,12.78c0.04,1.63,0.12,3.33-0.51,4.84c-0.33,0.8-0.84,1.5-1.32,2.23c-0.29,0.16-0.54,0.33-0.72,0.48
		c-0.44,0.4-0.76,1.19-1.35,1.17c-2.81-0.07-4.76-0.07-7.36,0.38c-1.42,0.44-0.85,0.57-1.83,0.73c-2.96,0.45-4.46,1.03-7.26,0.41
		c-0.79-0.17-1.42-0.35-2.02,0.19c-0.19,0.17-0.53,0.38-0.78,0.42c-1.56,0.28-1.21,0.2-2.19,0.38c-0.24,0.04-0.72,0.01-0.95,0.1
		c-0.17,0.07-0.76,0.15-0.93,0.08c-1.14-0.43-1.18-0.69-2.92-0.73c-1.97-0.49-3.86-0.8-5.96-0.37c-1.9,0.38-2.32,1.35-2.15,3.28
		c-0.09,0.6-0.2,1.23-0.61,1.68c-0.25,0.27-0.6,0.45-0.81,0.75c-0.22,0.32-0.27,0.72-0.31,1.1c-0.06,0.58-0.11,1.16-0.17,1.74
		c-0.03,0.26-0.05,0.52,0.04,0.77c0.07,0.18,0.19,0.33,0.31,0.48c1.45,1.8,3.33,1.99,4.35,5.39c0.16,1.31,1.5,1.82,2.58,2.16
		c0.68,0.21,1.39,0.33,1.97-0.39c0.19-0.23,0.32-0.5,0.53-0.71c0.42-0.43,1.06-0.51,1.65-0.63c2.3-0.48,4.63-0.46,5.81-3.46
		c2.75-0.83,4.76-0.28,7.43-0.16c2.5-0.36,1.3-1.54,4.59-2.15c0.45-0.08,1.14-0.12,1.91-0.12c0.8,0,1.04,0.87,1.99,1.02
		c1.38,0.16,2.34-0.2,3.71-0.33c0.04,0,0.08-0.01,0.12-0.01c-0.54,6.41-2.45,12.71-4.54,18.83c-1.25,3.66-2.57,7.31-4.22,10.81
		c-1.34,2.84-2.89,5.58-4.43,8.32c-1.5,2.65-3.69,5.26-5.19,7.91c-2.07,3.67-3.95,7.17-5.42,9.48c-0.73,1.3-1.29,2.03-1.76,2.24
		c-0.12,0.05-0.29,0.36-0.35,0.47c-0.05,0.1-0.49,0.46-0.47,0.56c0.16,0.76-0.2,0.32-0.6,0.98c-0.91,1.49-1.82,2.97-2.72,4.46
		c-0.25,0.41-0.51,0.83-0.81,1.2c-1,1.2-2.61,1.86-2.75,3.67c-0.01,0.52-0.83,1.15-1.33,1.15c-0.57,0-0.82,0-1.39,0.63
		c-0.82,0.88-0.12,1.38-0.7,2.43c-0.24,0.44-0.64,0.76-1.05,1.04c-1.09,0.77-2.31,1.37-3.27,2.3c-0.63,0.62-1.15,1.37-1.91,1.83
		c-0.73,0.5-1.58,0.59-1.99,1.46c-0.09,0.19-0.15,0.38-0.2,0.57c-2.62,1.67-3.51-3.78-4.41-2.53c-1.97,3.75-1.64,7.59-2.91,10.08
		c-1.27,2.49-2.04,5.81-0.14,7.86c2.37,2.56,5.64,2.43,7.38,3.25c1.33,0.16,2.4-0.56,3.03-1.15c0.51-0.32,1.22-0.06,1.65-0.46
		c0.25-0.23,0.87-0.05,1.1-0.3c0.49-0.28,0.96-0.45,1.44-0.76c0.63-0.15,0.93-0.74,1.59-0.78c1.01-0.07,1.67-0.13,2.59-1.16
		c0.53-0.34,0.18-0.61,0.27-0.92c0.28-0.98,1.07-1.77,1.83-2.51c1.4-1.37,2.81-2.75,4.21-4.12c0.45-0.44,0.9-0.88,1.3-1.36
		c0.59-0.7,1.06-1.47,1.52-2.24c0.77-1.3,1.5-2.62,2.19-3.96c5.35-7.84,9.86-16.04,14.88-24.26c3.28-5.37,6.46-10.84,8.9-16.64
		c1.32-3.13,2.42-6.35,3.52-9.57c3.38-9.89,7.05-17.94,10.43-28.72c1-0.26,1.93-0.81,2.82-1.36c1.81-0.45,2.58-1.6,3.87-2.41
		c0.9-0.56,1.87-1.14,2.93-1.11c0.68,0.02,1.47,0.26,1.97-0.21c0.21-0.2,0.31-0.49,0.49-0.72c1.11,0.01,1.56-0.69,2.44-0.62
		c1.03,0.5,1.56,0.12,2.34,0.18c0.77,0.14,1.52,0.23,2.25,0.31c0.51,1.2,0.54,2.9,0.64,4.2c0.13,1.55-0.18,3.54-0.23,5.09
		c-1.31,8.79-1.08,11.87-1.38,15.87c-0.06,0.86-0.35,1.71-0.79,2.45c-0.41,0.71-1.04,1.29-1.37,2.05c-0.39,0.91-0.29,1.95-0.27,2.95
		c0.05,2.38-0.42,4.76-1.36,6.94c-0.85,1.19-0.87,1.55-0.87,2.49c0.01,2.04-0.82,4.07-2.26,5.52c-1.04,0.35-1.36,0.96-1.46,1.82
		c-0.11,0.86-0.35,1.61-0.98,2.28c-0.99,0.34-1.68-0.58-2.55-1.03c-2.14-1.1-3.15-2.22-5.07-2.49c-2.04-0.28-0.21,1.64-0.18,1.96
		c0.09,0.79-0.28,1.06-0.41,1.52c-0.79,1.3-2.73,2.08-1.73,3.78c0.66,0.56,0.83,1.33,1.44,1.84c2.88,2.86,3.95,3.98,5.33,6.4
		c0.64,2.62,1.63,3.29,1.86,5.09c0.23,1.78-0.01,3.68,0.8,5.28c0.65,1.29,1.88,2.17,3.06,3c0.16,0.11,0.32,0.23,0.48,0.34
		c0.86,0.6,1.76,1.22,2.79,1.39c1.03,0.17,2.25-0.25,2.64-1.23c0.19-0.47,0.17-0.99,0.32-1.47c1.87-0.91,2.67-2.12,4.07-3.19
		c3.58-2.27,3.35-6.12,2.01-9.24c-0.21-2.13,1.1-4.44,0.26-9.05c-0.3-1.66,1.31-2.57,1.19-4.93c0.65-1.26,0.5-1.72,0.73-2.26
		c0.01-1.37-0.23-3.08,0.39-3.47c1.23-0.93,2.71-7.25,3.23-8.21c0.56-1.02,0.85-2.12,0.93-3.82c1.16-7.48,0.39-10.49,0.69-16.88
		c0.31-1.31-0.21-1.5,0.31-2.24c0.3-0.42,0.45-0.95,0.74-1.37c0.5-0.25,0.5-1.33,0.39-1.82c-0.44-2.02,0.08-3.3,0.12-4.95
		c0.02-0.8,0.06-1.65,0.51-2.3c0.27-0.39,0.67-0.67,0.95-1.05c0.51-0.68,0.6-1.57,0.68-2.42c0.05-0.51,0.09-1.03,0.14-1.54
		c0.1-0.48,0.15-0.94,0.49-1.41c0.75-1.04,1.81-0.94,1.59-3.4C106.01,105.77,105.53,105.88,104.91,105.22z"/>
</g>
</svg>
