<!-- Generator: Adobe Illustrator 25.0.0, SVG Export Plug-In  -->
<svg version="1.1" xmlns="http://www.w3.org/2000/svg" xmlns:xlink="http://www.w3.org/1999/xlink" x="0px" y="0px"
	 width="532.91px" height="434.51px" viewBox="0 0 532.91 434.51"
	 style="overflow:visible;enable-background:new 0 0 532.91 434.51;" xml:space="preserve">
<style type="text/css">
	.st0{fill:#FFFFFF;}
</style>
<defs>
</defs>
<path class="st0" d="M468.5,0H64.4C28.83,0,0,28.83,0,64.4v305.7c0,35.57,28.83,64.4,64.4,64.4h404.1c35.57,0,64.4-28.83,64.4-64.4
	V64.4C532.91,28.83,504.07,0,468.5,0z M139.5,324.82c0,6.6-5.4,12-12,12H82.37c-6.6,0-12-5.4-12-12v-15.13c0-6.6,5.4-12,12-12h45.13
	c6.6,0,12,5.4,12,12V324.82z M139.5,224.82c0,6.6-5.4,12-12,12H82.37c-6.6,0-12-5.4-12-12v-15.13c0-6.6,5.4-12,12-12h45.13
	c6.6,0,12,5.4,12,12V224.82z M139.5,124.82c0,6.6-5.4,12-12,12H82.37c-6.6,0-12-5.4-12-12v-15.13c0-6.6,5.4-12,12-12h45.13
	c6.6,0,12,5.4,12,12V124.82z M462.54,324.82c0,6.6-5.4,12-12,12H174.41c-6.6,0-12-5.4-12-12v-15.13c0-6.6,5.4-12,12-12h276.13
	c6.6,0,12,5.4,12,12V324.82z M462.54,224.82c0,6.6-5.4,12-12,12H174.41c-6.6,0-12-5.4-12-12v-15.13c0-6.6,5.4-12,12-12h276.13
	c6.6,0,12,5.4,12,12V224.82z M462.54,124.82c0,6.6-5.4,12-12,12H174.41c-6.6,0-12-5.4-12-12v-15.13c0-6.6,5.4-12,12-12h276.13
	c6.6,0,12,5.4,12,12V124.82z"/>
</svg>
